G04 #@! TF.GenerationSoftware,KiCad,Pcbnew,(5.1.7-0-10_14)*
G04 #@! TF.CreationDate,2020-11-10T17:03:04+01:00*
G04 #@! TF.ProjectId,328p-standalone,33323870-2d73-4746-916e-64616c6f6e65,rev?*
G04 #@! TF.SameCoordinates,Original*
G04 #@! TF.FileFunction,Profile,NP*
%FSLAX46Y46*%
G04 Gerber Fmt 4.6, Leading zero omitted, Abs format (unit mm)*
G04 Created by KiCad (PCBNEW (5.1.7-0-10_14)) date 2020-11-10 17:03:04*
%MOMM*%
%LPD*%
G01*
G04 APERTURE LIST*
G04 #@! TA.AperFunction,Profile*
%ADD10C,0.050000*%
G04 #@! TD*
G04 #@! TA.AperFunction,Profile*
%ADD11C,0.001000*%
G04 #@! TD*
G04 APERTURE END LIST*
D10*
X68000000Y-177500000D02*
G75*
G02*
X66000000Y-175500000I0J2000000D01*
G01*
X113000000Y-175500000D02*
G75*
G02*
X111000000Y-177500000I-2000000J0D01*
G01*
X111000000Y-89500000D02*
G75*
G02*
X113000000Y-91500000I0J-2000000D01*
G01*
X66000000Y-91500000D02*
G75*
G02*
X68000000Y-89500000I2000000J0D01*
G01*
X68000000Y-89500000D02*
X111000000Y-89500000D01*
X111000000Y-177500000D02*
X68000000Y-177500000D01*
X66000000Y-175500000D02*
X66000000Y-91500000D01*
X113000000Y-91500000D02*
X113000000Y-175500000D01*
D11*
X93525000Y-91765000D02*
X93525000Y-92565000D01*
X92925000Y-92565000D02*
X92925000Y-91765000D01*
X84875000Y-91765000D02*
X84875000Y-92565000D01*
X84275000Y-92565000D02*
X84275000Y-91765000D01*
X93525000Y-94795000D02*
X93525000Y-96295000D01*
X92925000Y-96295000D02*
X92925000Y-94795000D01*
X84875000Y-94795000D02*
X84875000Y-96295000D01*
X84275000Y-96295000D02*
X84275000Y-94795000D01*
X84875000Y-96295000D02*
G75*
G02*
X84575000Y-96595000I-300000J0D01*
G01*
X84575000Y-96595000D02*
G75*
G02*
X84275000Y-96295000I0J300000D01*
G01*
X84275000Y-94795000D02*
G75*
G02*
X84575000Y-94495000I300000J0D01*
G01*
X84575000Y-94495000D02*
G75*
G02*
X84875000Y-94795000I0J-300000D01*
G01*
X93525000Y-96295000D02*
G75*
G02*
X93225000Y-96595000I-300000J0D01*
G01*
X93225000Y-96595000D02*
G75*
G02*
X92925000Y-96295000I0J300000D01*
G01*
X92925000Y-94795000D02*
G75*
G02*
X93225000Y-94495000I300000J0D01*
G01*
X93225000Y-94495000D02*
G75*
G02*
X93525000Y-94795000I0J-300000D01*
G01*
X84875000Y-92565000D02*
G75*
G02*
X84575000Y-92865000I-300000J0D01*
G01*
X84575000Y-92865000D02*
G75*
G02*
X84275000Y-92565000I0J300000D01*
G01*
X84275000Y-91765000D02*
G75*
G02*
X84575000Y-91465000I300000J0D01*
G01*
X84575000Y-91465000D02*
G75*
G02*
X84875000Y-91765000I0J-300000D01*
G01*
X93525000Y-92565000D02*
G75*
G02*
X93225000Y-92865000I-300000J0D01*
G01*
X93225000Y-92865000D02*
G75*
G02*
X92925000Y-92565000I0J300000D01*
G01*
X92925000Y-91765000D02*
G75*
G02*
X93225000Y-91465000I300000J0D01*
G01*
X93225000Y-91465000D02*
G75*
G02*
X93525000Y-91765000I0J-300000D01*
G01*
M02*
