G04 #@! TF.GenerationSoftware,KiCad,Pcbnew,(5.1.7-0-10_14)*
G04 #@! TF.CreationDate,2020-11-10T17:03:04+01:00*
G04 #@! TF.ProjectId,328p-standalone,33323870-2d73-4746-916e-64616c6f6e65,rev?*
G04 #@! TF.SameCoordinates,Original*
G04 #@! TF.FileFunction,Legend,Top*
G04 #@! TF.FilePolarity,Positive*
%FSLAX46Y46*%
G04 Gerber Fmt 4.6, Leading zero omitted, Abs format (unit mm)*
G04 Created by KiCad (PCBNEW (5.1.7-0-10_14)) date 2020-11-10 17:03:04*
%MOMM*%
%LPD*%
G01*
G04 APERTURE LIST*
%ADD10C,0.153000*%
%ADD11C,0.150000*%
%ADD12C,0.200000*%
%ADD13C,0.120000*%
%ADD14C,0.050000*%
G04 APERTURE END LIST*
D10*
X68006592Y-166750285D02*
X67756592Y-166393142D01*
X67578021Y-166750285D02*
X67578021Y-166000285D01*
X67863735Y-166000285D01*
X67935164Y-166036000D01*
X67970878Y-166071714D01*
X68006592Y-166143142D01*
X68006592Y-166250285D01*
X67970878Y-166321714D01*
X67935164Y-166357428D01*
X67863735Y-166393142D01*
X67578021Y-166393142D01*
X68292307Y-166714571D02*
X68399450Y-166750285D01*
X68578021Y-166750285D01*
X68649450Y-166714571D01*
X68685164Y-166678857D01*
X68720878Y-166607428D01*
X68720878Y-166536000D01*
X68685164Y-166464571D01*
X68649450Y-166428857D01*
X68578021Y-166393142D01*
X68435164Y-166357428D01*
X68363735Y-166321714D01*
X68328021Y-166286000D01*
X68292307Y-166214571D01*
X68292307Y-166143142D01*
X68328021Y-166071714D01*
X68363735Y-166036000D01*
X68435164Y-166000285D01*
X68613735Y-166000285D01*
X68720878Y-166036000D01*
X68935164Y-166000285D02*
X69363735Y-166000285D01*
X69149450Y-166750285D02*
X69149450Y-166000285D01*
X70149450Y-166714571D02*
X70256592Y-166750285D01*
X70435164Y-166750285D01*
X70506592Y-166714571D01*
X70542307Y-166678857D01*
X70578021Y-166607428D01*
X70578021Y-166536000D01*
X70542307Y-166464571D01*
X70506592Y-166428857D01*
X70435164Y-166393142D01*
X70292307Y-166357428D01*
X70220878Y-166321714D01*
X70185164Y-166286000D01*
X70149450Y-166214571D01*
X70149450Y-166143142D01*
X70185164Y-166071714D01*
X70220878Y-166036000D01*
X70292307Y-166000285D01*
X70470878Y-166000285D01*
X70578021Y-166036000D01*
X71328021Y-166678857D02*
X71292307Y-166714571D01*
X71185164Y-166750285D01*
X71113735Y-166750285D01*
X71006592Y-166714571D01*
X70935164Y-166643142D01*
X70899450Y-166571714D01*
X70863735Y-166428857D01*
X70863735Y-166321714D01*
X70899450Y-166178857D01*
X70935164Y-166107428D01*
X71006592Y-166036000D01*
X71113735Y-166000285D01*
X71185164Y-166000285D01*
X71292307Y-166036000D01*
X71328021Y-166071714D01*
X71649450Y-166750285D02*
X71649450Y-166000285D01*
X72078021Y-166750285D02*
X71756592Y-166321714D01*
X72078021Y-166000285D02*
X71649450Y-166428857D01*
X72970878Y-166750285D02*
X72970878Y-166000285D01*
X73220878Y-166536000D01*
X73470878Y-166000285D01*
X73470878Y-166750285D01*
X73828021Y-166750285D02*
X73828021Y-166000285D01*
X74149450Y-166714571D02*
X74256592Y-166750285D01*
X74435164Y-166750285D01*
X74506592Y-166714571D01*
X74542307Y-166678857D01*
X74578021Y-166607428D01*
X74578021Y-166536000D01*
X74542307Y-166464571D01*
X74506592Y-166428857D01*
X74435164Y-166393142D01*
X74292307Y-166357428D01*
X74220878Y-166321714D01*
X74185164Y-166286000D01*
X74149450Y-166214571D01*
X74149450Y-166143142D01*
X74185164Y-166071714D01*
X74220878Y-166036000D01*
X74292307Y-166000285D01*
X74470878Y-166000285D01*
X74578021Y-166036000D01*
X75042307Y-166000285D02*
X75185164Y-166000285D01*
X75256592Y-166036000D01*
X75328021Y-166107428D01*
X75363735Y-166250285D01*
X75363735Y-166500285D01*
X75328021Y-166643142D01*
X75256592Y-166714571D01*
X75185164Y-166750285D01*
X75042307Y-166750285D01*
X74970878Y-166714571D01*
X74899450Y-166643142D01*
X74863735Y-166500285D01*
X74863735Y-166250285D01*
X74899450Y-166107428D01*
X74970878Y-166036000D01*
X75042307Y-166000285D01*
X67970878Y-167314000D02*
X67899450Y-167278285D01*
X67792307Y-167278285D01*
X67685164Y-167314000D01*
X67613735Y-167385428D01*
X67578021Y-167456857D01*
X67542307Y-167599714D01*
X67542307Y-167706857D01*
X67578021Y-167849714D01*
X67613735Y-167921142D01*
X67685164Y-167992571D01*
X67792307Y-168028285D01*
X67863735Y-168028285D01*
X67970878Y-167992571D01*
X68006592Y-167956857D01*
X68006592Y-167706857D01*
X67863735Y-167706857D01*
X68328021Y-168028285D02*
X68328021Y-167278285D01*
X68756592Y-168028285D01*
X68756592Y-167278285D01*
X69113735Y-168028285D02*
X69113735Y-167278285D01*
X69292307Y-167278285D01*
X69399450Y-167314000D01*
X69470878Y-167385428D01*
X69506592Y-167456857D01*
X69542307Y-167599714D01*
X69542307Y-167706857D01*
X69506592Y-167849714D01*
X69470878Y-167921142D01*
X69399450Y-167992571D01*
X69292307Y-168028285D01*
X69113735Y-168028285D01*
X70435164Y-168028285D02*
X70435164Y-167278285D01*
X70685164Y-167814000D01*
X70935164Y-167278285D01*
X70935164Y-168028285D01*
X71435164Y-167278285D02*
X71578021Y-167278285D01*
X71649450Y-167314000D01*
X71720878Y-167385428D01*
X71756592Y-167528285D01*
X71756592Y-167778285D01*
X71720878Y-167921142D01*
X71649450Y-167992571D01*
X71578021Y-168028285D01*
X71435164Y-168028285D01*
X71363735Y-167992571D01*
X71292307Y-167921142D01*
X71256592Y-167778285D01*
X71256592Y-167528285D01*
X71292307Y-167385428D01*
X71363735Y-167314000D01*
X71435164Y-167278285D01*
X72042307Y-167992571D02*
X72149450Y-168028285D01*
X72328021Y-168028285D01*
X72399450Y-167992571D01*
X72435164Y-167956857D01*
X72470878Y-167885428D01*
X72470878Y-167814000D01*
X72435164Y-167742571D01*
X72399450Y-167706857D01*
X72328021Y-167671142D01*
X72185164Y-167635428D01*
X72113735Y-167599714D01*
X72078021Y-167564000D01*
X72042307Y-167492571D01*
X72042307Y-167421142D01*
X72078021Y-167349714D01*
X72113735Y-167314000D01*
X72185164Y-167278285D01*
X72363735Y-167278285D01*
X72470878Y-167314000D01*
X72792307Y-168028285D02*
X72792307Y-167278285D01*
X74078021Y-167278285D02*
X73720878Y-167278285D01*
X73685164Y-167635428D01*
X73720878Y-167599714D01*
X73792307Y-167564000D01*
X73970878Y-167564000D01*
X74042307Y-167599714D01*
X74078021Y-167635428D01*
X74113735Y-167706857D01*
X74113735Y-167885428D01*
X74078021Y-167956857D01*
X74042307Y-167992571D01*
X73970878Y-168028285D01*
X73792307Y-168028285D01*
X73720878Y-167992571D01*
X73685164Y-167956857D01*
X74328021Y-167278285D02*
X74578021Y-168028285D01*
X74828021Y-167278285D01*
X67478021Y-163575285D02*
X67478021Y-162825285D01*
X67728021Y-163361000D01*
X67978021Y-162825285D01*
X67978021Y-163575285D01*
X68335164Y-163575285D02*
X68335164Y-162825285D01*
X68656592Y-163539571D02*
X68763735Y-163575285D01*
X68942307Y-163575285D01*
X69013735Y-163539571D01*
X69049450Y-163503857D01*
X69085164Y-163432428D01*
X69085164Y-163361000D01*
X69049450Y-163289571D01*
X69013735Y-163253857D01*
X68942307Y-163218142D01*
X68799450Y-163182428D01*
X68728021Y-163146714D01*
X68692307Y-163111000D01*
X68656592Y-163039571D01*
X68656592Y-162968142D01*
X68692307Y-162896714D01*
X68728021Y-162861000D01*
X68799450Y-162825285D01*
X68978021Y-162825285D01*
X69085164Y-162861000D01*
X69549450Y-162825285D02*
X69692307Y-162825285D01*
X69763735Y-162861000D01*
X69835164Y-162932428D01*
X69870878Y-163075285D01*
X69870878Y-163325285D01*
X69835164Y-163468142D01*
X69763735Y-163539571D01*
X69692307Y-163575285D01*
X69549450Y-163575285D01*
X69478021Y-163539571D01*
X69406592Y-163468142D01*
X69370878Y-163325285D01*
X69370878Y-163075285D01*
X69406592Y-162932428D01*
X69478021Y-162861000D01*
X69549450Y-162825285D01*
X70728021Y-163539571D02*
X70835164Y-163575285D01*
X71013735Y-163575285D01*
X71085164Y-163539571D01*
X71120878Y-163503857D01*
X71156592Y-163432428D01*
X71156592Y-163361000D01*
X71120878Y-163289571D01*
X71085164Y-163253857D01*
X71013735Y-163218142D01*
X70870878Y-163182428D01*
X70799450Y-163146714D01*
X70763735Y-163111000D01*
X70728021Y-163039571D01*
X70728021Y-162968142D01*
X70763735Y-162896714D01*
X70799450Y-162861000D01*
X70870878Y-162825285D01*
X71049450Y-162825285D01*
X71156592Y-162861000D01*
X71906592Y-163503857D02*
X71870878Y-163539571D01*
X71763735Y-163575285D01*
X71692307Y-163575285D01*
X71585164Y-163539571D01*
X71513735Y-163468142D01*
X71478021Y-163396714D01*
X71442307Y-163253857D01*
X71442307Y-163146714D01*
X71478021Y-163003857D01*
X71513735Y-162932428D01*
X71585164Y-162861000D01*
X71692307Y-162825285D01*
X71763735Y-162825285D01*
X71870878Y-162861000D01*
X71906592Y-162896714D01*
X72228021Y-163575285D02*
X72228021Y-162825285D01*
X72656592Y-163575285D02*
X72335164Y-163146714D01*
X72656592Y-162825285D02*
X72228021Y-163253857D01*
X73978021Y-163575285D02*
X73728021Y-163218142D01*
X73549450Y-163575285D02*
X73549450Y-162825285D01*
X73835164Y-162825285D01*
X73906592Y-162861000D01*
X73942307Y-162896714D01*
X73978021Y-162968142D01*
X73978021Y-163075285D01*
X73942307Y-163146714D01*
X73906592Y-163182428D01*
X73835164Y-163218142D01*
X73549450Y-163218142D01*
X74263735Y-163539571D02*
X74370878Y-163575285D01*
X74549450Y-163575285D01*
X74620878Y-163539571D01*
X74656592Y-163503857D01*
X74692307Y-163432428D01*
X74692307Y-163361000D01*
X74656592Y-163289571D01*
X74620878Y-163253857D01*
X74549450Y-163218142D01*
X74406592Y-163182428D01*
X74335164Y-163146714D01*
X74299450Y-163111000D01*
X74263735Y-163039571D01*
X74263735Y-162968142D01*
X74299450Y-162896714D01*
X74335164Y-162861000D01*
X74406592Y-162825285D01*
X74585164Y-162825285D01*
X74692307Y-162861000D01*
X74906592Y-162825285D02*
X75335164Y-162825285D01*
X75120878Y-163575285D02*
X75120878Y-162825285D01*
X76156592Y-163575285D02*
X76156592Y-162825285D01*
X76585164Y-163575285D01*
X76585164Y-162825285D01*
X77370878Y-163503857D02*
X77335164Y-163539571D01*
X77228021Y-163575285D01*
X77156592Y-163575285D01*
X77049450Y-163539571D01*
X76978021Y-163468142D01*
X76942307Y-163396714D01*
X76906592Y-163253857D01*
X76906592Y-163146714D01*
X76942307Y-163003857D01*
X76978021Y-162932428D01*
X77049450Y-162861000D01*
X77156592Y-162825285D01*
X77228021Y-162825285D01*
X77335164Y-162861000D01*
X77370878Y-162896714D01*
X78263735Y-163575285D02*
X78263735Y-162825285D01*
X78513735Y-163361000D01*
X78763735Y-162825285D01*
X78763735Y-163575285D01*
X79263735Y-162825285D02*
X79406592Y-162825285D01*
X79478021Y-162861000D01*
X79549450Y-162932428D01*
X79585164Y-163075285D01*
X79585164Y-163325285D01*
X79549450Y-163468142D01*
X79478021Y-163539571D01*
X79406592Y-163575285D01*
X79263735Y-163575285D01*
X79192307Y-163539571D01*
X79120878Y-163468142D01*
X79085164Y-163325285D01*
X79085164Y-163075285D01*
X79120878Y-162932428D01*
X79192307Y-162861000D01*
X79263735Y-162825285D01*
X79870878Y-163539571D02*
X79978021Y-163575285D01*
X80156592Y-163575285D01*
X80228021Y-163539571D01*
X80263735Y-163503857D01*
X80299450Y-163432428D01*
X80299450Y-163361000D01*
X80263735Y-163289571D01*
X80228021Y-163253857D01*
X80156592Y-163218142D01*
X80013735Y-163182428D01*
X79942307Y-163146714D01*
X79906592Y-163111000D01*
X79870878Y-163039571D01*
X79870878Y-162968142D01*
X79906592Y-162896714D01*
X79942307Y-162861000D01*
X80013735Y-162825285D01*
X80192307Y-162825285D01*
X80299450Y-162861000D01*
X80620878Y-163575285D02*
X80620878Y-162825285D01*
X67870878Y-164139000D02*
X67799450Y-164103285D01*
X67692307Y-164103285D01*
X67585164Y-164139000D01*
X67513735Y-164210428D01*
X67478021Y-164281857D01*
X67442307Y-164424714D01*
X67442307Y-164531857D01*
X67478021Y-164674714D01*
X67513735Y-164746142D01*
X67585164Y-164817571D01*
X67692307Y-164853285D01*
X67763735Y-164853285D01*
X67870878Y-164817571D01*
X67906592Y-164781857D01*
X67906592Y-164531857D01*
X67763735Y-164531857D01*
X68228021Y-164853285D02*
X68228021Y-164103285D01*
X68656592Y-164853285D01*
X68656592Y-164103285D01*
X69013735Y-164853285D02*
X69013735Y-164103285D01*
X69192307Y-164103285D01*
X69299450Y-164139000D01*
X69370878Y-164210428D01*
X69406592Y-164281857D01*
X69442307Y-164424714D01*
X69442307Y-164531857D01*
X69406592Y-164674714D01*
X69370878Y-164746142D01*
X69299450Y-164817571D01*
X69192307Y-164853285D01*
X69013735Y-164853285D01*
X70728021Y-164139000D02*
X70656592Y-164103285D01*
X70549450Y-164103285D01*
X70442307Y-164139000D01*
X70370878Y-164210428D01*
X70335164Y-164281857D01*
X70299450Y-164424714D01*
X70299450Y-164531857D01*
X70335164Y-164674714D01*
X70370878Y-164746142D01*
X70442307Y-164817571D01*
X70549450Y-164853285D01*
X70620878Y-164853285D01*
X70728021Y-164817571D01*
X70763735Y-164781857D01*
X70763735Y-164531857D01*
X70620878Y-164531857D01*
X71085164Y-164853285D02*
X71085164Y-164103285D01*
X71513735Y-164853285D01*
X71513735Y-164103285D01*
X71870878Y-164853285D02*
X71870878Y-164103285D01*
X72049450Y-164103285D01*
X72156592Y-164139000D01*
X72228021Y-164210428D01*
X72263735Y-164281857D01*
X72299450Y-164424714D01*
X72299450Y-164531857D01*
X72263735Y-164674714D01*
X72228021Y-164746142D01*
X72156592Y-164817571D01*
X72049450Y-164853285D01*
X71870878Y-164853285D01*
X73585164Y-164139000D02*
X73513735Y-164103285D01*
X73406592Y-164103285D01*
X73299450Y-164139000D01*
X73228021Y-164210428D01*
X73192307Y-164281857D01*
X73156592Y-164424714D01*
X73156592Y-164531857D01*
X73192307Y-164674714D01*
X73228021Y-164746142D01*
X73299450Y-164817571D01*
X73406592Y-164853285D01*
X73478021Y-164853285D01*
X73585164Y-164817571D01*
X73620878Y-164781857D01*
X73620878Y-164531857D01*
X73478021Y-164531857D01*
X73942307Y-164853285D02*
X73942307Y-164103285D01*
X74370878Y-164853285D01*
X74370878Y-164103285D01*
X74728021Y-164853285D02*
X74728021Y-164103285D01*
X74906592Y-164103285D01*
X75013735Y-164139000D01*
X75085164Y-164210428D01*
X75120878Y-164281857D01*
X75156592Y-164424714D01*
X75156592Y-164531857D01*
X75120878Y-164674714D01*
X75085164Y-164746142D01*
X75013735Y-164817571D01*
X74906592Y-164853285D01*
X74728021Y-164853285D01*
X76442307Y-164139000D02*
X76370878Y-164103285D01*
X76263735Y-164103285D01*
X76156592Y-164139000D01*
X76085164Y-164210428D01*
X76049450Y-164281857D01*
X76013735Y-164424714D01*
X76013735Y-164531857D01*
X76049450Y-164674714D01*
X76085164Y-164746142D01*
X76156592Y-164817571D01*
X76263735Y-164853285D01*
X76335164Y-164853285D01*
X76442307Y-164817571D01*
X76478021Y-164781857D01*
X76478021Y-164531857D01*
X76335164Y-164531857D01*
X76799450Y-164853285D02*
X76799450Y-164103285D01*
X77228021Y-164853285D01*
X77228021Y-164103285D01*
X77585164Y-164853285D02*
X77585164Y-164103285D01*
X77763735Y-164103285D01*
X77870878Y-164139000D01*
X77942307Y-164210428D01*
X77978021Y-164281857D01*
X78013735Y-164424714D01*
X78013735Y-164531857D01*
X77978021Y-164674714D01*
X77942307Y-164746142D01*
X77870878Y-164817571D01*
X77763735Y-164853285D01*
X77585164Y-164853285D01*
X79263735Y-164103285D02*
X78906592Y-164103285D01*
X78870878Y-164460428D01*
X78906592Y-164424714D01*
X78978021Y-164389000D01*
X79156592Y-164389000D01*
X79228021Y-164424714D01*
X79263735Y-164460428D01*
X79299450Y-164531857D01*
X79299450Y-164710428D01*
X79263735Y-164781857D01*
X79228021Y-164817571D01*
X79156592Y-164853285D01*
X78978021Y-164853285D01*
X78906592Y-164817571D01*
X78870878Y-164781857D01*
X79513735Y-164103285D02*
X79763735Y-164853285D01*
X80013735Y-164103285D01*
D11*
X106867976Y-117154285D02*
X106867976Y-116404285D01*
X107172738Y-116404285D01*
X107248928Y-116440000D01*
X107287023Y-116475714D01*
X107325119Y-116547142D01*
X107325119Y-116654285D01*
X107287023Y-116725714D01*
X107248928Y-116761428D01*
X107172738Y-116797142D01*
X106867976Y-116797142D01*
X108125119Y-117082857D02*
X108087023Y-117118571D01*
X107972738Y-117154285D01*
X107896547Y-117154285D01*
X107782261Y-117118571D01*
X107706071Y-117047142D01*
X107667976Y-116975714D01*
X107629880Y-116832857D01*
X107629880Y-116725714D01*
X107667976Y-116582857D01*
X107706071Y-116511428D01*
X107782261Y-116440000D01*
X107896547Y-116404285D01*
X107972738Y-116404285D01*
X108087023Y-116440000D01*
X108125119Y-116475714D01*
X108848928Y-116404285D02*
X108467976Y-116404285D01*
X108429880Y-116761428D01*
X108467976Y-116725714D01*
X108544166Y-116690000D01*
X108734642Y-116690000D01*
X108810833Y-116725714D01*
X108848928Y-116761428D01*
X108887023Y-116832857D01*
X108887023Y-117011428D01*
X108848928Y-117082857D01*
X108810833Y-117118571D01*
X108734642Y-117154285D01*
X108544166Y-117154285D01*
X108467976Y-117118571D01*
X108429880Y-117082857D01*
X107096547Y-118715000D02*
X107058452Y-118679285D01*
X106982261Y-118572142D01*
X106944166Y-118500714D01*
X106906071Y-118393571D01*
X106867976Y-118215000D01*
X106867976Y-118072142D01*
X106906071Y-117893571D01*
X106944166Y-117786428D01*
X106982261Y-117715000D01*
X107058452Y-117607857D01*
X107096547Y-117572142D01*
X107363214Y-118393571D02*
X107477500Y-118429285D01*
X107667976Y-118429285D01*
X107744166Y-118393571D01*
X107782261Y-118357857D01*
X107820357Y-118286428D01*
X107820357Y-118215000D01*
X107782261Y-118143571D01*
X107744166Y-118107857D01*
X107667976Y-118072142D01*
X107515595Y-118036428D01*
X107439404Y-118000714D01*
X107401309Y-117965000D01*
X107363214Y-117893571D01*
X107363214Y-117822142D01*
X107401309Y-117750714D01*
X107439404Y-117715000D01*
X107515595Y-117679285D01*
X107706071Y-117679285D01*
X107820357Y-117715000D01*
X108620357Y-118357857D02*
X108582261Y-118393571D01*
X108467976Y-118429285D01*
X108391785Y-118429285D01*
X108277500Y-118393571D01*
X108201309Y-118322142D01*
X108163214Y-118250714D01*
X108125119Y-118107857D01*
X108125119Y-118000714D01*
X108163214Y-117857857D01*
X108201309Y-117786428D01*
X108277500Y-117715000D01*
X108391785Y-117679285D01*
X108467976Y-117679285D01*
X108582261Y-117715000D01*
X108620357Y-117750714D01*
X109344166Y-118429285D02*
X108963214Y-118429285D01*
X108963214Y-117679285D01*
X109534642Y-118715000D02*
X109572738Y-118679285D01*
X109648928Y-118572142D01*
X109687023Y-118500714D01*
X109725119Y-118393571D01*
X109763214Y-118215000D01*
X109763214Y-118072142D01*
X109725119Y-117893571D01*
X109687023Y-117786428D01*
X109648928Y-117715000D01*
X109572738Y-117607857D01*
X109534642Y-117572142D01*
X106867976Y-119704285D02*
X106867976Y-118954285D01*
X107172738Y-118954285D01*
X107248928Y-118990000D01*
X107287023Y-119025714D01*
X107325119Y-119097142D01*
X107325119Y-119204285D01*
X107287023Y-119275714D01*
X107248928Y-119311428D01*
X107172738Y-119347142D01*
X106867976Y-119347142D01*
X108125119Y-119632857D02*
X108087023Y-119668571D01*
X107972738Y-119704285D01*
X107896547Y-119704285D01*
X107782261Y-119668571D01*
X107706071Y-119597142D01*
X107667976Y-119525714D01*
X107629880Y-119382857D01*
X107629880Y-119275714D01*
X107667976Y-119132857D01*
X107706071Y-119061428D01*
X107782261Y-118990000D01*
X107896547Y-118954285D01*
X107972738Y-118954285D01*
X108087023Y-118990000D01*
X108125119Y-119025714D01*
X108810833Y-119204285D02*
X108810833Y-119704285D01*
X108620357Y-118918571D02*
X108429880Y-119454285D01*
X108925119Y-119454285D01*
X107096547Y-121265000D02*
X107058452Y-121229285D01*
X106982261Y-121122142D01*
X106944166Y-121050714D01*
X106906071Y-120943571D01*
X106867976Y-120765000D01*
X106867976Y-120622142D01*
X106906071Y-120443571D01*
X106944166Y-120336428D01*
X106982261Y-120265000D01*
X107058452Y-120157857D01*
X107096547Y-120122142D01*
X107363214Y-120943571D02*
X107477500Y-120979285D01*
X107667976Y-120979285D01*
X107744166Y-120943571D01*
X107782261Y-120907857D01*
X107820357Y-120836428D01*
X107820357Y-120765000D01*
X107782261Y-120693571D01*
X107744166Y-120657857D01*
X107667976Y-120622142D01*
X107515595Y-120586428D01*
X107439404Y-120550714D01*
X107401309Y-120515000D01*
X107363214Y-120443571D01*
X107363214Y-120372142D01*
X107401309Y-120300714D01*
X107439404Y-120265000D01*
X107515595Y-120229285D01*
X107706071Y-120229285D01*
X107820357Y-120265000D01*
X108163214Y-120979285D02*
X108163214Y-120229285D01*
X108353690Y-120229285D01*
X108467976Y-120265000D01*
X108544166Y-120336428D01*
X108582261Y-120407857D01*
X108620357Y-120550714D01*
X108620357Y-120657857D01*
X108582261Y-120800714D01*
X108544166Y-120872142D01*
X108467976Y-120943571D01*
X108353690Y-120979285D01*
X108163214Y-120979285D01*
X108925119Y-120765000D02*
X109306071Y-120765000D01*
X108848928Y-120979285D02*
X109115595Y-120229285D01*
X109382261Y-120979285D01*
X109572738Y-121265000D02*
X109610833Y-121229285D01*
X109687023Y-121122142D01*
X109725119Y-121050714D01*
X109763214Y-120943571D01*
X109801309Y-120765000D01*
X109801309Y-120622142D01*
X109763214Y-120443571D01*
X109725119Y-120336428D01*
X109687023Y-120265000D01*
X109610833Y-120157857D01*
X109572738Y-120122142D01*
X106867976Y-122254285D02*
X106867976Y-121504285D01*
X107172738Y-121504285D01*
X107248928Y-121540000D01*
X107287023Y-121575714D01*
X107325119Y-121647142D01*
X107325119Y-121754285D01*
X107287023Y-121825714D01*
X107248928Y-121861428D01*
X107172738Y-121897142D01*
X106867976Y-121897142D01*
X108125119Y-122182857D02*
X108087023Y-122218571D01*
X107972738Y-122254285D01*
X107896547Y-122254285D01*
X107782261Y-122218571D01*
X107706071Y-122147142D01*
X107667976Y-122075714D01*
X107629880Y-121932857D01*
X107629880Y-121825714D01*
X107667976Y-121682857D01*
X107706071Y-121611428D01*
X107782261Y-121540000D01*
X107896547Y-121504285D01*
X107972738Y-121504285D01*
X108087023Y-121540000D01*
X108125119Y-121575714D01*
X108391785Y-121504285D02*
X108887023Y-121504285D01*
X108620357Y-121790000D01*
X108734642Y-121790000D01*
X108810833Y-121825714D01*
X108848928Y-121861428D01*
X108887023Y-121932857D01*
X108887023Y-122111428D01*
X108848928Y-122182857D01*
X108810833Y-122218571D01*
X108734642Y-122254285D01*
X108506071Y-122254285D01*
X108429880Y-122218571D01*
X108391785Y-122182857D01*
X106867976Y-124804285D02*
X106867976Y-124054285D01*
X107172738Y-124054285D01*
X107248928Y-124090000D01*
X107287023Y-124125714D01*
X107325119Y-124197142D01*
X107325119Y-124304285D01*
X107287023Y-124375714D01*
X107248928Y-124411428D01*
X107172738Y-124447142D01*
X106867976Y-124447142D01*
X108125119Y-124732857D02*
X108087023Y-124768571D01*
X107972738Y-124804285D01*
X107896547Y-124804285D01*
X107782261Y-124768571D01*
X107706071Y-124697142D01*
X107667976Y-124625714D01*
X107629880Y-124482857D01*
X107629880Y-124375714D01*
X107667976Y-124232857D01*
X107706071Y-124161428D01*
X107782261Y-124090000D01*
X107896547Y-124054285D01*
X107972738Y-124054285D01*
X108087023Y-124090000D01*
X108125119Y-124125714D01*
X108429880Y-124125714D02*
X108467976Y-124090000D01*
X108544166Y-124054285D01*
X108734642Y-124054285D01*
X108810833Y-124090000D01*
X108848928Y-124125714D01*
X108887023Y-124197142D01*
X108887023Y-124268571D01*
X108848928Y-124375714D01*
X108391785Y-124804285D01*
X108887023Y-124804285D01*
X106867976Y-127354285D02*
X106867976Y-126604285D01*
X107172738Y-126604285D01*
X107248928Y-126640000D01*
X107287023Y-126675714D01*
X107325119Y-126747142D01*
X107325119Y-126854285D01*
X107287023Y-126925714D01*
X107248928Y-126961428D01*
X107172738Y-126997142D01*
X106867976Y-126997142D01*
X108125119Y-127282857D02*
X108087023Y-127318571D01*
X107972738Y-127354285D01*
X107896547Y-127354285D01*
X107782261Y-127318571D01*
X107706071Y-127247142D01*
X107667976Y-127175714D01*
X107629880Y-127032857D01*
X107629880Y-126925714D01*
X107667976Y-126782857D01*
X107706071Y-126711428D01*
X107782261Y-126640000D01*
X107896547Y-126604285D01*
X107972738Y-126604285D01*
X108087023Y-126640000D01*
X108125119Y-126675714D01*
X108887023Y-127354285D02*
X108429880Y-127354285D01*
X108658452Y-127354285D02*
X108658452Y-126604285D01*
X108582261Y-126711428D01*
X108506071Y-126782857D01*
X108429880Y-126818571D01*
X106867976Y-129904285D02*
X106867976Y-129154285D01*
X107172738Y-129154285D01*
X107248928Y-129190000D01*
X107287023Y-129225714D01*
X107325119Y-129297142D01*
X107325119Y-129404285D01*
X107287023Y-129475714D01*
X107248928Y-129511428D01*
X107172738Y-129547142D01*
X106867976Y-129547142D01*
X108125119Y-129832857D02*
X108087023Y-129868571D01*
X107972738Y-129904285D01*
X107896547Y-129904285D01*
X107782261Y-129868571D01*
X107706071Y-129797142D01*
X107667976Y-129725714D01*
X107629880Y-129582857D01*
X107629880Y-129475714D01*
X107667976Y-129332857D01*
X107706071Y-129261428D01*
X107782261Y-129190000D01*
X107896547Y-129154285D01*
X107972738Y-129154285D01*
X108087023Y-129190000D01*
X108125119Y-129225714D01*
X108620357Y-129154285D02*
X108696547Y-129154285D01*
X108772738Y-129190000D01*
X108810833Y-129225714D01*
X108848928Y-129297142D01*
X108887023Y-129440000D01*
X108887023Y-129618571D01*
X108848928Y-129761428D01*
X108810833Y-129832857D01*
X108772738Y-129868571D01*
X108696547Y-129904285D01*
X108620357Y-129904285D01*
X108544166Y-129868571D01*
X108506071Y-129832857D01*
X108467976Y-129761428D01*
X108429880Y-129618571D01*
X108429880Y-129440000D01*
X108467976Y-129297142D01*
X108506071Y-129225714D01*
X108544166Y-129190000D01*
X108620357Y-129154285D01*
X106867976Y-134934285D02*
X106867976Y-134184285D01*
X107172738Y-134184285D01*
X107248928Y-134220000D01*
X107287023Y-134255714D01*
X107325119Y-134327142D01*
X107325119Y-134434285D01*
X107287023Y-134505714D01*
X107248928Y-134541428D01*
X107172738Y-134577142D01*
X106867976Y-134577142D01*
X107934642Y-134541428D02*
X108048928Y-134577142D01*
X108087023Y-134612857D01*
X108125119Y-134684285D01*
X108125119Y-134791428D01*
X108087023Y-134862857D01*
X108048928Y-134898571D01*
X107972738Y-134934285D01*
X107667976Y-134934285D01*
X107667976Y-134184285D01*
X107934642Y-134184285D01*
X108010833Y-134220000D01*
X108048928Y-134255714D01*
X108087023Y-134327142D01*
X108087023Y-134398571D01*
X108048928Y-134470000D01*
X108010833Y-134505714D01*
X107934642Y-134541428D01*
X107667976Y-134541428D01*
X108848928Y-134184285D02*
X108467976Y-134184285D01*
X108429880Y-134541428D01*
X108467976Y-134505714D01*
X108544166Y-134470000D01*
X108734642Y-134470000D01*
X108810833Y-134505714D01*
X108848928Y-134541428D01*
X108887023Y-134612857D01*
X108887023Y-134791428D01*
X108848928Y-134862857D01*
X108810833Y-134898571D01*
X108734642Y-134934285D01*
X108544166Y-134934285D01*
X108467976Y-134898571D01*
X108429880Y-134862857D01*
X107096547Y-136495000D02*
X107058452Y-136459285D01*
X106982261Y-136352142D01*
X106944166Y-136280714D01*
X106906071Y-136173571D01*
X106867976Y-135995000D01*
X106867976Y-135852142D01*
X106906071Y-135673571D01*
X106944166Y-135566428D01*
X106982261Y-135495000D01*
X107058452Y-135387857D01*
X107096547Y-135352142D01*
X107363214Y-136173571D02*
X107477500Y-136209285D01*
X107667976Y-136209285D01*
X107744166Y-136173571D01*
X107782261Y-136137857D01*
X107820357Y-136066428D01*
X107820357Y-135995000D01*
X107782261Y-135923571D01*
X107744166Y-135887857D01*
X107667976Y-135852142D01*
X107515595Y-135816428D01*
X107439404Y-135780714D01*
X107401309Y-135745000D01*
X107363214Y-135673571D01*
X107363214Y-135602142D01*
X107401309Y-135530714D01*
X107439404Y-135495000D01*
X107515595Y-135459285D01*
X107706071Y-135459285D01*
X107820357Y-135495000D01*
X108620357Y-136137857D02*
X108582261Y-136173571D01*
X108467976Y-136209285D01*
X108391785Y-136209285D01*
X108277500Y-136173571D01*
X108201309Y-136102142D01*
X108163214Y-136030714D01*
X108125119Y-135887857D01*
X108125119Y-135780714D01*
X108163214Y-135637857D01*
X108201309Y-135566428D01*
X108277500Y-135495000D01*
X108391785Y-135459285D01*
X108467976Y-135459285D01*
X108582261Y-135495000D01*
X108620357Y-135530714D01*
X108963214Y-136209285D02*
X108963214Y-135459285D01*
X109420357Y-136209285D02*
X109077500Y-135780714D01*
X109420357Y-135459285D02*
X108963214Y-135887857D01*
X109687023Y-136495000D02*
X109725119Y-136459285D01*
X109801309Y-136352142D01*
X109839404Y-136280714D01*
X109877500Y-136173571D01*
X109915595Y-135995000D01*
X109915595Y-135852142D01*
X109877500Y-135673571D01*
X109839404Y-135566428D01*
X109801309Y-135495000D01*
X109725119Y-135387857D01*
X109687023Y-135352142D01*
X106867976Y-137484285D02*
X106867976Y-136734285D01*
X107172738Y-136734285D01*
X107248928Y-136770000D01*
X107287023Y-136805714D01*
X107325119Y-136877142D01*
X107325119Y-136984285D01*
X107287023Y-137055714D01*
X107248928Y-137091428D01*
X107172738Y-137127142D01*
X106867976Y-137127142D01*
X107934642Y-137091428D02*
X108048928Y-137127142D01*
X108087023Y-137162857D01*
X108125119Y-137234285D01*
X108125119Y-137341428D01*
X108087023Y-137412857D01*
X108048928Y-137448571D01*
X107972738Y-137484285D01*
X107667976Y-137484285D01*
X107667976Y-136734285D01*
X107934642Y-136734285D01*
X108010833Y-136770000D01*
X108048928Y-136805714D01*
X108087023Y-136877142D01*
X108087023Y-136948571D01*
X108048928Y-137020000D01*
X108010833Y-137055714D01*
X107934642Y-137091428D01*
X107667976Y-137091428D01*
X108810833Y-136984285D02*
X108810833Y-137484285D01*
X108620357Y-136698571D02*
X108429880Y-137234285D01*
X108925119Y-137234285D01*
X107096547Y-139045000D02*
X107058452Y-139009285D01*
X106982261Y-138902142D01*
X106944166Y-138830714D01*
X106906071Y-138723571D01*
X106867976Y-138545000D01*
X106867976Y-138402142D01*
X106906071Y-138223571D01*
X106944166Y-138116428D01*
X106982261Y-138045000D01*
X107058452Y-137937857D01*
X107096547Y-137902142D01*
X107401309Y-138759285D02*
X107401309Y-138009285D01*
X107667976Y-138545000D01*
X107934642Y-138009285D01*
X107934642Y-138759285D01*
X108315595Y-138759285D02*
X108315595Y-138009285D01*
X108658452Y-138723571D02*
X108772738Y-138759285D01*
X108963214Y-138759285D01*
X109039404Y-138723571D01*
X109077500Y-138687857D01*
X109115595Y-138616428D01*
X109115595Y-138545000D01*
X109077500Y-138473571D01*
X109039404Y-138437857D01*
X108963214Y-138402142D01*
X108810833Y-138366428D01*
X108734642Y-138330714D01*
X108696547Y-138295000D01*
X108658452Y-138223571D01*
X108658452Y-138152142D01*
X108696547Y-138080714D01*
X108734642Y-138045000D01*
X108810833Y-138009285D01*
X109001309Y-138009285D01*
X109115595Y-138045000D01*
X109610833Y-138009285D02*
X109763214Y-138009285D01*
X109839404Y-138045000D01*
X109915595Y-138116428D01*
X109953690Y-138259285D01*
X109953690Y-138509285D01*
X109915595Y-138652142D01*
X109839404Y-138723571D01*
X109763214Y-138759285D01*
X109610833Y-138759285D01*
X109534642Y-138723571D01*
X109458452Y-138652142D01*
X109420357Y-138509285D01*
X109420357Y-138259285D01*
X109458452Y-138116428D01*
X109534642Y-138045000D01*
X109610833Y-138009285D01*
X110220357Y-139045000D02*
X110258452Y-139009285D01*
X110334642Y-138902142D01*
X110372738Y-138830714D01*
X110410833Y-138723571D01*
X110448928Y-138545000D01*
X110448928Y-138402142D01*
X110410833Y-138223571D01*
X110372738Y-138116428D01*
X110334642Y-138045000D01*
X110258452Y-137937857D01*
X110220357Y-137902142D01*
X106867976Y-140034285D02*
X106867976Y-139284285D01*
X107172738Y-139284285D01*
X107248928Y-139320000D01*
X107287023Y-139355714D01*
X107325119Y-139427142D01*
X107325119Y-139534285D01*
X107287023Y-139605714D01*
X107248928Y-139641428D01*
X107172738Y-139677142D01*
X106867976Y-139677142D01*
X107934642Y-139641428D02*
X108048928Y-139677142D01*
X108087023Y-139712857D01*
X108125119Y-139784285D01*
X108125119Y-139891428D01*
X108087023Y-139962857D01*
X108048928Y-139998571D01*
X107972738Y-140034285D01*
X107667976Y-140034285D01*
X107667976Y-139284285D01*
X107934642Y-139284285D01*
X108010833Y-139320000D01*
X108048928Y-139355714D01*
X108087023Y-139427142D01*
X108087023Y-139498571D01*
X108048928Y-139570000D01*
X108010833Y-139605714D01*
X107934642Y-139641428D01*
X107667976Y-139641428D01*
X108391785Y-139284285D02*
X108887023Y-139284285D01*
X108620357Y-139570000D01*
X108734642Y-139570000D01*
X108810833Y-139605714D01*
X108848928Y-139641428D01*
X108887023Y-139712857D01*
X108887023Y-139891428D01*
X108848928Y-139962857D01*
X108810833Y-139998571D01*
X108734642Y-140034285D01*
X108506071Y-140034285D01*
X108429880Y-139998571D01*
X108391785Y-139962857D01*
X107096547Y-141595000D02*
X107058452Y-141559285D01*
X106982261Y-141452142D01*
X106944166Y-141380714D01*
X106906071Y-141273571D01*
X106867976Y-141095000D01*
X106867976Y-140952142D01*
X106906071Y-140773571D01*
X106944166Y-140666428D01*
X106982261Y-140595000D01*
X107058452Y-140487857D01*
X107096547Y-140452142D01*
X107401309Y-141309285D02*
X107401309Y-140559285D01*
X107667976Y-141095000D01*
X107934642Y-140559285D01*
X107934642Y-141309285D01*
X108467976Y-140559285D02*
X108620357Y-140559285D01*
X108696547Y-140595000D01*
X108772738Y-140666428D01*
X108810833Y-140809285D01*
X108810833Y-141059285D01*
X108772738Y-141202142D01*
X108696547Y-141273571D01*
X108620357Y-141309285D01*
X108467976Y-141309285D01*
X108391785Y-141273571D01*
X108315595Y-141202142D01*
X108277500Y-141059285D01*
X108277500Y-140809285D01*
X108315595Y-140666428D01*
X108391785Y-140595000D01*
X108467976Y-140559285D01*
X109115595Y-141273571D02*
X109229880Y-141309285D01*
X109420357Y-141309285D01*
X109496547Y-141273571D01*
X109534642Y-141237857D01*
X109572738Y-141166428D01*
X109572738Y-141095000D01*
X109534642Y-141023571D01*
X109496547Y-140987857D01*
X109420357Y-140952142D01*
X109267976Y-140916428D01*
X109191785Y-140880714D01*
X109153690Y-140845000D01*
X109115595Y-140773571D01*
X109115595Y-140702142D01*
X109153690Y-140630714D01*
X109191785Y-140595000D01*
X109267976Y-140559285D01*
X109458452Y-140559285D01*
X109572738Y-140595000D01*
X109915595Y-141309285D02*
X109915595Y-140559285D01*
X110220357Y-141595000D02*
X110258452Y-141559285D01*
X110334642Y-141452142D01*
X110372738Y-141380714D01*
X110410833Y-141273571D01*
X110448928Y-141095000D01*
X110448928Y-140952142D01*
X110410833Y-140773571D01*
X110372738Y-140666428D01*
X110334642Y-140595000D01*
X110258452Y-140487857D01*
X110220357Y-140452142D01*
X106867976Y-142584285D02*
X106867976Y-141834285D01*
X107172738Y-141834285D01*
X107248928Y-141870000D01*
X107287023Y-141905714D01*
X107325119Y-141977142D01*
X107325119Y-142084285D01*
X107287023Y-142155714D01*
X107248928Y-142191428D01*
X107172738Y-142227142D01*
X106867976Y-142227142D01*
X107934642Y-142191428D02*
X108048928Y-142227142D01*
X108087023Y-142262857D01*
X108125119Y-142334285D01*
X108125119Y-142441428D01*
X108087023Y-142512857D01*
X108048928Y-142548571D01*
X107972738Y-142584285D01*
X107667976Y-142584285D01*
X107667976Y-141834285D01*
X107934642Y-141834285D01*
X108010833Y-141870000D01*
X108048928Y-141905714D01*
X108087023Y-141977142D01*
X108087023Y-142048571D01*
X108048928Y-142120000D01*
X108010833Y-142155714D01*
X107934642Y-142191428D01*
X107667976Y-142191428D01*
X108429880Y-141905714D02*
X108467976Y-141870000D01*
X108544166Y-141834285D01*
X108734642Y-141834285D01*
X108810833Y-141870000D01*
X108848928Y-141905714D01*
X108887023Y-141977142D01*
X108887023Y-142048571D01*
X108848928Y-142155714D01*
X108391785Y-142584285D01*
X108887023Y-142584285D01*
X106867976Y-145134285D02*
X106867976Y-144384285D01*
X107172738Y-144384285D01*
X107248928Y-144420000D01*
X107287023Y-144455714D01*
X107325119Y-144527142D01*
X107325119Y-144634285D01*
X107287023Y-144705714D01*
X107248928Y-144741428D01*
X107172738Y-144777142D01*
X106867976Y-144777142D01*
X107934642Y-144741428D02*
X108048928Y-144777142D01*
X108087023Y-144812857D01*
X108125119Y-144884285D01*
X108125119Y-144991428D01*
X108087023Y-145062857D01*
X108048928Y-145098571D01*
X107972738Y-145134285D01*
X107667976Y-145134285D01*
X107667976Y-144384285D01*
X107934642Y-144384285D01*
X108010833Y-144420000D01*
X108048928Y-144455714D01*
X108087023Y-144527142D01*
X108087023Y-144598571D01*
X108048928Y-144670000D01*
X108010833Y-144705714D01*
X107934642Y-144741428D01*
X107667976Y-144741428D01*
X108887023Y-145134285D02*
X108429880Y-145134285D01*
X108658452Y-145134285D02*
X108658452Y-144384285D01*
X108582261Y-144491428D01*
X108506071Y-144562857D01*
X108429880Y-144598571D01*
X106867976Y-147684285D02*
X106867976Y-146934285D01*
X107172738Y-146934285D01*
X107248928Y-146970000D01*
X107287023Y-147005714D01*
X107325119Y-147077142D01*
X107325119Y-147184285D01*
X107287023Y-147255714D01*
X107248928Y-147291428D01*
X107172738Y-147327142D01*
X106867976Y-147327142D01*
X107934642Y-147291428D02*
X108048928Y-147327142D01*
X108087023Y-147362857D01*
X108125119Y-147434285D01*
X108125119Y-147541428D01*
X108087023Y-147612857D01*
X108048928Y-147648571D01*
X107972738Y-147684285D01*
X107667976Y-147684285D01*
X107667976Y-146934285D01*
X107934642Y-146934285D01*
X108010833Y-146970000D01*
X108048928Y-147005714D01*
X108087023Y-147077142D01*
X108087023Y-147148571D01*
X108048928Y-147220000D01*
X108010833Y-147255714D01*
X107934642Y-147291428D01*
X107667976Y-147291428D01*
X108620357Y-146934285D02*
X108696547Y-146934285D01*
X108772738Y-146970000D01*
X108810833Y-147005714D01*
X108848928Y-147077142D01*
X108887023Y-147220000D01*
X108887023Y-147398571D01*
X108848928Y-147541428D01*
X108810833Y-147612857D01*
X108772738Y-147648571D01*
X108696547Y-147684285D01*
X108620357Y-147684285D01*
X108544166Y-147648571D01*
X108506071Y-147612857D01*
X108467976Y-147541428D01*
X108429880Y-147398571D01*
X108429880Y-147220000D01*
X108467976Y-147077142D01*
X108506071Y-147005714D01*
X108544166Y-146970000D01*
X108620357Y-146934285D01*
X106867976Y-152714285D02*
X106867976Y-151964285D01*
X107172738Y-151964285D01*
X107248928Y-152000000D01*
X107287023Y-152035714D01*
X107325119Y-152107142D01*
X107325119Y-152214285D01*
X107287023Y-152285714D01*
X107248928Y-152321428D01*
X107172738Y-152357142D01*
X106867976Y-152357142D01*
X107667976Y-152714285D02*
X107667976Y-151964285D01*
X107858452Y-151964285D01*
X107972738Y-152000000D01*
X108048928Y-152071428D01*
X108087023Y-152142857D01*
X108125119Y-152285714D01*
X108125119Y-152392857D01*
X108087023Y-152535714D01*
X108048928Y-152607142D01*
X107972738Y-152678571D01*
X107858452Y-152714285D01*
X107667976Y-152714285D01*
X108620357Y-151964285D02*
X108696547Y-151964285D01*
X108772738Y-152000000D01*
X108810833Y-152035714D01*
X108848928Y-152107142D01*
X108887023Y-152250000D01*
X108887023Y-152428571D01*
X108848928Y-152571428D01*
X108810833Y-152642857D01*
X108772738Y-152678571D01*
X108696547Y-152714285D01*
X108620357Y-152714285D01*
X108544166Y-152678571D01*
X108506071Y-152642857D01*
X108467976Y-152571428D01*
X108429880Y-152428571D01*
X108429880Y-152250000D01*
X108467976Y-152107142D01*
X108506071Y-152035714D01*
X108544166Y-152000000D01*
X108620357Y-151964285D01*
X106867976Y-155264285D02*
X106867976Y-154514285D01*
X107172738Y-154514285D01*
X107248928Y-154550000D01*
X107287023Y-154585714D01*
X107325119Y-154657142D01*
X107325119Y-154764285D01*
X107287023Y-154835714D01*
X107248928Y-154871428D01*
X107172738Y-154907142D01*
X106867976Y-154907142D01*
X107667976Y-155264285D02*
X107667976Y-154514285D01*
X107858452Y-154514285D01*
X107972738Y-154550000D01*
X108048928Y-154621428D01*
X108087023Y-154692857D01*
X108125119Y-154835714D01*
X108125119Y-154942857D01*
X108087023Y-155085714D01*
X108048928Y-155157142D01*
X107972738Y-155228571D01*
X107858452Y-155264285D01*
X107667976Y-155264285D01*
X108887023Y-155264285D02*
X108429880Y-155264285D01*
X108658452Y-155264285D02*
X108658452Y-154514285D01*
X108582261Y-154621428D01*
X108506071Y-154692857D01*
X108429880Y-154728571D01*
X106867976Y-157814285D02*
X106867976Y-157064285D01*
X107172738Y-157064285D01*
X107248928Y-157100000D01*
X107287023Y-157135714D01*
X107325119Y-157207142D01*
X107325119Y-157314285D01*
X107287023Y-157385714D01*
X107248928Y-157421428D01*
X107172738Y-157457142D01*
X106867976Y-157457142D01*
X107667976Y-157814285D02*
X107667976Y-157064285D01*
X107858452Y-157064285D01*
X107972738Y-157100000D01*
X108048928Y-157171428D01*
X108087023Y-157242857D01*
X108125119Y-157385714D01*
X108125119Y-157492857D01*
X108087023Y-157635714D01*
X108048928Y-157707142D01*
X107972738Y-157778571D01*
X107858452Y-157814285D01*
X107667976Y-157814285D01*
X108810833Y-157314285D02*
X108810833Y-157814285D01*
X108620357Y-157028571D02*
X108429880Y-157564285D01*
X108925119Y-157564285D01*
X106867976Y-160364285D02*
X106867976Y-159614285D01*
X107172738Y-159614285D01*
X107248928Y-159650000D01*
X107287023Y-159685714D01*
X107325119Y-159757142D01*
X107325119Y-159864285D01*
X107287023Y-159935714D01*
X107248928Y-159971428D01*
X107172738Y-160007142D01*
X106867976Y-160007142D01*
X107667976Y-160364285D02*
X107667976Y-159614285D01*
X107858452Y-159614285D01*
X107972738Y-159650000D01*
X108048928Y-159721428D01*
X108087023Y-159792857D01*
X108125119Y-159935714D01*
X108125119Y-160042857D01*
X108087023Y-160185714D01*
X108048928Y-160257142D01*
X107972738Y-160328571D01*
X107858452Y-160364285D01*
X107667976Y-160364285D01*
X108848928Y-159614285D02*
X108467976Y-159614285D01*
X108429880Y-159971428D01*
X108467976Y-159935714D01*
X108544166Y-159900000D01*
X108734642Y-159900000D01*
X108810833Y-159935714D01*
X108848928Y-159971428D01*
X108887023Y-160042857D01*
X108887023Y-160221428D01*
X108848928Y-160292857D01*
X108810833Y-160328571D01*
X108734642Y-160364285D01*
X108544166Y-160364285D01*
X108467976Y-160328571D01*
X108429880Y-160292857D01*
X106867976Y-162914285D02*
X106867976Y-162164285D01*
X107172738Y-162164285D01*
X107248928Y-162200000D01*
X107287023Y-162235714D01*
X107325119Y-162307142D01*
X107325119Y-162414285D01*
X107287023Y-162485714D01*
X107248928Y-162521428D01*
X107172738Y-162557142D01*
X106867976Y-162557142D01*
X107667976Y-162914285D02*
X107667976Y-162164285D01*
X107858452Y-162164285D01*
X107972738Y-162200000D01*
X108048928Y-162271428D01*
X108087023Y-162342857D01*
X108125119Y-162485714D01*
X108125119Y-162592857D01*
X108087023Y-162735714D01*
X108048928Y-162807142D01*
X107972738Y-162878571D01*
X107858452Y-162914285D01*
X107667976Y-162914285D01*
X108810833Y-162164285D02*
X108658452Y-162164285D01*
X108582261Y-162200000D01*
X108544166Y-162235714D01*
X108467976Y-162342857D01*
X108429880Y-162485714D01*
X108429880Y-162771428D01*
X108467976Y-162842857D01*
X108506071Y-162878571D01*
X108582261Y-162914285D01*
X108734642Y-162914285D01*
X108810833Y-162878571D01*
X108848928Y-162842857D01*
X108887023Y-162771428D01*
X108887023Y-162592857D01*
X108848928Y-162521428D01*
X108810833Y-162485714D01*
X108734642Y-162450000D01*
X108582261Y-162450000D01*
X108506071Y-162485714D01*
X108467976Y-162521428D01*
X108429880Y-162592857D01*
X106867976Y-165464285D02*
X106867976Y-164714285D01*
X107172738Y-164714285D01*
X107248928Y-164750000D01*
X107287023Y-164785714D01*
X107325119Y-164857142D01*
X107325119Y-164964285D01*
X107287023Y-165035714D01*
X107248928Y-165071428D01*
X107172738Y-165107142D01*
X106867976Y-165107142D01*
X107667976Y-165464285D02*
X107667976Y-164714285D01*
X107858452Y-164714285D01*
X107972738Y-164750000D01*
X108048928Y-164821428D01*
X108087023Y-164892857D01*
X108125119Y-165035714D01*
X108125119Y-165142857D01*
X108087023Y-165285714D01*
X108048928Y-165357142D01*
X107972738Y-165428571D01*
X107858452Y-165464285D01*
X107667976Y-165464285D01*
X108391785Y-164714285D02*
X108925119Y-164714285D01*
X108582261Y-165464285D01*
X107528928Y-103714285D02*
X107147976Y-103714285D01*
X107109880Y-104071428D01*
X107147976Y-104035714D01*
X107224166Y-104000000D01*
X107414642Y-104000000D01*
X107490833Y-104035714D01*
X107528928Y-104071428D01*
X107567023Y-104142857D01*
X107567023Y-104321428D01*
X107528928Y-104392857D01*
X107490833Y-104428571D01*
X107414642Y-104464285D01*
X107224166Y-104464285D01*
X107147976Y-104428571D01*
X107109880Y-104392857D01*
X107795595Y-103714285D02*
X108062261Y-104464285D01*
X108328928Y-103714285D01*
X107109880Y-106978571D02*
X107224166Y-107014285D01*
X107414642Y-107014285D01*
X107490833Y-106978571D01*
X107528928Y-106942857D01*
X107567023Y-106871428D01*
X107567023Y-106800000D01*
X107528928Y-106728571D01*
X107490833Y-106692857D01*
X107414642Y-106657142D01*
X107262261Y-106621428D01*
X107186071Y-106585714D01*
X107147976Y-106550000D01*
X107109880Y-106478571D01*
X107109880Y-106407142D01*
X107147976Y-106335714D01*
X107186071Y-106300000D01*
X107262261Y-106264285D01*
X107452738Y-106264285D01*
X107567023Y-106300000D01*
X108367023Y-106942857D02*
X108328928Y-106978571D01*
X108214642Y-107014285D01*
X108138452Y-107014285D01*
X108024166Y-106978571D01*
X107947976Y-106907142D01*
X107909880Y-106835714D01*
X107871785Y-106692857D01*
X107871785Y-106585714D01*
X107909880Y-106442857D01*
X107947976Y-106371428D01*
X108024166Y-106300000D01*
X108138452Y-106264285D01*
X108214642Y-106264285D01*
X108328928Y-106300000D01*
X108367023Y-106335714D01*
X109090833Y-107014285D02*
X108709880Y-107014285D01*
X108709880Y-106264285D01*
X107109880Y-109528571D02*
X107224166Y-109564285D01*
X107414642Y-109564285D01*
X107490833Y-109528571D01*
X107528928Y-109492857D01*
X107567023Y-109421428D01*
X107567023Y-109350000D01*
X107528928Y-109278571D01*
X107490833Y-109242857D01*
X107414642Y-109207142D01*
X107262261Y-109171428D01*
X107186071Y-109135714D01*
X107147976Y-109100000D01*
X107109880Y-109028571D01*
X107109880Y-108957142D01*
X107147976Y-108885714D01*
X107186071Y-108850000D01*
X107262261Y-108814285D01*
X107452738Y-108814285D01*
X107567023Y-108850000D01*
X107909880Y-109564285D02*
X107909880Y-108814285D01*
X108100357Y-108814285D01*
X108214642Y-108850000D01*
X108290833Y-108921428D01*
X108328928Y-108992857D01*
X108367023Y-109135714D01*
X108367023Y-109242857D01*
X108328928Y-109385714D01*
X108290833Y-109457142D01*
X108214642Y-109528571D01*
X108100357Y-109564285D01*
X107909880Y-109564285D01*
X108671785Y-109350000D02*
X109052738Y-109350000D01*
X108595595Y-109564285D02*
X108862261Y-108814285D01*
X109128928Y-109564285D01*
X107567023Y-111400000D02*
X107490833Y-111364285D01*
X107376547Y-111364285D01*
X107262261Y-111400000D01*
X107186071Y-111471428D01*
X107147976Y-111542857D01*
X107109880Y-111685714D01*
X107109880Y-111792857D01*
X107147976Y-111935714D01*
X107186071Y-112007142D01*
X107262261Y-112078571D01*
X107376547Y-112114285D01*
X107452738Y-112114285D01*
X107567023Y-112078571D01*
X107605119Y-112042857D01*
X107605119Y-111792857D01*
X107452738Y-111792857D01*
X107947976Y-112114285D02*
X107947976Y-111364285D01*
X108405119Y-112114285D01*
X108405119Y-111364285D01*
X108786071Y-112114285D02*
X108786071Y-111364285D01*
X108976547Y-111364285D01*
X109090833Y-111400000D01*
X109167023Y-111471428D01*
X109205119Y-111542857D01*
X109243214Y-111685714D01*
X109243214Y-111792857D01*
X109205119Y-111935714D01*
X109167023Y-112007142D01*
X109090833Y-112078571D01*
X108976547Y-112114285D01*
X108786071Y-112114285D01*
X70660000Y-151660000D02*
X76660000Y-151660000D01*
X76660000Y-148160000D02*
X70660000Y-148160000D01*
X70660000Y-151660000D02*
X70660000Y-151160000D01*
X70660000Y-148160000D02*
X70660000Y-148560000D01*
X76660000Y-148160000D02*
X76660000Y-148560000D01*
X76660000Y-151660000D02*
X76660000Y-151160000D01*
X76660000Y-118850000D02*
X70660000Y-118850000D01*
X70660000Y-122350000D02*
X76660000Y-122350000D01*
X76660000Y-118850000D02*
X76660000Y-119350000D01*
X76660000Y-122350000D02*
X76660000Y-121950000D01*
X70660000Y-122350000D02*
X70660000Y-121950000D01*
X70660000Y-118850000D02*
X70660000Y-119350000D01*
D12*
X74060000Y-104940000D02*
X73760000Y-104940000D01*
X74060000Y-103340000D02*
X74385000Y-103340000D01*
X74060000Y-104940000D02*
X74060000Y-103340000D01*
X74933629Y-104140000D02*
X72220000Y-104140000D01*
D11*
G36*
X73060000Y-104940000D02*
G01*
X73060000Y-103340000D01*
X74060000Y-104140000D01*
X73060000Y-104940000D01*
G37*
X73060000Y-104940000D02*
X73060000Y-103340000D01*
X74060000Y-104140000D01*
X73060000Y-104940000D01*
D12*
X74060000Y-107480000D02*
X73760000Y-107480000D01*
X74060000Y-105880000D02*
X74385000Y-105880000D01*
X74060000Y-107480000D02*
X74060000Y-105880000D01*
X74933629Y-106680000D02*
X72220000Y-106680000D01*
D11*
G36*
X73060000Y-107480000D02*
G01*
X73060000Y-105880000D01*
X74060000Y-106680000D01*
X73060000Y-107480000D01*
G37*
X73060000Y-107480000D02*
X73060000Y-105880000D01*
X74060000Y-106680000D01*
X73060000Y-107480000D01*
D13*
X78870000Y-110490000D02*
X78870000Y-107950000D01*
X82170000Y-99120000D02*
X82170000Y-100820000D01*
X79900000Y-99120000D02*
X79900000Y-100420000D01*
X95360000Y-99120000D02*
X79900000Y-99120000D01*
X95360000Y-149340000D02*
X95360000Y-99120000D01*
X79900000Y-149340000D02*
X95360000Y-149340000D01*
X79900000Y-105320000D02*
X79900000Y-149340000D01*
X81520000Y-102870000D02*
G75*
G03*
X81520000Y-102870000I-900000J0D01*
G01*
X83170000Y-102870000D02*
G75*
G03*
X83170000Y-102870000I-2550000J0D01*
G01*
D12*
X84425000Y-90425000D02*
X84425000Y-90775000D01*
X93375000Y-90425000D02*
X84425000Y-90425000D01*
X93375000Y-90775000D02*
X93375000Y-90425000D01*
X93375000Y-97085000D02*
X84425000Y-97085000D01*
D13*
X100170000Y-164295000D02*
X100170000Y-168135000D01*
X98330000Y-164295000D02*
X98330000Y-168135000D01*
X98835000Y-173355000D02*
X98835000Y-173511000D01*
X98835000Y-171039000D02*
X98835000Y-171195000D01*
X101436130Y-173354837D02*
G75*
G02*
X99354039Y-173355000I-1041130J1079837D01*
G01*
X101436130Y-171195163D02*
G75*
G03*
X99354039Y-171195000I-1041130J-1079837D01*
G01*
X102067335Y-173353608D02*
G75*
G02*
X98835000Y-173510516I-1672335J1078608D01*
G01*
X102067335Y-171196392D02*
G75*
G03*
X98835000Y-171039484I-1672335J-1078608D01*
G01*
X73011000Y-130460000D02*
X74269000Y-130460000D01*
X73011000Y-128620000D02*
X74269000Y-128620000D01*
X74309000Y-145700000D02*
X73051000Y-145700000D01*
X74309000Y-143860000D02*
X73051000Y-143860000D01*
X96430199Y-100205000D02*
X96430199Y-100605000D01*
X96230199Y-100405000D02*
X96630199Y-100405000D01*
X100581000Y-101230000D02*
X100581000Y-101970000D01*
X100541000Y-101063000D02*
X100541000Y-102137000D01*
X100501000Y-100936000D02*
X100501000Y-102264000D01*
X100461000Y-100832000D02*
X100461000Y-102368000D01*
X100421000Y-100741000D02*
X100421000Y-102459000D01*
X100381000Y-100660000D02*
X100381000Y-102540000D01*
X100341000Y-100587000D02*
X100341000Y-102613000D01*
X100301000Y-100520000D02*
X100301000Y-102680000D01*
X100261000Y-100458000D02*
X100261000Y-102742000D01*
X100221000Y-100400000D02*
X100221000Y-102800000D01*
X100181000Y-100346000D02*
X100181000Y-102854000D01*
X100141000Y-100296000D02*
X100141000Y-102904000D01*
X100101000Y-100249000D02*
X100101000Y-102951000D01*
X100061000Y-102440000D02*
X100061000Y-102996000D01*
X100061000Y-100204000D02*
X100061000Y-100760000D01*
X100021000Y-102440000D02*
X100021000Y-103038000D01*
X100021000Y-100162000D02*
X100021000Y-100760000D01*
X99981000Y-102440000D02*
X99981000Y-103078000D01*
X99981000Y-100122000D02*
X99981000Y-100760000D01*
X99941000Y-102440000D02*
X99941000Y-103116000D01*
X99941000Y-100084000D02*
X99941000Y-100760000D01*
X99901000Y-102440000D02*
X99901000Y-103152000D01*
X99901000Y-100048000D02*
X99901000Y-100760000D01*
X99861000Y-102440000D02*
X99861000Y-103187000D01*
X99861000Y-100013000D02*
X99861000Y-100760000D01*
X99821000Y-102440000D02*
X99821000Y-103219000D01*
X99821000Y-99981000D02*
X99821000Y-100760000D01*
X99781000Y-102440000D02*
X99781000Y-103250000D01*
X99781000Y-99950000D02*
X99781000Y-100760000D01*
X99741000Y-102440000D02*
X99741000Y-103280000D01*
X99741000Y-99920000D02*
X99741000Y-100760000D01*
X99701000Y-102440000D02*
X99701000Y-103308000D01*
X99701000Y-99892000D02*
X99701000Y-100760000D01*
X99661000Y-102440000D02*
X99661000Y-103335000D01*
X99661000Y-99865000D02*
X99661000Y-100760000D01*
X99621000Y-102440000D02*
X99621000Y-103360000D01*
X99621000Y-99840000D02*
X99621000Y-100760000D01*
X99581000Y-102440000D02*
X99581000Y-103385000D01*
X99581000Y-99815000D02*
X99581000Y-100760000D01*
X99541000Y-102440000D02*
X99541000Y-103408000D01*
X99541000Y-99792000D02*
X99541000Y-100760000D01*
X99501000Y-102440000D02*
X99501000Y-103430000D01*
X99501000Y-99770000D02*
X99501000Y-100760000D01*
X99461000Y-102440000D02*
X99461000Y-103451000D01*
X99461000Y-99749000D02*
X99461000Y-100760000D01*
X99421000Y-102440000D02*
X99421000Y-103470000D01*
X99421000Y-99730000D02*
X99421000Y-100760000D01*
X99381000Y-102440000D02*
X99381000Y-103489000D01*
X99381000Y-99711000D02*
X99381000Y-100760000D01*
X99341000Y-102440000D02*
X99341000Y-103507000D01*
X99341000Y-99693000D02*
X99341000Y-100760000D01*
X99301000Y-102440000D02*
X99301000Y-103524000D01*
X99301000Y-99676000D02*
X99301000Y-100760000D01*
X99261000Y-102440000D02*
X99261000Y-103540000D01*
X99261000Y-99660000D02*
X99261000Y-100760000D01*
X99221000Y-102440000D02*
X99221000Y-103554000D01*
X99221000Y-99646000D02*
X99221000Y-100760000D01*
X99180000Y-102440000D02*
X99180000Y-103568000D01*
X99180000Y-99632000D02*
X99180000Y-100760000D01*
X99140000Y-102440000D02*
X99140000Y-103582000D01*
X99140000Y-99618000D02*
X99140000Y-100760000D01*
X99100000Y-102440000D02*
X99100000Y-103594000D01*
X99100000Y-99606000D02*
X99100000Y-100760000D01*
X99060000Y-102440000D02*
X99060000Y-103605000D01*
X99060000Y-99595000D02*
X99060000Y-100760000D01*
X99020000Y-102440000D02*
X99020000Y-103616000D01*
X99020000Y-99584000D02*
X99020000Y-100760000D01*
X98980000Y-102440000D02*
X98980000Y-103625000D01*
X98980000Y-99575000D02*
X98980000Y-100760000D01*
X98940000Y-102440000D02*
X98940000Y-103634000D01*
X98940000Y-99566000D02*
X98940000Y-100760000D01*
X98900000Y-102440000D02*
X98900000Y-103642000D01*
X98900000Y-99558000D02*
X98900000Y-100760000D01*
X98860000Y-102440000D02*
X98860000Y-103650000D01*
X98860000Y-99550000D02*
X98860000Y-100760000D01*
X98820000Y-102440000D02*
X98820000Y-103656000D01*
X98820000Y-99544000D02*
X98820000Y-100760000D01*
X98780000Y-102440000D02*
X98780000Y-103662000D01*
X98780000Y-99538000D02*
X98780000Y-100760000D01*
X98740000Y-102440000D02*
X98740000Y-103667000D01*
X98740000Y-99533000D02*
X98740000Y-100760000D01*
X98700000Y-102440000D02*
X98700000Y-103671000D01*
X98700000Y-99529000D02*
X98700000Y-100760000D01*
X98660000Y-102440000D02*
X98660000Y-103674000D01*
X98660000Y-99526000D02*
X98660000Y-100760000D01*
X98620000Y-102440000D02*
X98620000Y-103677000D01*
X98620000Y-99523000D02*
X98620000Y-100760000D01*
X98580000Y-99521000D02*
X98580000Y-100760000D01*
X98580000Y-102440000D02*
X98580000Y-103679000D01*
X98540000Y-99520000D02*
X98540000Y-100760000D01*
X98540000Y-102440000D02*
X98540000Y-103680000D01*
X98500000Y-99520000D02*
X98500000Y-100760000D01*
X98500000Y-102440000D02*
X98500000Y-103680000D01*
X100620000Y-101600000D02*
G75*
G03*
X100620000Y-101600000I-2120000J0D01*
G01*
X98805000Y-124770000D02*
X98820000Y-124770000D01*
X96680000Y-124770000D02*
X96695000Y-124770000D01*
X98805000Y-129310000D02*
X98820000Y-129310000D01*
X96680000Y-129310000D02*
X96695000Y-129310000D01*
X98820000Y-129310000D02*
X98820000Y-124770000D01*
X96680000Y-129310000D02*
X96680000Y-124770000D01*
X75970000Y-126800000D02*
X71430000Y-126800000D01*
X75970000Y-124660000D02*
X71430000Y-124660000D01*
X75970000Y-126800000D02*
X75970000Y-126785000D01*
X75970000Y-124675000D02*
X75970000Y-124660000D01*
X71430000Y-126800000D02*
X71430000Y-126785000D01*
X71430000Y-124675000D02*
X71430000Y-124660000D01*
X97140000Y-97440000D02*
X100980000Y-97440000D01*
X97140000Y-95600000D02*
X100980000Y-95600000D01*
X90315000Y-164845000D02*
X90815000Y-165845000D01*
X91315000Y-164845000D02*
X90315000Y-164845000D01*
X90815000Y-165845000D02*
X91315000Y-164845000D01*
X86225000Y-167545000D02*
X86225000Y-166235000D01*
X86225000Y-167545000D02*
X86225000Y-167545000D01*
X81825000Y-167545000D02*
X86225000Y-167545000D01*
X81825000Y-174045000D02*
X81825000Y-167545000D01*
X94725000Y-174045000D02*
X81825000Y-174045000D01*
X94725000Y-167545000D02*
X94725000Y-174045000D01*
X90325000Y-167545000D02*
X94725000Y-167545000D01*
X90325000Y-166235000D02*
X90325000Y-167545000D01*
X80525000Y-166235000D02*
X96025000Y-166235000D01*
X80525000Y-175355000D02*
X80525000Y-166235000D01*
X96025000Y-175355000D02*
X80525000Y-175355000D01*
X96025000Y-166235000D02*
X96025000Y-175355000D01*
X98560000Y-152935000D02*
X98560000Y-162055000D01*
X98560000Y-162055000D02*
X77980000Y-162055000D01*
X77980000Y-162055000D02*
X77980000Y-152935000D01*
X77980000Y-152935000D02*
X98560000Y-152935000D01*
X90320000Y-152935000D02*
X90320000Y-154245000D01*
X90320000Y-154245000D02*
X97260000Y-154245000D01*
X97260000Y-154245000D02*
X97260000Y-160745000D01*
X97260000Y-160745000D02*
X79280000Y-160745000D01*
X79280000Y-160745000D02*
X79280000Y-154245000D01*
X79280000Y-154245000D02*
X86220000Y-154245000D01*
X86220000Y-154245000D02*
X86220000Y-154245000D01*
X86220000Y-154245000D02*
X86220000Y-152935000D01*
X93350000Y-152545000D02*
X93850000Y-151545000D01*
X93850000Y-151545000D02*
X92850000Y-151545000D01*
X92850000Y-151545000D02*
X93350000Y-152545000D01*
X104140000Y-102810000D02*
X105470000Y-102810000D01*
X105470000Y-102810000D02*
X105470000Y-104140000D01*
X105470000Y-105410000D02*
X105470000Y-113090000D01*
X102810000Y-113090000D02*
X105470000Y-113090000D01*
X102810000Y-105410000D02*
X102810000Y-113090000D01*
X102810000Y-105410000D02*
X105470000Y-105410000D01*
X104140000Y-115510000D02*
X105470000Y-115510000D01*
X105470000Y-115510000D02*
X105470000Y-116840000D01*
X105470000Y-118110000D02*
X105470000Y-130870000D01*
X102810000Y-130870000D02*
X105470000Y-130870000D01*
X102810000Y-118110000D02*
X102810000Y-130870000D01*
X102810000Y-118110000D02*
X105470000Y-118110000D01*
X104140000Y-133290000D02*
X105470000Y-133290000D01*
X105470000Y-133290000D02*
X105470000Y-134620000D01*
X105470000Y-135890000D02*
X105470000Y-148650000D01*
X102810000Y-148650000D02*
X105470000Y-148650000D01*
X102810000Y-135890000D02*
X102810000Y-148650000D01*
X102810000Y-135890000D02*
X105470000Y-135890000D01*
X102810000Y-153670000D02*
X105470000Y-153670000D01*
X102810000Y-153670000D02*
X102810000Y-166430000D01*
X102810000Y-166430000D02*
X105470000Y-166430000D01*
X105470000Y-153670000D02*
X105470000Y-166430000D01*
X105470000Y-151070000D02*
X105470000Y-152400000D01*
X104140000Y-151070000D02*
X105470000Y-151070000D01*
X71740000Y-117760000D02*
X75580000Y-117760000D01*
X71740000Y-115920000D02*
X75580000Y-115920000D01*
X71740000Y-99980000D02*
X75580000Y-99980000D01*
X71740000Y-98140000D02*
X75580000Y-98140000D01*
X71740000Y-100680000D02*
X75580000Y-100680000D01*
X71740000Y-102520000D02*
X75580000Y-102520000D01*
X71740000Y-108300000D02*
X75580000Y-108300000D01*
X71740000Y-110140000D02*
X75580000Y-110140000D01*
X75580000Y-110840000D02*
X71740000Y-110840000D01*
X75580000Y-112680000D02*
X71740000Y-112680000D01*
X75580000Y-115220000D02*
X71740000Y-115220000D01*
X75580000Y-113380000D02*
X71740000Y-113380000D01*
X96870000Y-112410000D02*
X96870000Y-108570000D01*
X98710000Y-112410000D02*
X98710000Y-108570000D01*
X101250000Y-112410000D02*
X101250000Y-108570000D01*
X99410000Y-112410000D02*
X99410000Y-108570000D01*
X71135000Y-133860000D02*
X71135000Y-140260000D01*
X76185000Y-133860000D02*
X76185000Y-140260000D01*
X71135000Y-133860000D02*
G75*
G02*
X76185000Y-133860000I2525000J0D01*
G01*
X71135000Y-140260000D02*
G75*
G03*
X76185000Y-140260000I2525000J0D01*
G01*
D11*
X68057142Y-148774285D02*
X68019047Y-148888571D01*
X67980952Y-148926666D01*
X67904761Y-148964761D01*
X67790476Y-148964761D01*
X67714285Y-148926666D01*
X67676190Y-148888571D01*
X67638095Y-148812380D01*
X67638095Y-148507619D01*
X68438095Y-148507619D01*
X68438095Y-148774285D01*
X68400000Y-148850476D01*
X68361904Y-148888571D01*
X68285714Y-148926666D01*
X68209523Y-148926666D01*
X68133333Y-148888571D01*
X68095238Y-148850476D01*
X68057142Y-148774285D01*
X68057142Y-148507619D01*
X68438095Y-149460000D02*
X68438095Y-149612380D01*
X68400000Y-149688571D01*
X68323809Y-149764761D01*
X68171428Y-149802857D01*
X67904761Y-149802857D01*
X67752380Y-149764761D01*
X67676190Y-149688571D01*
X67638095Y-149612380D01*
X67638095Y-149460000D01*
X67676190Y-149383809D01*
X67752380Y-149307619D01*
X67904761Y-149269523D01*
X68171428Y-149269523D01*
X68323809Y-149307619D01*
X68400000Y-149383809D01*
X68438095Y-149460000D01*
X68438095Y-150298095D02*
X68438095Y-150450476D01*
X68400000Y-150526666D01*
X68323809Y-150602857D01*
X68171428Y-150640952D01*
X67904761Y-150640952D01*
X67752380Y-150602857D01*
X67676190Y-150526666D01*
X67638095Y-150450476D01*
X67638095Y-150298095D01*
X67676190Y-150221904D01*
X67752380Y-150145714D01*
X67904761Y-150107619D01*
X68171428Y-150107619D01*
X68323809Y-150145714D01*
X68400000Y-150221904D01*
X68438095Y-150298095D01*
X68438095Y-150869523D02*
X68438095Y-151326666D01*
X67638095Y-151098095D02*
X68438095Y-151098095D01*
X67638095Y-119488095D02*
X68019047Y-119221428D01*
X67638095Y-119030952D02*
X68438095Y-119030952D01*
X68438095Y-119335714D01*
X68400000Y-119411904D01*
X68361904Y-119450000D01*
X68285714Y-119488095D01*
X68171428Y-119488095D01*
X68095238Y-119450000D01*
X68057142Y-119411904D01*
X68019047Y-119335714D01*
X68019047Y-119030952D01*
X68057142Y-119830952D02*
X68057142Y-120097619D01*
X67638095Y-120211904D02*
X67638095Y-119830952D01*
X68438095Y-119830952D01*
X68438095Y-120211904D01*
X67676190Y-120516666D02*
X67638095Y-120630952D01*
X67638095Y-120821428D01*
X67676190Y-120897619D01*
X67714285Y-120935714D01*
X67790476Y-120973809D01*
X67866666Y-120973809D01*
X67942857Y-120935714D01*
X67980952Y-120897619D01*
X68019047Y-120821428D01*
X68057142Y-120669047D01*
X68095238Y-120592857D01*
X68133333Y-120554761D01*
X68209523Y-120516666D01*
X68285714Y-120516666D01*
X68361904Y-120554761D01*
X68400000Y-120592857D01*
X68438095Y-120669047D01*
X68438095Y-120859523D01*
X68400000Y-120973809D01*
X68057142Y-121316666D02*
X68057142Y-121583333D01*
X67638095Y-121697619D02*
X67638095Y-121316666D01*
X68438095Y-121316666D01*
X68438095Y-121697619D01*
X68438095Y-121926190D02*
X68438095Y-122383333D01*
X67638095Y-122154761D02*
X68438095Y-122154761D01*
X67841904Y-104592380D02*
X67841904Y-103592380D01*
X68080000Y-103592380D01*
X68222857Y-103640000D01*
X68318095Y-103735238D01*
X68365714Y-103830476D01*
X68413333Y-104020952D01*
X68413333Y-104163809D01*
X68365714Y-104354285D01*
X68318095Y-104449523D01*
X68222857Y-104544761D01*
X68080000Y-104592380D01*
X67841904Y-104592380D01*
X69365714Y-104592380D02*
X68794285Y-104592380D01*
X69080000Y-104592380D02*
X69080000Y-103592380D01*
X68984761Y-103735238D01*
X68889523Y-103830476D01*
X68794285Y-103878095D01*
X67841904Y-107132380D02*
X67841904Y-106132380D01*
X68080000Y-106132380D01*
X68222857Y-106180000D01*
X68318095Y-106275238D01*
X68365714Y-106370476D01*
X68413333Y-106560952D01*
X68413333Y-106703809D01*
X68365714Y-106894285D01*
X68318095Y-106989523D01*
X68222857Y-107084761D01*
X68080000Y-107132380D01*
X67841904Y-107132380D01*
X68794285Y-106227619D02*
X68841904Y-106180000D01*
X68937142Y-106132380D01*
X69175238Y-106132380D01*
X69270476Y-106180000D01*
X69318095Y-106227619D01*
X69365714Y-106322857D01*
X69365714Y-106418095D01*
X69318095Y-106560952D01*
X68746666Y-107132380D01*
X69365714Y-107132380D01*
X88138095Y-97112380D02*
X88138095Y-97921904D01*
X88185714Y-98017142D01*
X88233333Y-98064761D01*
X88328571Y-98112380D01*
X88519047Y-98112380D01*
X88614285Y-98064761D01*
X88661904Y-98017142D01*
X88709523Y-97921904D01*
X88709523Y-97112380D01*
X89709523Y-98112380D02*
X89138095Y-98112380D01*
X89423809Y-98112380D02*
X89423809Y-97112380D01*
X89328571Y-97255238D01*
X89233333Y-97350476D01*
X89138095Y-97398095D01*
D14*
X90299136Y-98467708D02*
X90299136Y-99182101D01*
X90251510Y-99324980D01*
X90156258Y-99420232D01*
X90013379Y-99467858D01*
X89918127Y-99467858D01*
X91299286Y-99467858D02*
X90727772Y-99467858D01*
X91013529Y-99467858D02*
X91013529Y-98467708D01*
X90918277Y-98610587D01*
X90823024Y-98705839D01*
X90727772Y-98753465D01*
D11*
X101083333Y-166877380D02*
X100750000Y-166401190D01*
X100511904Y-166877380D02*
X100511904Y-165877380D01*
X100892857Y-165877380D01*
X100988095Y-165925000D01*
X101035714Y-165972619D01*
X101083333Y-166067857D01*
X101083333Y-166210714D01*
X101035714Y-166305952D01*
X100988095Y-166353571D01*
X100892857Y-166401190D01*
X100511904Y-166401190D01*
X101559523Y-166877380D02*
X101750000Y-166877380D01*
X101845238Y-166829761D01*
X101892857Y-166782142D01*
X101988095Y-166639285D01*
X102035714Y-166448809D01*
X102035714Y-166067857D01*
X101988095Y-165972619D01*
X101940476Y-165925000D01*
X101845238Y-165877380D01*
X101654761Y-165877380D01*
X101559523Y-165925000D01*
X101511904Y-165972619D01*
X101464285Y-166067857D01*
X101464285Y-166305952D01*
X101511904Y-166401190D01*
X101559523Y-166448809D01*
X101654761Y-166496428D01*
X101845238Y-166496428D01*
X101940476Y-166448809D01*
X101988095Y-166401190D01*
X102035714Y-166305952D01*
X99657142Y-166407857D02*
X99657142Y-166922142D01*
X99657142Y-166665000D02*
X98757142Y-166665000D01*
X98885714Y-166750714D01*
X98971428Y-166836428D01*
X99014285Y-166922142D01*
X99657142Y-166022142D02*
X98757142Y-166022142D01*
X99657142Y-165507857D02*
X99142857Y-165893571D01*
X98757142Y-165507857D02*
X99271428Y-166022142D01*
X99586904Y-175927380D02*
X99586904Y-174927380D01*
X99825000Y-174927380D01*
X99967857Y-174975000D01*
X100063095Y-175070238D01*
X100110714Y-175165476D01*
X100158333Y-175355952D01*
X100158333Y-175498809D01*
X100110714Y-175689285D01*
X100063095Y-175784523D01*
X99967857Y-175879761D01*
X99825000Y-175927380D01*
X99586904Y-175927380D01*
X100491666Y-174927380D02*
X101110714Y-174927380D01*
X100777380Y-175308333D01*
X100920238Y-175308333D01*
X101015476Y-175355952D01*
X101063095Y-175403571D01*
X101110714Y-175498809D01*
X101110714Y-175736904D01*
X101063095Y-175832142D01*
X101015476Y-175879761D01*
X100920238Y-175927380D01*
X100634523Y-175927380D01*
X100539285Y-175879761D01*
X100491666Y-175832142D01*
X69683333Y-129897142D02*
X69635714Y-129944761D01*
X69492857Y-129992380D01*
X69397619Y-129992380D01*
X69254761Y-129944761D01*
X69159523Y-129849523D01*
X69111904Y-129754285D01*
X69064285Y-129563809D01*
X69064285Y-129420952D01*
X69111904Y-129230476D01*
X69159523Y-129135238D01*
X69254761Y-129040000D01*
X69397619Y-128992380D01*
X69492857Y-128992380D01*
X69635714Y-129040000D01*
X69683333Y-129087619D01*
X70635714Y-129992380D02*
X70064285Y-129992380D01*
X70350000Y-129992380D02*
X70350000Y-128992380D01*
X70254761Y-129135238D01*
X70159523Y-129230476D01*
X70064285Y-129278095D01*
X69683333Y-145137142D02*
X69635714Y-145184761D01*
X69492857Y-145232380D01*
X69397619Y-145232380D01*
X69254761Y-145184761D01*
X69159523Y-145089523D01*
X69111904Y-144994285D01*
X69064285Y-144803809D01*
X69064285Y-144660952D01*
X69111904Y-144470476D01*
X69159523Y-144375238D01*
X69254761Y-144280000D01*
X69397619Y-144232380D01*
X69492857Y-144232380D01*
X69635714Y-144280000D01*
X69683333Y-144327619D01*
X70064285Y-144327619D02*
X70111904Y-144280000D01*
X70207142Y-144232380D01*
X70445238Y-144232380D01*
X70540476Y-144280000D01*
X70588095Y-144327619D01*
X70635714Y-144422857D01*
X70635714Y-144518095D01*
X70588095Y-144660952D01*
X70016666Y-145232380D01*
X70635714Y-145232380D01*
X98333333Y-98707142D02*
X98285714Y-98754761D01*
X98142857Y-98802380D01*
X98047619Y-98802380D01*
X97904761Y-98754761D01*
X97809523Y-98659523D01*
X97761904Y-98564285D01*
X97714285Y-98373809D01*
X97714285Y-98230952D01*
X97761904Y-98040476D01*
X97809523Y-97945238D01*
X97904761Y-97850000D01*
X98047619Y-97802380D01*
X98142857Y-97802380D01*
X98285714Y-97850000D01*
X98333333Y-97897619D01*
X98666666Y-97802380D02*
X99285714Y-97802380D01*
X98952380Y-98183333D01*
X99095238Y-98183333D01*
X99190476Y-98230952D01*
X99238095Y-98278571D01*
X99285714Y-98373809D01*
X99285714Y-98611904D01*
X99238095Y-98707142D01*
X99190476Y-98754761D01*
X99095238Y-98802380D01*
X98809523Y-98802380D01*
X98714285Y-98754761D01*
X98666666Y-98707142D01*
X100123333Y-127357142D02*
X100075714Y-127404761D01*
X99932857Y-127452380D01*
X99837619Y-127452380D01*
X99694761Y-127404761D01*
X99599523Y-127309523D01*
X99551904Y-127214285D01*
X99504285Y-127023809D01*
X99504285Y-126880952D01*
X99551904Y-126690476D01*
X99599523Y-126595238D01*
X99694761Y-126500000D01*
X99837619Y-126452380D01*
X99932857Y-126452380D01*
X100075714Y-126500000D01*
X100123333Y-126547619D01*
X100980476Y-126785714D02*
X100980476Y-127452380D01*
X100742380Y-126404761D02*
X100504285Y-127119047D01*
X101123333Y-127119047D01*
X68413333Y-126087142D02*
X68365714Y-126134761D01*
X68222857Y-126182380D01*
X68127619Y-126182380D01*
X67984761Y-126134761D01*
X67889523Y-126039523D01*
X67841904Y-125944285D01*
X67794285Y-125753809D01*
X67794285Y-125610952D01*
X67841904Y-125420476D01*
X67889523Y-125325238D01*
X67984761Y-125230000D01*
X68127619Y-125182380D01*
X68222857Y-125182380D01*
X68365714Y-125230000D01*
X68413333Y-125277619D01*
X69318095Y-125182380D02*
X68841904Y-125182380D01*
X68794285Y-125658571D01*
X68841904Y-125610952D01*
X68937142Y-125563333D01*
X69175238Y-125563333D01*
X69270476Y-125610952D01*
X69318095Y-125658571D01*
X69365714Y-125753809D01*
X69365714Y-125991904D01*
X69318095Y-126087142D01*
X69270476Y-126134761D01*
X69175238Y-126182380D01*
X68937142Y-126182380D01*
X68841904Y-126134761D01*
X68794285Y-126087142D01*
X98726666Y-94528571D02*
X98393333Y-94528571D01*
X98393333Y-95052380D02*
X98393333Y-94052380D01*
X98869523Y-94052380D01*
X99774285Y-95052380D02*
X99202857Y-95052380D01*
X99488571Y-95052380D02*
X99488571Y-94052380D01*
X99393333Y-94195238D01*
X99298095Y-94290476D01*
X99202857Y-94338095D01*
X87841666Y-164787380D02*
X87841666Y-165501666D01*
X87794047Y-165644523D01*
X87698809Y-165739761D01*
X87555952Y-165787380D01*
X87460714Y-165787380D01*
X88270238Y-164882619D02*
X88317857Y-164835000D01*
X88413095Y-164787380D01*
X88651190Y-164787380D01*
X88746428Y-164835000D01*
X88794047Y-164882619D01*
X88841666Y-164977857D01*
X88841666Y-165073095D01*
X88794047Y-165215952D01*
X88222619Y-165787380D01*
X88841666Y-165787380D01*
X97502380Y-173639285D02*
X96502380Y-173639285D01*
X97454761Y-173210714D02*
X97502380Y-173067857D01*
X97502380Y-172829761D01*
X97454761Y-172734523D01*
X97407142Y-172686904D01*
X97311904Y-172639285D01*
X97216666Y-172639285D01*
X97121428Y-172686904D01*
X97073809Y-172734523D01*
X97026190Y-172829761D01*
X96978571Y-173020238D01*
X96930952Y-173115476D01*
X96883333Y-173163095D01*
X96788095Y-173210714D01*
X96692857Y-173210714D01*
X96597619Y-173163095D01*
X96550000Y-173115476D01*
X96502380Y-173020238D01*
X96502380Y-172782142D01*
X96550000Y-172639285D01*
X97502380Y-172210714D02*
X96502380Y-172210714D01*
X96502380Y-171829761D01*
X96550000Y-171734523D01*
X96597619Y-171686904D01*
X96692857Y-171639285D01*
X96835714Y-171639285D01*
X96930952Y-171686904D01*
X96978571Y-171734523D01*
X97026190Y-171829761D01*
X97026190Y-172210714D01*
X96502380Y-170782142D02*
X96502380Y-170972619D01*
X96550000Y-171067857D01*
X96597619Y-171115476D01*
X96740476Y-171210714D01*
X96930952Y-171258333D01*
X97311904Y-171258333D01*
X97407142Y-171210714D01*
X97454761Y-171163095D01*
X97502380Y-171067857D01*
X97502380Y-170877380D01*
X97454761Y-170782142D01*
X97407142Y-170734523D01*
X97311904Y-170686904D01*
X97073809Y-170686904D01*
X96978571Y-170734523D01*
X96930952Y-170782142D01*
X96883333Y-170877380D01*
X96883333Y-171067857D01*
X96930952Y-171163095D01*
X96978571Y-171210714D01*
X97073809Y-171258333D01*
X97502380Y-170258333D02*
X96502380Y-170258333D01*
X96502380Y-169877380D01*
X96550000Y-169782142D01*
X96597619Y-169734523D01*
X96692857Y-169686904D01*
X96835714Y-169686904D01*
X96930952Y-169734523D01*
X96978571Y-169782142D01*
X97026190Y-169877380D01*
X97026190Y-170258333D01*
X97502380Y-169258333D02*
X96502380Y-169258333D01*
X97502380Y-168782142D02*
X96502380Y-168782142D01*
X97502380Y-168210714D01*
X96502380Y-168210714D01*
X87836666Y-151457380D02*
X87836666Y-152171666D01*
X87789047Y-152314523D01*
X87693809Y-152409761D01*
X87550952Y-152457380D01*
X87455714Y-152457380D01*
X88217619Y-151457380D02*
X88836666Y-151457380D01*
X88503333Y-151838333D01*
X88646190Y-151838333D01*
X88741428Y-151885952D01*
X88789047Y-151933571D01*
X88836666Y-152028809D01*
X88836666Y-152266904D01*
X88789047Y-152362142D01*
X88741428Y-152409761D01*
X88646190Y-152457380D01*
X88360476Y-152457380D01*
X88265238Y-152409761D01*
X88217619Y-152362142D01*
X100527380Y-160840476D02*
X99527380Y-160840476D01*
X100479761Y-160411904D02*
X100527380Y-160269047D01*
X100527380Y-160030952D01*
X100479761Y-159935714D01*
X100432142Y-159888095D01*
X100336904Y-159840476D01*
X100241666Y-159840476D01*
X100146428Y-159888095D01*
X100098809Y-159935714D01*
X100051190Y-160030952D01*
X100003571Y-160221428D01*
X99955952Y-160316666D01*
X99908333Y-160364285D01*
X99813095Y-160411904D01*
X99717857Y-160411904D01*
X99622619Y-160364285D01*
X99575000Y-160316666D01*
X99527380Y-160221428D01*
X99527380Y-159983333D01*
X99575000Y-159840476D01*
X100527380Y-159411904D02*
X99527380Y-159411904D01*
X99527380Y-159030952D01*
X99575000Y-158935714D01*
X99622619Y-158888095D01*
X99717857Y-158840476D01*
X99860714Y-158840476D01*
X99955952Y-158888095D01*
X100003571Y-158935714D01*
X100051190Y-159030952D01*
X100051190Y-159411904D01*
X100527380Y-157888095D02*
X100527380Y-158459523D01*
X100527380Y-158173809D02*
X99527380Y-158173809D01*
X99670238Y-158269047D01*
X99765476Y-158364285D01*
X99813095Y-158459523D01*
X99527380Y-157269047D02*
X99527380Y-157173809D01*
X99575000Y-157078571D01*
X99622619Y-157030952D01*
X99717857Y-156983333D01*
X99908333Y-156935714D01*
X100146428Y-156935714D01*
X100336904Y-156983333D01*
X100432142Y-157030952D01*
X100479761Y-157078571D01*
X100527380Y-157173809D01*
X100527380Y-157269047D01*
X100479761Y-157364285D01*
X100432142Y-157411904D01*
X100336904Y-157459523D01*
X100146428Y-157507142D01*
X99908333Y-157507142D01*
X99717857Y-157459523D01*
X99622619Y-157411904D01*
X99575000Y-157364285D01*
X99527380Y-157269047D01*
X100527380Y-156507142D02*
X99527380Y-156507142D01*
X99527380Y-156126190D01*
X99575000Y-156030952D01*
X99622619Y-155983333D01*
X99717857Y-155935714D01*
X99860714Y-155935714D01*
X99955952Y-155983333D01*
X100003571Y-156030952D01*
X100051190Y-156126190D01*
X100051190Y-156507142D01*
X100527380Y-155507142D02*
X99527380Y-155507142D01*
X100527380Y-155030952D02*
X99527380Y-155030952D01*
X100527380Y-154459523D01*
X99527380Y-154459523D01*
X107023809Y-101952380D02*
X107023809Y-100952380D01*
X107452380Y-101047619D02*
X107500000Y-101000000D01*
X107595238Y-100952380D01*
X107833333Y-100952380D01*
X107928571Y-101000000D01*
X107976190Y-101047619D01*
X108023809Y-101142857D01*
X108023809Y-101238095D01*
X107976190Y-101380952D01*
X107404761Y-101952380D01*
X108023809Y-101952380D01*
X109023809Y-101857142D02*
X108976190Y-101904761D01*
X108833333Y-101952380D01*
X108738095Y-101952380D01*
X108595238Y-101904761D01*
X108500000Y-101809523D01*
X108452380Y-101714285D01*
X108404761Y-101523809D01*
X108404761Y-101380952D01*
X108452380Y-101190476D01*
X108500000Y-101095238D01*
X108595238Y-101000000D01*
X108738095Y-100952380D01*
X108833333Y-100952380D01*
X108976190Y-101000000D01*
X109023809Y-101047619D01*
X103806666Y-149082380D02*
X103806666Y-149796666D01*
X103759047Y-149939523D01*
X103663809Y-150034761D01*
X103520952Y-150082380D01*
X103425714Y-150082380D01*
X104187619Y-149082380D02*
X104854285Y-149082380D01*
X104425714Y-150082380D01*
X68413333Y-117292380D02*
X68080000Y-116816190D01*
X67841904Y-117292380D02*
X67841904Y-116292380D01*
X68222857Y-116292380D01*
X68318095Y-116340000D01*
X68365714Y-116387619D01*
X68413333Y-116482857D01*
X68413333Y-116625714D01*
X68365714Y-116720952D01*
X68318095Y-116768571D01*
X68222857Y-116816190D01*
X67841904Y-116816190D01*
X69365714Y-117292380D02*
X68794285Y-117292380D01*
X69080000Y-117292380D02*
X69080000Y-116292380D01*
X68984761Y-116435238D01*
X68889523Y-116530476D01*
X68794285Y-116578095D01*
X73038571Y-117247142D02*
X72524285Y-117247142D01*
X72781428Y-117247142D02*
X72781428Y-116347142D01*
X72695714Y-116475714D01*
X72610000Y-116561428D01*
X72524285Y-116604285D01*
X73595714Y-116347142D02*
X73681428Y-116347142D01*
X73767142Y-116390000D01*
X73810000Y-116432857D01*
X73852857Y-116518571D01*
X73895714Y-116690000D01*
X73895714Y-116904285D01*
X73852857Y-117075714D01*
X73810000Y-117161428D01*
X73767142Y-117204285D01*
X73681428Y-117247142D01*
X73595714Y-117247142D01*
X73510000Y-117204285D01*
X73467142Y-117161428D01*
X73424285Y-117075714D01*
X73381428Y-116904285D01*
X73381428Y-116690000D01*
X73424285Y-116518571D01*
X73467142Y-116432857D01*
X73510000Y-116390000D01*
X73595714Y-116347142D01*
X74281428Y-117247142D02*
X74281428Y-116347142D01*
X74795714Y-117247142D02*
X74410000Y-116732857D01*
X74795714Y-116347142D02*
X74281428Y-116861428D01*
X68413333Y-99512380D02*
X68080000Y-99036190D01*
X67841904Y-99512380D02*
X67841904Y-98512380D01*
X68222857Y-98512380D01*
X68318095Y-98560000D01*
X68365714Y-98607619D01*
X68413333Y-98702857D01*
X68413333Y-98845714D01*
X68365714Y-98940952D01*
X68318095Y-98988571D01*
X68222857Y-99036190D01*
X67841904Y-99036190D01*
X68794285Y-98607619D02*
X68841904Y-98560000D01*
X68937142Y-98512380D01*
X69175238Y-98512380D01*
X69270476Y-98560000D01*
X69318095Y-98607619D01*
X69365714Y-98702857D01*
X69365714Y-98798095D01*
X69318095Y-98940952D01*
X68746666Y-99512380D01*
X69365714Y-99512380D01*
X72867142Y-98567142D02*
X72438571Y-98567142D01*
X72395714Y-98995714D01*
X72438571Y-98952857D01*
X72524285Y-98910000D01*
X72738571Y-98910000D01*
X72824285Y-98952857D01*
X72867142Y-98995714D01*
X72910000Y-99081428D01*
X72910000Y-99295714D01*
X72867142Y-99381428D01*
X72824285Y-99424285D01*
X72738571Y-99467142D01*
X72524285Y-99467142D01*
X72438571Y-99424285D01*
X72395714Y-99381428D01*
X73295714Y-99381428D02*
X73338571Y-99424285D01*
X73295714Y-99467142D01*
X73252857Y-99424285D01*
X73295714Y-99381428D01*
X73295714Y-99467142D01*
X74195714Y-99467142D02*
X73681428Y-99467142D01*
X73938571Y-99467142D02*
X73938571Y-98567142D01*
X73852857Y-98695714D01*
X73767142Y-98781428D01*
X73681428Y-98824285D01*
X74581428Y-99467142D02*
X74581428Y-98567142D01*
X74667142Y-99124285D02*
X74924285Y-99467142D01*
X74924285Y-98867142D02*
X74581428Y-99210000D01*
X68413333Y-102052380D02*
X68080000Y-101576190D01*
X67841904Y-102052380D02*
X67841904Y-101052380D01*
X68222857Y-101052380D01*
X68318095Y-101100000D01*
X68365714Y-101147619D01*
X68413333Y-101242857D01*
X68413333Y-101385714D01*
X68365714Y-101480952D01*
X68318095Y-101528571D01*
X68222857Y-101576190D01*
X67841904Y-101576190D01*
X68746666Y-101052380D02*
X69365714Y-101052380D01*
X69032380Y-101433333D01*
X69175238Y-101433333D01*
X69270476Y-101480952D01*
X69318095Y-101528571D01*
X69365714Y-101623809D01*
X69365714Y-101861904D01*
X69318095Y-101957142D01*
X69270476Y-102004761D01*
X69175238Y-102052380D01*
X68889523Y-102052380D01*
X68794285Y-102004761D01*
X68746666Y-101957142D01*
X72867142Y-101107142D02*
X72438571Y-101107142D01*
X72395714Y-101535714D01*
X72438571Y-101492857D01*
X72524285Y-101450000D01*
X72738571Y-101450000D01*
X72824285Y-101492857D01*
X72867142Y-101535714D01*
X72910000Y-101621428D01*
X72910000Y-101835714D01*
X72867142Y-101921428D01*
X72824285Y-101964285D01*
X72738571Y-102007142D01*
X72524285Y-102007142D01*
X72438571Y-101964285D01*
X72395714Y-101921428D01*
X73295714Y-101921428D02*
X73338571Y-101964285D01*
X73295714Y-102007142D01*
X73252857Y-101964285D01*
X73295714Y-101921428D01*
X73295714Y-102007142D01*
X74195714Y-102007142D02*
X73681428Y-102007142D01*
X73938571Y-102007142D02*
X73938571Y-101107142D01*
X73852857Y-101235714D01*
X73767142Y-101321428D01*
X73681428Y-101364285D01*
X74581428Y-102007142D02*
X74581428Y-101107142D01*
X74667142Y-101664285D02*
X74924285Y-102007142D01*
X74924285Y-101407142D02*
X74581428Y-101750000D01*
X68413333Y-109672380D02*
X68080000Y-109196190D01*
X67841904Y-109672380D02*
X67841904Y-108672380D01*
X68222857Y-108672380D01*
X68318095Y-108720000D01*
X68365714Y-108767619D01*
X68413333Y-108862857D01*
X68413333Y-109005714D01*
X68365714Y-109100952D01*
X68318095Y-109148571D01*
X68222857Y-109196190D01*
X67841904Y-109196190D01*
X69270476Y-109005714D02*
X69270476Y-109672380D01*
X69032380Y-108624761D02*
X68794285Y-109339047D01*
X69413333Y-109339047D01*
X72910000Y-109627142D02*
X72395714Y-109627142D01*
X72652857Y-109627142D02*
X72652857Y-108727142D01*
X72567142Y-108855714D01*
X72481428Y-108941428D01*
X72395714Y-108984285D01*
X73295714Y-109541428D02*
X73338571Y-109584285D01*
X73295714Y-109627142D01*
X73252857Y-109584285D01*
X73295714Y-109541428D01*
X73295714Y-109627142D01*
X74152857Y-108727142D02*
X73724285Y-108727142D01*
X73681428Y-109155714D01*
X73724285Y-109112857D01*
X73810000Y-109070000D01*
X74024285Y-109070000D01*
X74110000Y-109112857D01*
X74152857Y-109155714D01*
X74195714Y-109241428D01*
X74195714Y-109455714D01*
X74152857Y-109541428D01*
X74110000Y-109584285D01*
X74024285Y-109627142D01*
X73810000Y-109627142D01*
X73724285Y-109584285D01*
X73681428Y-109541428D01*
X74581428Y-109627142D02*
X74581428Y-108727142D01*
X74667142Y-109284285D02*
X74924285Y-109627142D01*
X74924285Y-109027142D02*
X74581428Y-109370000D01*
X68413333Y-112212380D02*
X68080000Y-111736190D01*
X67841904Y-112212380D02*
X67841904Y-111212380D01*
X68222857Y-111212380D01*
X68318095Y-111260000D01*
X68365714Y-111307619D01*
X68413333Y-111402857D01*
X68413333Y-111545714D01*
X68365714Y-111640952D01*
X68318095Y-111688571D01*
X68222857Y-111736190D01*
X67841904Y-111736190D01*
X69318095Y-111212380D02*
X68841904Y-111212380D01*
X68794285Y-111688571D01*
X68841904Y-111640952D01*
X68937142Y-111593333D01*
X69175238Y-111593333D01*
X69270476Y-111640952D01*
X69318095Y-111688571D01*
X69365714Y-111783809D01*
X69365714Y-112021904D01*
X69318095Y-112117142D01*
X69270476Y-112164761D01*
X69175238Y-112212380D01*
X68937142Y-112212380D01*
X68841904Y-112164761D01*
X68794285Y-112117142D01*
X72481428Y-111267142D02*
X73081428Y-111267142D01*
X72695714Y-112167142D01*
X73852857Y-111267142D02*
X73424285Y-111267142D01*
X73381428Y-111695714D01*
X73424285Y-111652857D01*
X73510000Y-111610000D01*
X73724285Y-111610000D01*
X73810000Y-111652857D01*
X73852857Y-111695714D01*
X73895714Y-111781428D01*
X73895714Y-111995714D01*
X73852857Y-112081428D01*
X73810000Y-112124285D01*
X73724285Y-112167142D01*
X73510000Y-112167142D01*
X73424285Y-112124285D01*
X73381428Y-112081428D01*
X74795714Y-112167142D02*
X74495714Y-111738571D01*
X74281428Y-112167142D02*
X74281428Y-111267142D01*
X74624285Y-111267142D01*
X74710000Y-111310000D01*
X74752857Y-111352857D01*
X74795714Y-111438571D01*
X74795714Y-111567142D01*
X74752857Y-111652857D01*
X74710000Y-111695714D01*
X74624285Y-111738571D01*
X74281428Y-111738571D01*
X68413333Y-114752380D02*
X68080000Y-114276190D01*
X67841904Y-114752380D02*
X67841904Y-113752380D01*
X68222857Y-113752380D01*
X68318095Y-113800000D01*
X68365714Y-113847619D01*
X68413333Y-113942857D01*
X68413333Y-114085714D01*
X68365714Y-114180952D01*
X68318095Y-114228571D01*
X68222857Y-114276190D01*
X67841904Y-114276190D01*
X69270476Y-113752380D02*
X69080000Y-113752380D01*
X68984761Y-113800000D01*
X68937142Y-113847619D01*
X68841904Y-113990476D01*
X68794285Y-114180952D01*
X68794285Y-114561904D01*
X68841904Y-114657142D01*
X68889523Y-114704761D01*
X68984761Y-114752380D01*
X69175238Y-114752380D01*
X69270476Y-114704761D01*
X69318095Y-114657142D01*
X69365714Y-114561904D01*
X69365714Y-114323809D01*
X69318095Y-114228571D01*
X69270476Y-114180952D01*
X69175238Y-114133333D01*
X68984761Y-114133333D01*
X68889523Y-114180952D01*
X68841904Y-114228571D01*
X68794285Y-114323809D01*
X72481428Y-113807142D02*
X73081428Y-113807142D01*
X72695714Y-114707142D01*
X73852857Y-113807142D02*
X73424285Y-113807142D01*
X73381428Y-114235714D01*
X73424285Y-114192857D01*
X73510000Y-114150000D01*
X73724285Y-114150000D01*
X73810000Y-114192857D01*
X73852857Y-114235714D01*
X73895714Y-114321428D01*
X73895714Y-114535714D01*
X73852857Y-114621428D01*
X73810000Y-114664285D01*
X73724285Y-114707142D01*
X73510000Y-114707142D01*
X73424285Y-114664285D01*
X73381428Y-114621428D01*
X74795714Y-114707142D02*
X74495714Y-114278571D01*
X74281428Y-114707142D02*
X74281428Y-113807142D01*
X74624285Y-113807142D01*
X74710000Y-113850000D01*
X74752857Y-113892857D01*
X74795714Y-113978571D01*
X74795714Y-114107142D01*
X74752857Y-114192857D01*
X74710000Y-114235714D01*
X74624285Y-114278571D01*
X74281428Y-114278571D01*
X97623333Y-105862380D02*
X97290000Y-105386190D01*
X97051904Y-105862380D02*
X97051904Y-104862380D01*
X97432857Y-104862380D01*
X97528095Y-104910000D01*
X97575714Y-104957619D01*
X97623333Y-105052857D01*
X97623333Y-105195714D01*
X97575714Y-105290952D01*
X97528095Y-105338571D01*
X97432857Y-105386190D01*
X97051904Y-105386190D01*
X97956666Y-104862380D02*
X98623333Y-104862380D01*
X98194761Y-105862380D01*
X97597142Y-111411428D02*
X98197142Y-111411428D01*
X97254285Y-111625714D02*
X97897142Y-111840000D01*
X97897142Y-111282857D01*
X98111428Y-110940000D02*
X98154285Y-110897142D01*
X98197142Y-110940000D01*
X98154285Y-110982857D01*
X98111428Y-110940000D01*
X98197142Y-110940000D01*
X97297142Y-110597142D02*
X97297142Y-109997142D01*
X98197142Y-110382857D01*
X98197142Y-109654285D02*
X97297142Y-109654285D01*
X98197142Y-109140000D02*
X97682857Y-109525714D01*
X97297142Y-109140000D02*
X97811428Y-109654285D01*
X100163333Y-105862380D02*
X99830000Y-105386190D01*
X99591904Y-105862380D02*
X99591904Y-104862380D01*
X99972857Y-104862380D01*
X100068095Y-104910000D01*
X100115714Y-104957619D01*
X100163333Y-105052857D01*
X100163333Y-105195714D01*
X100115714Y-105290952D01*
X100068095Y-105338571D01*
X99972857Y-105386190D01*
X99591904Y-105386190D01*
X100734761Y-105290952D02*
X100639523Y-105243333D01*
X100591904Y-105195714D01*
X100544285Y-105100476D01*
X100544285Y-105052857D01*
X100591904Y-104957619D01*
X100639523Y-104910000D01*
X100734761Y-104862380D01*
X100925238Y-104862380D01*
X101020476Y-104910000D01*
X101068095Y-104957619D01*
X101115714Y-105052857D01*
X101115714Y-105100476D01*
X101068095Y-105195714D01*
X101020476Y-105243333D01*
X100925238Y-105290952D01*
X100734761Y-105290952D01*
X100639523Y-105338571D01*
X100591904Y-105386190D01*
X100544285Y-105481428D01*
X100544285Y-105671904D01*
X100591904Y-105767142D01*
X100639523Y-105814761D01*
X100734761Y-105862380D01*
X100925238Y-105862380D01*
X101020476Y-105814761D01*
X101068095Y-105767142D01*
X101115714Y-105671904D01*
X101115714Y-105481428D01*
X101068095Y-105386190D01*
X101020476Y-105338571D01*
X100925238Y-105290952D01*
X100137142Y-111411428D02*
X100737142Y-111411428D01*
X99794285Y-111625714D02*
X100437142Y-111840000D01*
X100437142Y-111282857D01*
X100651428Y-110940000D02*
X100694285Y-110897142D01*
X100737142Y-110940000D01*
X100694285Y-110982857D01*
X100651428Y-110940000D01*
X100737142Y-110940000D01*
X99837142Y-110597142D02*
X99837142Y-109997142D01*
X100737142Y-110382857D01*
X100737142Y-109654285D02*
X99837142Y-109654285D01*
X100737142Y-109140000D02*
X100222857Y-109525714D01*
X99837142Y-109140000D02*
X100351428Y-109654285D01*
X69373809Y-137136190D02*
X69373809Y-137612380D01*
X69040476Y-136612380D02*
X69373809Y-137136190D01*
X69707142Y-136612380D01*
X70564285Y-137612380D02*
X69992857Y-137612380D01*
X70278571Y-137612380D02*
X70278571Y-136612380D01*
X70183333Y-136755238D01*
X70088095Y-136850476D01*
X69992857Y-136898095D01*
M02*
