M48
METRIC,TZ
T1C0.400
T2C0.600
T3C0.700
T4C0.800
T5C0.900
T6C1.000
T7C1.300
T8C3.200
%
G90
G05
T1
X85625Y-164400
X88250Y-146250
X94450Y-153225
X98000Y-158100
X85925Y-95175
X85925Y-96525
X86775Y-95175
X86775Y-96525
X87625Y-95175
X87625Y-96525
X88475Y-95175
X88475Y-96525
X89325Y-95175
X89325Y-96525
X90175Y-95175
X90175Y-96525
X91025Y-95175
X91025Y-96525
X91875Y-95175
X91875Y-96525
T2
X84575Y-92165
X84575Y-95545
X93225Y-92165
X93225Y-95545
X97750Y-101600
X99250Y-101600
T3
X71120Y-104140
X76200Y-104140
X71120Y-106680
X76200Y-106680
X99250Y-163675
X99250Y-168755
X71120Y-116840
X76200Y-116840
X71120Y-99060
X76200Y-99060
X71120Y-101600
X76200Y-101600
X71120Y-109220
X76200Y-109220
X71120Y-111760
X76200Y-111760
X71120Y-114300
X76200Y-114300
X97790Y-107950
X97790Y-113030
X100330Y-107950
X100330Y-113030
X96520Y-96520
X101600Y-96520
T4
X72430Y-144780
X74930Y-144780
X72390Y-129540
X74890Y-129540
X71200Y-125730
X76200Y-125730
X97750Y-124540
X97750Y-129540
X73660Y-134620
X73660Y-139500
T5
X99125Y-172275
X101665Y-172275
T6
X104140Y-104140
X104140Y-106680
X104140Y-109220
X104140Y-111760
X104140Y-152400
X104140Y-154940
X104140Y-157480
X104140Y-160020
X104140Y-162560
X104140Y-165100
X104140Y-116840
X104140Y-119380
X104140Y-121920
X104140Y-124460
X104140Y-127000
X104140Y-129540
X83820Y-109220
X83820Y-111760
X83820Y-114300
X83820Y-116840
X83820Y-119380
X83820Y-121920
X83820Y-124460
X83820Y-127000
X83820Y-129540
X83820Y-132080
X83820Y-134620
X83820Y-137160
X83820Y-139700
X83820Y-142240
X91440Y-109220
X91440Y-111760
X91440Y-114300
X91440Y-116840
X91440Y-119380
X91440Y-121920
X91440Y-124460
X91440Y-127000
X91440Y-129540
X91440Y-132080
X91440Y-134620
X91440Y-137160
X91440Y-139700
X91440Y-142240
X104140Y-134620
X104140Y-137160
X104140Y-139700
X104140Y-142240
X104140Y-144780
X104140Y-147320
X83190Y-156225
X83190Y-158765
X85730Y-156225
X85730Y-158765
X88270Y-156225
X88270Y-158765
X90810Y-156225
X90810Y-158765
X93350Y-156225
X93350Y-158765
X85735Y-169525
X85735Y-172065
X88275Y-169525
X88275Y-172065
X90815Y-169525
X90815Y-172065
T7
X70410Y-120650
X76910Y-120650
X70410Y-149860
X76910Y-149860
T8
X106680Y-93980
X106680Y-172050
X72390Y-93980
X72390Y-172050
T0
M30
