G04 #@! TF.GenerationSoftware,KiCad,Pcbnew,(5.1.7-0-10_14)*
G04 #@! TF.CreationDate,2020-11-10T17:03:04+01:00*
G04 #@! TF.ProjectId,328p-standalone,33323870-2d73-4746-916e-64616c6f6e65,rev?*
G04 #@! TF.SameCoordinates,Original*
G04 #@! TF.FileFunction,Legend,Bot*
G04 #@! TF.FilePolarity,Positive*
%FSLAX46Y46*%
G04 Gerber Fmt 4.6, Leading zero omitted, Abs format (unit mm)*
G04 Created by KiCad (PCBNEW (5.1.7-0-10_14)) date 2020-11-10 17:03:04*
%MOMM*%
%LPD*%
G01*
G04 APERTURE LIST*
%ADD10C,0.150000*%
%ADD11C,0.010000*%
G04 APERTURE END LIST*
D10*
X95534642Y-161102380D02*
X94915595Y-161102380D01*
X95248928Y-161483333D01*
X95106071Y-161483333D01*
X95010833Y-161530952D01*
X94963214Y-161578571D01*
X94915595Y-161673809D01*
X94915595Y-161911904D01*
X94963214Y-162007142D01*
X95010833Y-162054761D01*
X95106071Y-162102380D01*
X95391785Y-162102380D01*
X95487023Y-162054761D01*
X95534642Y-162007142D01*
X94534642Y-161197619D02*
X94487023Y-161150000D01*
X94391785Y-161102380D01*
X94153690Y-161102380D01*
X94058452Y-161150000D01*
X94010833Y-161197619D01*
X93963214Y-161292857D01*
X93963214Y-161388095D01*
X94010833Y-161530952D01*
X94582261Y-162102380D01*
X93963214Y-162102380D01*
X93391785Y-161530952D02*
X93487023Y-161483333D01*
X93534642Y-161435714D01*
X93582261Y-161340476D01*
X93582261Y-161292857D01*
X93534642Y-161197619D01*
X93487023Y-161150000D01*
X93391785Y-161102380D01*
X93201309Y-161102380D01*
X93106071Y-161150000D01*
X93058452Y-161197619D01*
X93010833Y-161292857D01*
X93010833Y-161340476D01*
X93058452Y-161435714D01*
X93106071Y-161483333D01*
X93201309Y-161530952D01*
X93391785Y-161530952D01*
X93487023Y-161578571D01*
X93534642Y-161626190D01*
X93582261Y-161721428D01*
X93582261Y-161911904D01*
X93534642Y-162007142D01*
X93487023Y-162054761D01*
X93391785Y-162102380D01*
X93201309Y-162102380D01*
X93106071Y-162054761D01*
X93058452Y-162007142D01*
X93010833Y-161911904D01*
X93010833Y-161721428D01*
X93058452Y-161626190D01*
X93106071Y-161578571D01*
X93201309Y-161530952D01*
X92582261Y-162102380D02*
X92582261Y-161102380D01*
X92201309Y-161102380D01*
X92106071Y-161150000D01*
X92058452Y-161197619D01*
X92010833Y-161292857D01*
X92010833Y-161435714D01*
X92058452Y-161530952D01*
X92106071Y-161578571D01*
X92201309Y-161626190D01*
X92582261Y-161626190D01*
X91582261Y-161721428D02*
X90820357Y-161721428D01*
X90391785Y-162054761D02*
X90248928Y-162102380D01*
X90010833Y-162102380D01*
X89915595Y-162054761D01*
X89867976Y-162007142D01*
X89820357Y-161911904D01*
X89820357Y-161816666D01*
X89867976Y-161721428D01*
X89915595Y-161673809D01*
X90010833Y-161626190D01*
X90201309Y-161578571D01*
X90296547Y-161530952D01*
X90344166Y-161483333D01*
X90391785Y-161388095D01*
X90391785Y-161292857D01*
X90344166Y-161197619D01*
X90296547Y-161150000D01*
X90201309Y-161102380D01*
X89963214Y-161102380D01*
X89820357Y-161150000D01*
X89534642Y-161435714D02*
X89153690Y-161435714D01*
X89391785Y-161102380D02*
X89391785Y-161959523D01*
X89344166Y-162054761D01*
X89248928Y-162102380D01*
X89153690Y-162102380D01*
X88391785Y-162102380D02*
X88391785Y-161578571D01*
X88439404Y-161483333D01*
X88534642Y-161435714D01*
X88725119Y-161435714D01*
X88820357Y-161483333D01*
X88391785Y-162054761D02*
X88487023Y-162102380D01*
X88725119Y-162102380D01*
X88820357Y-162054761D01*
X88867976Y-161959523D01*
X88867976Y-161864285D01*
X88820357Y-161769047D01*
X88725119Y-161721428D01*
X88487023Y-161721428D01*
X88391785Y-161673809D01*
X87915595Y-161435714D02*
X87915595Y-162102380D01*
X87915595Y-161530952D02*
X87867976Y-161483333D01*
X87772738Y-161435714D01*
X87629880Y-161435714D01*
X87534642Y-161483333D01*
X87487023Y-161578571D01*
X87487023Y-162102380D01*
X86582261Y-162102380D02*
X86582261Y-161102380D01*
X86582261Y-162054761D02*
X86677500Y-162102380D01*
X86867976Y-162102380D01*
X86963214Y-162054761D01*
X87010833Y-162007142D01*
X87058452Y-161911904D01*
X87058452Y-161626190D01*
X87010833Y-161530952D01*
X86963214Y-161483333D01*
X86867976Y-161435714D01*
X86677500Y-161435714D01*
X86582261Y-161483333D01*
X85677500Y-162102380D02*
X85677500Y-161578571D01*
X85725119Y-161483333D01*
X85820357Y-161435714D01*
X86010833Y-161435714D01*
X86106071Y-161483333D01*
X85677500Y-162054761D02*
X85772738Y-162102380D01*
X86010833Y-162102380D01*
X86106071Y-162054761D01*
X86153690Y-161959523D01*
X86153690Y-161864285D01*
X86106071Y-161769047D01*
X86010833Y-161721428D01*
X85772738Y-161721428D01*
X85677500Y-161673809D01*
X85058452Y-162102380D02*
X85153690Y-162054761D01*
X85201309Y-161959523D01*
X85201309Y-161102380D01*
X84534642Y-162102380D02*
X84629880Y-162054761D01*
X84677500Y-162007142D01*
X84725119Y-161911904D01*
X84725119Y-161626190D01*
X84677500Y-161530952D01*
X84629880Y-161483333D01*
X84534642Y-161435714D01*
X84391785Y-161435714D01*
X84296547Y-161483333D01*
X84248928Y-161530952D01*
X84201309Y-161626190D01*
X84201309Y-161911904D01*
X84248928Y-162007142D01*
X84296547Y-162054761D01*
X84391785Y-162102380D01*
X84534642Y-162102380D01*
X83772738Y-161435714D02*
X83772738Y-162102380D01*
X83772738Y-161530952D02*
X83725119Y-161483333D01*
X83629880Y-161435714D01*
X83487023Y-161435714D01*
X83391785Y-161483333D01*
X83344166Y-161578571D01*
X83344166Y-162102380D01*
X82487023Y-162054761D02*
X82582261Y-162102380D01*
X82772738Y-162102380D01*
X82867976Y-162054761D01*
X82915595Y-161959523D01*
X82915595Y-161578571D01*
X82867976Y-161483333D01*
X82772738Y-161435714D01*
X82582261Y-161435714D01*
X82487023Y-161483333D01*
X82439404Y-161578571D01*
X82439404Y-161673809D01*
X82915595Y-161769047D01*
X82010833Y-161721428D02*
X81248928Y-161721428D01*
X80915595Y-161102380D02*
X80344166Y-161102380D01*
X80629880Y-162102380D02*
X80629880Y-161102380D01*
X80010833Y-162102380D02*
X80010833Y-161102380D01*
X80010833Y-161578571D02*
X79439404Y-161578571D01*
X79439404Y-162102380D02*
X79439404Y-161102380D01*
X94867976Y-163752380D02*
X95201309Y-163276190D01*
X95439404Y-163752380D02*
X95439404Y-162752380D01*
X95058452Y-162752380D01*
X94963214Y-162800000D01*
X94915595Y-162847619D01*
X94867976Y-162942857D01*
X94867976Y-163085714D01*
X94915595Y-163180952D01*
X94963214Y-163228571D01*
X95058452Y-163276190D01*
X95439404Y-163276190D01*
X94439404Y-163228571D02*
X94106071Y-163228571D01*
X93963214Y-163752380D02*
X94439404Y-163752380D01*
X94439404Y-162752380D01*
X93963214Y-162752380D01*
X93677500Y-162752380D02*
X93344166Y-163752380D01*
X93010833Y-162752380D01*
X91391785Y-163752380D02*
X91963214Y-163752380D01*
X91677500Y-163752380D02*
X91677500Y-162752380D01*
X91772738Y-162895238D01*
X91867976Y-162990476D01*
X91963214Y-163038095D01*
X90963214Y-163657142D02*
X90915595Y-163704761D01*
X90963214Y-163752380D01*
X91010833Y-163704761D01*
X90963214Y-163657142D01*
X90963214Y-163752380D01*
X90296547Y-162752380D02*
X90201309Y-162752380D01*
X90106071Y-162800000D01*
X90058452Y-162847619D01*
X90010833Y-162942857D01*
X89963214Y-163133333D01*
X89963214Y-163371428D01*
X90010833Y-163561904D01*
X90058452Y-163657142D01*
X90106071Y-163704761D01*
X90201309Y-163752380D01*
X90296547Y-163752380D01*
X90391785Y-163704761D01*
X90439404Y-163657142D01*
X90487023Y-163561904D01*
X90534642Y-163371428D01*
X90534642Y-163133333D01*
X90487023Y-162942857D01*
X90439404Y-162847619D01*
X90391785Y-162800000D01*
X90296547Y-162752380D01*
X95439404Y-165402380D02*
X95439404Y-164402380D01*
X95439404Y-164783333D02*
X95344166Y-164735714D01*
X95153690Y-164735714D01*
X95058452Y-164783333D01*
X95010833Y-164830952D01*
X94963214Y-164926190D01*
X94963214Y-165211904D01*
X95010833Y-165307142D01*
X95058452Y-165354761D01*
X95153690Y-165402380D01*
X95344166Y-165402380D01*
X95439404Y-165354761D01*
X94629880Y-164735714D02*
X94391785Y-165402380D01*
X94153690Y-164735714D02*
X94391785Y-165402380D01*
X94487023Y-165640476D01*
X94534642Y-165688095D01*
X94629880Y-165735714D01*
X92677500Y-164878571D02*
X92534642Y-164926190D01*
X92487023Y-164973809D01*
X92439404Y-165069047D01*
X92439404Y-165211904D01*
X92487023Y-165307142D01*
X92534642Y-165354761D01*
X92629880Y-165402380D01*
X93010833Y-165402380D01*
X93010833Y-164402380D01*
X92677500Y-164402380D01*
X92582261Y-164450000D01*
X92534642Y-164497619D01*
X92487023Y-164592857D01*
X92487023Y-164688095D01*
X92534642Y-164783333D01*
X92582261Y-164830952D01*
X92677500Y-164878571D01*
X93010833Y-164878571D01*
X91629880Y-165354761D02*
X91725119Y-165402380D01*
X91915595Y-165402380D01*
X92010833Y-165354761D01*
X92058452Y-165259523D01*
X92058452Y-164878571D01*
X92010833Y-164783333D01*
X91915595Y-164735714D01*
X91725119Y-164735714D01*
X91629880Y-164783333D01*
X91582261Y-164878571D01*
X91582261Y-164973809D01*
X92058452Y-165069047D01*
X91153690Y-164735714D02*
X91153690Y-165402380D01*
X91153690Y-164830952D02*
X91106071Y-164783333D01*
X91010833Y-164735714D01*
X90867976Y-164735714D01*
X90772738Y-164783333D01*
X90725119Y-164878571D01*
X90725119Y-165402380D01*
X89677500Y-165402380D02*
X90010833Y-164926190D01*
X90248928Y-165402380D02*
X90248928Y-164402380D01*
X89867976Y-164402380D01*
X89772738Y-164450000D01*
X89725119Y-164497619D01*
X89677500Y-164592857D01*
X89677500Y-164735714D01*
X89725119Y-164830952D01*
X89772738Y-164878571D01*
X89867976Y-164926190D01*
X90248928Y-164926190D01*
X89106071Y-165402380D02*
X89201309Y-165354761D01*
X89248928Y-165307142D01*
X89296547Y-165211904D01*
X89296547Y-164926190D01*
X89248928Y-164830952D01*
X89201309Y-164783333D01*
X89106071Y-164735714D01*
X88963214Y-164735714D01*
X88867976Y-164783333D01*
X88820357Y-164830952D01*
X88772738Y-164926190D01*
X88772738Y-165211904D01*
X88820357Y-165307142D01*
X88867976Y-165354761D01*
X88963214Y-165402380D01*
X89106071Y-165402380D01*
X87963214Y-165354761D02*
X88058452Y-165402380D01*
X88248928Y-165402380D01*
X88344166Y-165354761D01*
X88391785Y-165259523D01*
X88391785Y-164878571D01*
X88344166Y-164783333D01*
X88248928Y-164735714D01*
X88058452Y-164735714D01*
X87963214Y-164783333D01*
X87915595Y-164878571D01*
X87915595Y-164973809D01*
X88391785Y-165069047D01*
D11*
G36*
X91246400Y-148064054D02*
G01*
X91235535Y-148177993D01*
X91203918Y-148285616D01*
X91153015Y-148384615D01*
X91084293Y-148472684D01*
X90999219Y-148547516D01*
X90902232Y-148605384D01*
X90795964Y-148645005D01*
X90688950Y-148663573D01*
X90583300Y-148662434D01*
X90481125Y-148642930D01*
X90384534Y-148606406D01*
X90295638Y-148554205D01*
X90216546Y-148487673D01*
X90149369Y-148408152D01*
X90096217Y-148316987D01*
X90059199Y-148215523D01*
X90040427Y-148105102D01*
X90038489Y-148055206D01*
X90038489Y-147967267D01*
X89986560Y-147967267D01*
X89950253Y-147970111D01*
X89923355Y-147981911D01*
X89896249Y-148005649D01*
X89857867Y-148044031D01*
X89857867Y-150235602D01*
X89857876Y-150497739D01*
X89857908Y-150738241D01*
X89857972Y-150958048D01*
X89858076Y-151158101D01*
X89858227Y-151339344D01*
X89858434Y-151502716D01*
X89858706Y-151649160D01*
X89859050Y-151779617D01*
X89859474Y-151895029D01*
X89859987Y-151996338D01*
X89860597Y-152084484D01*
X89861312Y-152160410D01*
X89862140Y-152225057D01*
X89863089Y-152279367D01*
X89864167Y-152324280D01*
X89865383Y-152360740D01*
X89866745Y-152389687D01*
X89868261Y-152412063D01*
X89869938Y-152428809D01*
X89871786Y-152440868D01*
X89873813Y-152449180D01*
X89876025Y-152454687D01*
X89877108Y-152456537D01*
X89881271Y-152463549D01*
X89884805Y-152469996D01*
X89888635Y-152475900D01*
X89893682Y-152481286D01*
X89900871Y-152486178D01*
X89911123Y-152490598D01*
X89925364Y-152494572D01*
X89944514Y-152498121D01*
X89969499Y-152501270D01*
X90001240Y-152504042D01*
X90040662Y-152506461D01*
X90088686Y-152508551D01*
X90146237Y-152510335D01*
X90214237Y-152511837D01*
X90293610Y-152513080D01*
X90385279Y-152514089D01*
X90490166Y-152514885D01*
X90609196Y-152515494D01*
X90743290Y-152515939D01*
X90893373Y-152516243D01*
X91060367Y-152516430D01*
X91245196Y-152516524D01*
X91448783Y-152516548D01*
X91672050Y-152516525D01*
X91915922Y-152516480D01*
X92181321Y-152516437D01*
X92219704Y-152516432D01*
X92486682Y-152516389D01*
X92732002Y-152516318D01*
X92956583Y-152516213D01*
X93161345Y-152516066D01*
X93347206Y-152515869D01*
X93515088Y-152515616D01*
X93665908Y-152515300D01*
X93800587Y-152514913D01*
X93920044Y-152514447D01*
X94025199Y-152513897D01*
X94116971Y-152513253D01*
X94196279Y-152512511D01*
X94264043Y-152511661D01*
X94321182Y-152510697D01*
X94368617Y-152509611D01*
X94407266Y-152508397D01*
X94438049Y-152507047D01*
X94461885Y-152505555D01*
X94479694Y-152503911D01*
X94492395Y-152502111D01*
X94500908Y-152500145D01*
X94505266Y-152498477D01*
X94513728Y-152494906D01*
X94521497Y-152492270D01*
X94528602Y-152489634D01*
X94535073Y-152486062D01*
X94540939Y-152480621D01*
X94546229Y-152472375D01*
X94550974Y-152460390D01*
X94555202Y-152443731D01*
X94558943Y-152421463D01*
X94562227Y-152392652D01*
X94565083Y-152356363D01*
X94567540Y-152311661D01*
X94569629Y-152257611D01*
X94571378Y-152193279D01*
X94572817Y-152117730D01*
X94573976Y-152030030D01*
X94574883Y-151929243D01*
X94575569Y-151814434D01*
X94576063Y-151684670D01*
X94576395Y-151539015D01*
X94576593Y-151376535D01*
X94576687Y-151196295D01*
X94576708Y-150997360D01*
X94576685Y-150778796D01*
X94576646Y-150539668D01*
X94576622Y-150279040D01*
X94576622Y-150236889D01*
X94576636Y-149973992D01*
X94576661Y-149732732D01*
X94576671Y-149512165D01*
X94576642Y-149311352D01*
X94576548Y-149129349D01*
X94576362Y-148965216D01*
X94576059Y-148818011D01*
X94575614Y-148686792D01*
X94575034Y-148576867D01*
X94272197Y-148576867D01*
X94232407Y-148634711D01*
X94221236Y-148650479D01*
X94211166Y-148664441D01*
X94202138Y-148677784D01*
X94194097Y-148691693D01*
X94186986Y-148707356D01*
X94180747Y-148725958D01*
X94175325Y-148748686D01*
X94170662Y-148776727D01*
X94166701Y-148811267D01*
X94163385Y-148853492D01*
X94160659Y-148904589D01*
X94158464Y-148965744D01*
X94156745Y-149038144D01*
X94155444Y-149122975D01*
X94154505Y-149221422D01*
X94153870Y-149334674D01*
X94153484Y-149463916D01*
X94153288Y-149610334D01*
X94153227Y-149775116D01*
X94153243Y-149959447D01*
X94153280Y-150164513D01*
X94153289Y-150287133D01*
X94153265Y-150504082D01*
X94153231Y-150699642D01*
X94153243Y-150874999D01*
X94153358Y-151031341D01*
X94153630Y-151169857D01*
X94154118Y-151291734D01*
X94154876Y-151398160D01*
X94155962Y-151490322D01*
X94157431Y-151569409D01*
X94159340Y-151636608D01*
X94161744Y-151693107D01*
X94164701Y-151740093D01*
X94168266Y-151778755D01*
X94172495Y-151810280D01*
X94177446Y-151835855D01*
X94183173Y-151856670D01*
X94189733Y-151873911D01*
X94197183Y-151888765D01*
X94205579Y-151902422D01*
X94214976Y-151916069D01*
X94225432Y-151930893D01*
X94231523Y-151939783D01*
X94270296Y-151997400D01*
X93738732Y-151997400D01*
X93615483Y-151997365D01*
X93512987Y-151997215D01*
X93429420Y-151996878D01*
X93362956Y-151996286D01*
X93311771Y-151995367D01*
X93274041Y-151994051D01*
X93247940Y-151992269D01*
X93231644Y-151989951D01*
X93223328Y-151987026D01*
X93221168Y-151983424D01*
X93223339Y-151979075D01*
X93224535Y-151977645D01*
X93249685Y-151940573D01*
X93275583Y-151887772D01*
X93299192Y-151825770D01*
X93307461Y-151799357D01*
X93312078Y-151781416D01*
X93315979Y-151760355D01*
X93319248Y-151734089D01*
X93321966Y-151700532D01*
X93324215Y-151657599D01*
X93326077Y-151603204D01*
X93327636Y-151535262D01*
X93328972Y-151451688D01*
X93330169Y-151350395D01*
X93331308Y-151229300D01*
X93331685Y-151184600D01*
X93332702Y-151059449D01*
X93333460Y-150955082D01*
X93333903Y-150869707D01*
X93333970Y-150801533D01*
X93333605Y-150748765D01*
X93332748Y-150709614D01*
X93331341Y-150682285D01*
X93329325Y-150664986D01*
X93326643Y-150655926D01*
X93323236Y-150653312D01*
X93319044Y-150655351D01*
X93314571Y-150659667D01*
X93304216Y-150672602D01*
X93282158Y-150701676D01*
X93249957Y-150744759D01*
X93209174Y-150799718D01*
X93161370Y-150864423D01*
X93108105Y-150936742D01*
X93050940Y-151014544D01*
X92991437Y-151095698D01*
X92931155Y-151178072D01*
X92871655Y-151259536D01*
X92814498Y-151337957D01*
X92761245Y-151411204D01*
X92713457Y-151477147D01*
X92672693Y-151533654D01*
X92640516Y-151578593D01*
X92618485Y-151609834D01*
X92613917Y-151616466D01*
X92590996Y-151653369D01*
X92564188Y-151701359D01*
X92538789Y-151750897D01*
X92535568Y-151757577D01*
X92513890Y-151805772D01*
X92501304Y-151843334D01*
X92495574Y-151879160D01*
X92494456Y-151921200D01*
X92495090Y-151997400D01*
X91340651Y-151997400D01*
X91431815Y-151903669D01*
X91478612Y-151853775D01*
X91528899Y-151797295D01*
X91574944Y-151743026D01*
X91595369Y-151717673D01*
X91625807Y-151678128D01*
X91665862Y-151624916D01*
X91714361Y-151559667D01*
X91770135Y-151484011D01*
X91832011Y-151399577D01*
X91898819Y-151307994D01*
X91969387Y-151210892D01*
X92042545Y-151109901D01*
X92117121Y-151006650D01*
X92191944Y-150902768D01*
X92265843Y-150799885D01*
X92337646Y-150699631D01*
X92406184Y-150603636D01*
X92470284Y-150513527D01*
X92528775Y-150430936D01*
X92580486Y-150357492D01*
X92624247Y-150294824D01*
X92658885Y-150244561D01*
X92683230Y-150208334D01*
X92696111Y-150187771D01*
X92697869Y-150183668D01*
X92689910Y-150172342D01*
X92669115Y-150145162D01*
X92636847Y-150103829D01*
X92594470Y-150050044D01*
X92543347Y-149985506D01*
X92484841Y-149911918D01*
X92420314Y-149830978D01*
X92351131Y-149744388D01*
X92278653Y-149653848D01*
X92204246Y-149561060D01*
X92144517Y-149486702D01*
X91133511Y-149486702D01*
X91127602Y-149499659D01*
X91113272Y-149521908D01*
X91112225Y-149523391D01*
X91093438Y-149553544D01*
X91073791Y-149590375D01*
X91069892Y-149598511D01*
X91066356Y-149606940D01*
X91063230Y-149617059D01*
X91060486Y-149630260D01*
X91058092Y-149647938D01*
X91056019Y-149671484D01*
X91054235Y-149702293D01*
X91052712Y-149741757D01*
X91051419Y-149791269D01*
X91050326Y-149852223D01*
X91049403Y-149926011D01*
X91048619Y-150014028D01*
X91047945Y-150117665D01*
X91047350Y-150238316D01*
X91046805Y-150377374D01*
X91046279Y-150536232D01*
X91045745Y-150715089D01*
X91045206Y-150900207D01*
X91044772Y-151064145D01*
X91044509Y-151208303D01*
X91044484Y-151334079D01*
X91044765Y-151442871D01*
X91045419Y-151536077D01*
X91046514Y-151615097D01*
X91048118Y-151681328D01*
X91050297Y-151736170D01*
X91053119Y-151781021D01*
X91056651Y-151817278D01*
X91060961Y-151846341D01*
X91066117Y-151869609D01*
X91072185Y-151888479D01*
X91079233Y-151904351D01*
X91087329Y-151918622D01*
X91096540Y-151932691D01*
X91105040Y-151945158D01*
X91122176Y-151971452D01*
X91132322Y-151989037D01*
X91133511Y-151992257D01*
X91122604Y-151993334D01*
X91091411Y-151994335D01*
X91042223Y-151995235D01*
X90977333Y-151996010D01*
X90899030Y-151996637D01*
X90809607Y-151997091D01*
X90711356Y-151997349D01*
X90642445Y-151997400D01*
X90537452Y-151997180D01*
X90440610Y-151996548D01*
X90354107Y-151995549D01*
X90280132Y-151994227D01*
X90220874Y-151992626D01*
X90178520Y-151990791D01*
X90155260Y-151988765D01*
X90151378Y-151987493D01*
X90159076Y-151972591D01*
X90167074Y-151964560D01*
X90180246Y-151947434D01*
X90197485Y-151917183D01*
X90209407Y-151892622D01*
X90236045Y-151833711D01*
X90239120Y-150656845D01*
X90242195Y-149479978D01*
X90687853Y-149479978D01*
X90785670Y-149480142D01*
X90876064Y-149480611D01*
X90956630Y-149481347D01*
X91024962Y-149482316D01*
X91078656Y-149483480D01*
X91115305Y-149484803D01*
X91132504Y-149486249D01*
X91133511Y-149486702D01*
X92144517Y-149486702D01*
X92129270Y-149467722D01*
X92055090Y-149375537D01*
X91983069Y-149286204D01*
X91914569Y-149201424D01*
X91850955Y-149122898D01*
X91793588Y-149052326D01*
X91743833Y-148991409D01*
X91703052Y-148941847D01*
X91685888Y-148921178D01*
X91599596Y-148820516D01*
X91522997Y-148737259D01*
X91454183Y-148669438D01*
X91391248Y-148615089D01*
X91381867Y-148607722D01*
X91342356Y-148577117D01*
X92474116Y-148576867D01*
X92468827Y-148624844D01*
X92472130Y-148682188D01*
X92493661Y-148750463D01*
X92533635Y-148830212D01*
X92578943Y-148902495D01*
X92595161Y-148925140D01*
X92623214Y-148962696D01*
X92661430Y-149013021D01*
X92708137Y-149073973D01*
X92761661Y-149143411D01*
X92820331Y-149219194D01*
X92882475Y-149299180D01*
X92946421Y-149381228D01*
X93010495Y-149463196D01*
X93073027Y-149542943D01*
X93132343Y-149618327D01*
X93186771Y-149687207D01*
X93234639Y-149747442D01*
X93274275Y-149796889D01*
X93304006Y-149833408D01*
X93322161Y-149854858D01*
X93325220Y-149858156D01*
X93328079Y-149850149D01*
X93330293Y-149819855D01*
X93331857Y-149767556D01*
X93332767Y-149693531D01*
X93333020Y-149598063D01*
X93332613Y-149481434D01*
X93331704Y-149361445D01*
X93330382Y-149229333D01*
X93328857Y-149117594D01*
X93326881Y-149024025D01*
X93324206Y-148946419D01*
X93320582Y-148882574D01*
X93315761Y-148830283D01*
X93309494Y-148787344D01*
X93301532Y-148751551D01*
X93291627Y-148720700D01*
X93279531Y-148692586D01*
X93264993Y-148665005D01*
X93250311Y-148639966D01*
X93212314Y-148576867D01*
X94272197Y-148576867D01*
X94575034Y-148576867D01*
X94575001Y-148570617D01*
X94574195Y-148468544D01*
X94573170Y-148379633D01*
X94571900Y-148302941D01*
X94570360Y-148237527D01*
X94568524Y-148182449D01*
X94566367Y-148136765D01*
X94563863Y-148099534D01*
X94560987Y-148069813D01*
X94557713Y-148046662D01*
X94554015Y-148029139D01*
X94549869Y-148016301D01*
X94545247Y-148007208D01*
X94540126Y-148000918D01*
X94534478Y-147996488D01*
X94528279Y-147992978D01*
X94521504Y-147989445D01*
X94515508Y-147985876D01*
X94510275Y-147983300D01*
X94502099Y-147980972D01*
X94489886Y-147978878D01*
X94472541Y-147977007D01*
X94448969Y-147975347D01*
X94418077Y-147973884D01*
X94378768Y-147972608D01*
X94329950Y-147971504D01*
X94270527Y-147970561D01*
X94199404Y-147969767D01*
X94115488Y-147969109D01*
X94017683Y-147968575D01*
X93904894Y-147968153D01*
X93776029Y-147967829D01*
X93629991Y-147967592D01*
X93465686Y-147967430D01*
X93282020Y-147967330D01*
X93077897Y-147967280D01*
X92866753Y-147967267D01*
X91246400Y-147967267D01*
X91246400Y-148064054D01*
G37*
X91246400Y-148064054D02*
X91235535Y-148177993D01*
X91203918Y-148285616D01*
X91153015Y-148384615D01*
X91084293Y-148472684D01*
X90999219Y-148547516D01*
X90902232Y-148605384D01*
X90795964Y-148645005D01*
X90688950Y-148663573D01*
X90583300Y-148662434D01*
X90481125Y-148642930D01*
X90384534Y-148606406D01*
X90295638Y-148554205D01*
X90216546Y-148487673D01*
X90149369Y-148408152D01*
X90096217Y-148316987D01*
X90059199Y-148215523D01*
X90040427Y-148105102D01*
X90038489Y-148055206D01*
X90038489Y-147967267D01*
X89986560Y-147967267D01*
X89950253Y-147970111D01*
X89923355Y-147981911D01*
X89896249Y-148005649D01*
X89857867Y-148044031D01*
X89857867Y-150235602D01*
X89857876Y-150497739D01*
X89857908Y-150738241D01*
X89857972Y-150958048D01*
X89858076Y-151158101D01*
X89858227Y-151339344D01*
X89858434Y-151502716D01*
X89858706Y-151649160D01*
X89859050Y-151779617D01*
X89859474Y-151895029D01*
X89859987Y-151996338D01*
X89860597Y-152084484D01*
X89861312Y-152160410D01*
X89862140Y-152225057D01*
X89863089Y-152279367D01*
X89864167Y-152324280D01*
X89865383Y-152360740D01*
X89866745Y-152389687D01*
X89868261Y-152412063D01*
X89869938Y-152428809D01*
X89871786Y-152440868D01*
X89873813Y-152449180D01*
X89876025Y-152454687D01*
X89877108Y-152456537D01*
X89881271Y-152463549D01*
X89884805Y-152469996D01*
X89888635Y-152475900D01*
X89893682Y-152481286D01*
X89900871Y-152486178D01*
X89911123Y-152490598D01*
X89925364Y-152494572D01*
X89944514Y-152498121D01*
X89969499Y-152501270D01*
X90001240Y-152504042D01*
X90040662Y-152506461D01*
X90088686Y-152508551D01*
X90146237Y-152510335D01*
X90214237Y-152511837D01*
X90293610Y-152513080D01*
X90385279Y-152514089D01*
X90490166Y-152514885D01*
X90609196Y-152515494D01*
X90743290Y-152515939D01*
X90893373Y-152516243D01*
X91060367Y-152516430D01*
X91245196Y-152516524D01*
X91448783Y-152516548D01*
X91672050Y-152516525D01*
X91915922Y-152516480D01*
X92181321Y-152516437D01*
X92219704Y-152516432D01*
X92486682Y-152516389D01*
X92732002Y-152516318D01*
X92956583Y-152516213D01*
X93161345Y-152516066D01*
X93347206Y-152515869D01*
X93515088Y-152515616D01*
X93665908Y-152515300D01*
X93800587Y-152514913D01*
X93920044Y-152514447D01*
X94025199Y-152513897D01*
X94116971Y-152513253D01*
X94196279Y-152512511D01*
X94264043Y-152511661D01*
X94321182Y-152510697D01*
X94368617Y-152509611D01*
X94407266Y-152508397D01*
X94438049Y-152507047D01*
X94461885Y-152505555D01*
X94479694Y-152503911D01*
X94492395Y-152502111D01*
X94500908Y-152500145D01*
X94505266Y-152498477D01*
X94513728Y-152494906D01*
X94521497Y-152492270D01*
X94528602Y-152489634D01*
X94535073Y-152486062D01*
X94540939Y-152480621D01*
X94546229Y-152472375D01*
X94550974Y-152460390D01*
X94555202Y-152443731D01*
X94558943Y-152421463D01*
X94562227Y-152392652D01*
X94565083Y-152356363D01*
X94567540Y-152311661D01*
X94569629Y-152257611D01*
X94571378Y-152193279D01*
X94572817Y-152117730D01*
X94573976Y-152030030D01*
X94574883Y-151929243D01*
X94575569Y-151814434D01*
X94576063Y-151684670D01*
X94576395Y-151539015D01*
X94576593Y-151376535D01*
X94576687Y-151196295D01*
X94576708Y-150997360D01*
X94576685Y-150778796D01*
X94576646Y-150539668D01*
X94576622Y-150279040D01*
X94576622Y-150236889D01*
X94576636Y-149973992D01*
X94576661Y-149732732D01*
X94576671Y-149512165D01*
X94576642Y-149311352D01*
X94576548Y-149129349D01*
X94576362Y-148965216D01*
X94576059Y-148818011D01*
X94575614Y-148686792D01*
X94575034Y-148576867D01*
X94272197Y-148576867D01*
X94232407Y-148634711D01*
X94221236Y-148650479D01*
X94211166Y-148664441D01*
X94202138Y-148677784D01*
X94194097Y-148691693D01*
X94186986Y-148707356D01*
X94180747Y-148725958D01*
X94175325Y-148748686D01*
X94170662Y-148776727D01*
X94166701Y-148811267D01*
X94163385Y-148853492D01*
X94160659Y-148904589D01*
X94158464Y-148965744D01*
X94156745Y-149038144D01*
X94155444Y-149122975D01*
X94154505Y-149221422D01*
X94153870Y-149334674D01*
X94153484Y-149463916D01*
X94153288Y-149610334D01*
X94153227Y-149775116D01*
X94153243Y-149959447D01*
X94153280Y-150164513D01*
X94153289Y-150287133D01*
X94153265Y-150504082D01*
X94153231Y-150699642D01*
X94153243Y-150874999D01*
X94153358Y-151031341D01*
X94153630Y-151169857D01*
X94154118Y-151291734D01*
X94154876Y-151398160D01*
X94155962Y-151490322D01*
X94157431Y-151569409D01*
X94159340Y-151636608D01*
X94161744Y-151693107D01*
X94164701Y-151740093D01*
X94168266Y-151778755D01*
X94172495Y-151810280D01*
X94177446Y-151835855D01*
X94183173Y-151856670D01*
X94189733Y-151873911D01*
X94197183Y-151888765D01*
X94205579Y-151902422D01*
X94214976Y-151916069D01*
X94225432Y-151930893D01*
X94231523Y-151939783D01*
X94270296Y-151997400D01*
X93738732Y-151997400D01*
X93615483Y-151997365D01*
X93512987Y-151997215D01*
X93429420Y-151996878D01*
X93362956Y-151996286D01*
X93311771Y-151995367D01*
X93274041Y-151994051D01*
X93247940Y-151992269D01*
X93231644Y-151989951D01*
X93223328Y-151987026D01*
X93221168Y-151983424D01*
X93223339Y-151979075D01*
X93224535Y-151977645D01*
X93249685Y-151940573D01*
X93275583Y-151887772D01*
X93299192Y-151825770D01*
X93307461Y-151799357D01*
X93312078Y-151781416D01*
X93315979Y-151760355D01*
X93319248Y-151734089D01*
X93321966Y-151700532D01*
X93324215Y-151657599D01*
X93326077Y-151603204D01*
X93327636Y-151535262D01*
X93328972Y-151451688D01*
X93330169Y-151350395D01*
X93331308Y-151229300D01*
X93331685Y-151184600D01*
X93332702Y-151059449D01*
X93333460Y-150955082D01*
X93333903Y-150869707D01*
X93333970Y-150801533D01*
X93333605Y-150748765D01*
X93332748Y-150709614D01*
X93331341Y-150682285D01*
X93329325Y-150664986D01*
X93326643Y-150655926D01*
X93323236Y-150653312D01*
X93319044Y-150655351D01*
X93314571Y-150659667D01*
X93304216Y-150672602D01*
X93282158Y-150701676D01*
X93249957Y-150744759D01*
X93209174Y-150799718D01*
X93161370Y-150864423D01*
X93108105Y-150936742D01*
X93050940Y-151014544D01*
X92991437Y-151095698D01*
X92931155Y-151178072D01*
X92871655Y-151259536D01*
X92814498Y-151337957D01*
X92761245Y-151411204D01*
X92713457Y-151477147D01*
X92672693Y-151533654D01*
X92640516Y-151578593D01*
X92618485Y-151609834D01*
X92613917Y-151616466D01*
X92590996Y-151653369D01*
X92564188Y-151701359D01*
X92538789Y-151750897D01*
X92535568Y-151757577D01*
X92513890Y-151805772D01*
X92501304Y-151843334D01*
X92495574Y-151879160D01*
X92494456Y-151921200D01*
X92495090Y-151997400D01*
X91340651Y-151997400D01*
X91431815Y-151903669D01*
X91478612Y-151853775D01*
X91528899Y-151797295D01*
X91574944Y-151743026D01*
X91595369Y-151717673D01*
X91625807Y-151678128D01*
X91665862Y-151624916D01*
X91714361Y-151559667D01*
X91770135Y-151484011D01*
X91832011Y-151399577D01*
X91898819Y-151307994D01*
X91969387Y-151210892D01*
X92042545Y-151109901D01*
X92117121Y-151006650D01*
X92191944Y-150902768D01*
X92265843Y-150799885D01*
X92337646Y-150699631D01*
X92406184Y-150603636D01*
X92470284Y-150513527D01*
X92528775Y-150430936D01*
X92580486Y-150357492D01*
X92624247Y-150294824D01*
X92658885Y-150244561D01*
X92683230Y-150208334D01*
X92696111Y-150187771D01*
X92697869Y-150183668D01*
X92689910Y-150172342D01*
X92669115Y-150145162D01*
X92636847Y-150103829D01*
X92594470Y-150050044D01*
X92543347Y-149985506D01*
X92484841Y-149911918D01*
X92420314Y-149830978D01*
X92351131Y-149744388D01*
X92278653Y-149653848D01*
X92204246Y-149561060D01*
X92144517Y-149486702D01*
X91133511Y-149486702D01*
X91127602Y-149499659D01*
X91113272Y-149521908D01*
X91112225Y-149523391D01*
X91093438Y-149553544D01*
X91073791Y-149590375D01*
X91069892Y-149598511D01*
X91066356Y-149606940D01*
X91063230Y-149617059D01*
X91060486Y-149630260D01*
X91058092Y-149647938D01*
X91056019Y-149671484D01*
X91054235Y-149702293D01*
X91052712Y-149741757D01*
X91051419Y-149791269D01*
X91050326Y-149852223D01*
X91049403Y-149926011D01*
X91048619Y-150014028D01*
X91047945Y-150117665D01*
X91047350Y-150238316D01*
X91046805Y-150377374D01*
X91046279Y-150536232D01*
X91045745Y-150715089D01*
X91045206Y-150900207D01*
X91044772Y-151064145D01*
X91044509Y-151208303D01*
X91044484Y-151334079D01*
X91044765Y-151442871D01*
X91045419Y-151536077D01*
X91046514Y-151615097D01*
X91048118Y-151681328D01*
X91050297Y-151736170D01*
X91053119Y-151781021D01*
X91056651Y-151817278D01*
X91060961Y-151846341D01*
X91066117Y-151869609D01*
X91072185Y-151888479D01*
X91079233Y-151904351D01*
X91087329Y-151918622D01*
X91096540Y-151932691D01*
X91105040Y-151945158D01*
X91122176Y-151971452D01*
X91132322Y-151989037D01*
X91133511Y-151992257D01*
X91122604Y-151993334D01*
X91091411Y-151994335D01*
X91042223Y-151995235D01*
X90977333Y-151996010D01*
X90899030Y-151996637D01*
X90809607Y-151997091D01*
X90711356Y-151997349D01*
X90642445Y-151997400D01*
X90537452Y-151997180D01*
X90440610Y-151996548D01*
X90354107Y-151995549D01*
X90280132Y-151994227D01*
X90220874Y-151992626D01*
X90178520Y-151990791D01*
X90155260Y-151988765D01*
X90151378Y-151987493D01*
X90159076Y-151972591D01*
X90167074Y-151964560D01*
X90180246Y-151947434D01*
X90197485Y-151917183D01*
X90209407Y-151892622D01*
X90236045Y-151833711D01*
X90239120Y-150656845D01*
X90242195Y-149479978D01*
X90687853Y-149479978D01*
X90785670Y-149480142D01*
X90876064Y-149480611D01*
X90956630Y-149481347D01*
X91024962Y-149482316D01*
X91078656Y-149483480D01*
X91115305Y-149484803D01*
X91132504Y-149486249D01*
X91133511Y-149486702D01*
X92144517Y-149486702D01*
X92129270Y-149467722D01*
X92055090Y-149375537D01*
X91983069Y-149286204D01*
X91914569Y-149201424D01*
X91850955Y-149122898D01*
X91793588Y-149052326D01*
X91743833Y-148991409D01*
X91703052Y-148941847D01*
X91685888Y-148921178D01*
X91599596Y-148820516D01*
X91522997Y-148737259D01*
X91454183Y-148669438D01*
X91391248Y-148615089D01*
X91381867Y-148607722D01*
X91342356Y-148577117D01*
X92474116Y-148576867D01*
X92468827Y-148624844D01*
X92472130Y-148682188D01*
X92493661Y-148750463D01*
X92533635Y-148830212D01*
X92578943Y-148902495D01*
X92595161Y-148925140D01*
X92623214Y-148962696D01*
X92661430Y-149013021D01*
X92708137Y-149073973D01*
X92761661Y-149143411D01*
X92820331Y-149219194D01*
X92882475Y-149299180D01*
X92946421Y-149381228D01*
X93010495Y-149463196D01*
X93073027Y-149542943D01*
X93132343Y-149618327D01*
X93186771Y-149687207D01*
X93234639Y-149747442D01*
X93274275Y-149796889D01*
X93304006Y-149833408D01*
X93322161Y-149854858D01*
X93325220Y-149858156D01*
X93328079Y-149850149D01*
X93330293Y-149819855D01*
X93331857Y-149767556D01*
X93332767Y-149693531D01*
X93333020Y-149598063D01*
X93332613Y-149481434D01*
X93331704Y-149361445D01*
X93330382Y-149229333D01*
X93328857Y-149117594D01*
X93326881Y-149024025D01*
X93324206Y-148946419D01*
X93320582Y-148882574D01*
X93315761Y-148830283D01*
X93309494Y-148787344D01*
X93301532Y-148751551D01*
X93291627Y-148720700D01*
X93279531Y-148692586D01*
X93264993Y-148665005D01*
X93250311Y-148639966D01*
X93212314Y-148576867D01*
X94272197Y-148576867D01*
X94575034Y-148576867D01*
X94575001Y-148570617D01*
X94574195Y-148468544D01*
X94573170Y-148379633D01*
X94571900Y-148302941D01*
X94570360Y-148237527D01*
X94568524Y-148182449D01*
X94566367Y-148136765D01*
X94563863Y-148099534D01*
X94560987Y-148069813D01*
X94557713Y-148046662D01*
X94554015Y-148029139D01*
X94549869Y-148016301D01*
X94545247Y-148007208D01*
X94540126Y-148000918D01*
X94534478Y-147996488D01*
X94528279Y-147992978D01*
X94521504Y-147989445D01*
X94515508Y-147985876D01*
X94510275Y-147983300D01*
X94502099Y-147980972D01*
X94489886Y-147978878D01*
X94472541Y-147977007D01*
X94448969Y-147975347D01*
X94418077Y-147973884D01*
X94378768Y-147972608D01*
X94329950Y-147971504D01*
X94270527Y-147970561D01*
X94199404Y-147969767D01*
X94115488Y-147969109D01*
X94017683Y-147968575D01*
X93904894Y-147968153D01*
X93776029Y-147967829D01*
X93629991Y-147967592D01*
X93465686Y-147967430D01*
X93282020Y-147967330D01*
X93077897Y-147967280D01*
X92866753Y-147967267D01*
X91246400Y-147967267D01*
X91246400Y-148064054D01*
G36*
X87971571Y-148524071D02*
G01*
X87811430Y-148545245D01*
X87647490Y-148585385D01*
X87477687Y-148644889D01*
X87299957Y-148724154D01*
X87288690Y-148729699D01*
X87230995Y-148757725D01*
X87179448Y-148781802D01*
X87137809Y-148800249D01*
X87109838Y-148811386D01*
X87100267Y-148813933D01*
X87081050Y-148818941D01*
X87076439Y-148823147D01*
X87081542Y-148833580D01*
X87097582Y-148859868D01*
X87122712Y-148899257D01*
X87155086Y-148948991D01*
X87192857Y-149006315D01*
X87234178Y-149068476D01*
X87277202Y-149132718D01*
X87320083Y-149196285D01*
X87360974Y-149256425D01*
X87398029Y-149310380D01*
X87429400Y-149355397D01*
X87453241Y-149388721D01*
X87467706Y-149407597D01*
X87469691Y-149409787D01*
X87479809Y-149405138D01*
X87502150Y-149387962D01*
X87532720Y-149361440D01*
X87548464Y-149346964D01*
X87644953Y-149271682D01*
X87751664Y-149216241D01*
X87867168Y-149181141D01*
X87990038Y-149166880D01*
X88059439Y-149168051D01*
X88180577Y-149185212D01*
X88289795Y-149221094D01*
X88387418Y-149275959D01*
X88473772Y-149350070D01*
X88549185Y-149443688D01*
X88613982Y-149557076D01*
X88651399Y-149643667D01*
X88695252Y-149779366D01*
X88727572Y-149926850D01*
X88748443Y-150082314D01*
X88757949Y-150241956D01*
X88756173Y-150401973D01*
X88743197Y-150558561D01*
X88719106Y-150707918D01*
X88683982Y-150846240D01*
X88637908Y-150969724D01*
X88621627Y-151003978D01*
X88553380Y-151118064D01*
X88472921Y-151214557D01*
X88381430Y-151292670D01*
X88280089Y-151351617D01*
X88170080Y-151390612D01*
X88052585Y-151408868D01*
X88011117Y-151410211D01*
X87889559Y-151399290D01*
X87769122Y-151366474D01*
X87651334Y-151312439D01*
X87537723Y-151237865D01*
X87446315Y-151159539D01*
X87399785Y-151115008D01*
X87218517Y-151412271D01*
X87173420Y-151486433D01*
X87132181Y-151554646D01*
X87096265Y-151614459D01*
X87067134Y-151663420D01*
X87046250Y-151699079D01*
X87035076Y-151718984D01*
X87033625Y-151722079D01*
X87041854Y-151731718D01*
X87067433Y-151748999D01*
X87107127Y-151772283D01*
X87157703Y-151799934D01*
X87215926Y-151830315D01*
X87278563Y-151861790D01*
X87342379Y-151892722D01*
X87404140Y-151921473D01*
X87460612Y-151946408D01*
X87508562Y-151965889D01*
X87532014Y-151974318D01*
X87665779Y-152012133D01*
X87803673Y-152037136D01*
X87951378Y-152050140D01*
X88078167Y-152052468D01*
X88146122Y-152051373D01*
X88211723Y-152049275D01*
X88269153Y-152046434D01*
X88312597Y-152043106D01*
X88326702Y-152041422D01*
X88465716Y-152012587D01*
X88607243Y-151967468D01*
X88744725Y-151908750D01*
X88871606Y-151839120D01*
X88949111Y-151786441D01*
X89076519Y-151678239D01*
X89194822Y-151551671D01*
X89301828Y-151409866D01*
X89395348Y-151255951D01*
X89473190Y-151093053D01*
X89517044Y-150975756D01*
X89567292Y-150792128D01*
X89600791Y-150597581D01*
X89617551Y-150396325D01*
X89617584Y-150192568D01*
X89600899Y-149990521D01*
X89567507Y-149794392D01*
X89517420Y-149608391D01*
X89513603Y-149596803D01*
X89450719Y-149434750D01*
X89373972Y-149286832D01*
X89280758Y-149148865D01*
X89168473Y-149016661D01*
X89124608Y-148971399D01*
X88988466Y-148847457D01*
X88848509Y-148744915D01*
X88702589Y-148662656D01*
X88548558Y-148599564D01*
X88384268Y-148554523D01*
X88288711Y-148537033D01*
X88129977Y-148521466D01*
X87971571Y-148524071D01*
G37*
X87971571Y-148524071D02*
X87811430Y-148545245D01*
X87647490Y-148585385D01*
X87477687Y-148644889D01*
X87299957Y-148724154D01*
X87288690Y-148729699D01*
X87230995Y-148757725D01*
X87179448Y-148781802D01*
X87137809Y-148800249D01*
X87109838Y-148811386D01*
X87100267Y-148813933D01*
X87081050Y-148818941D01*
X87076439Y-148823147D01*
X87081542Y-148833580D01*
X87097582Y-148859868D01*
X87122712Y-148899257D01*
X87155086Y-148948991D01*
X87192857Y-149006315D01*
X87234178Y-149068476D01*
X87277202Y-149132718D01*
X87320083Y-149196285D01*
X87360974Y-149256425D01*
X87398029Y-149310380D01*
X87429400Y-149355397D01*
X87453241Y-149388721D01*
X87467706Y-149407597D01*
X87469691Y-149409787D01*
X87479809Y-149405138D01*
X87502150Y-149387962D01*
X87532720Y-149361440D01*
X87548464Y-149346964D01*
X87644953Y-149271682D01*
X87751664Y-149216241D01*
X87867168Y-149181141D01*
X87990038Y-149166880D01*
X88059439Y-149168051D01*
X88180577Y-149185212D01*
X88289795Y-149221094D01*
X88387418Y-149275959D01*
X88473772Y-149350070D01*
X88549185Y-149443688D01*
X88613982Y-149557076D01*
X88651399Y-149643667D01*
X88695252Y-149779366D01*
X88727572Y-149926850D01*
X88748443Y-150082314D01*
X88757949Y-150241956D01*
X88756173Y-150401973D01*
X88743197Y-150558561D01*
X88719106Y-150707918D01*
X88683982Y-150846240D01*
X88637908Y-150969724D01*
X88621627Y-151003978D01*
X88553380Y-151118064D01*
X88472921Y-151214557D01*
X88381430Y-151292670D01*
X88280089Y-151351617D01*
X88170080Y-151390612D01*
X88052585Y-151408868D01*
X88011117Y-151410211D01*
X87889559Y-151399290D01*
X87769122Y-151366474D01*
X87651334Y-151312439D01*
X87537723Y-151237865D01*
X87446315Y-151159539D01*
X87399785Y-151115008D01*
X87218517Y-151412271D01*
X87173420Y-151486433D01*
X87132181Y-151554646D01*
X87096265Y-151614459D01*
X87067134Y-151663420D01*
X87046250Y-151699079D01*
X87035076Y-151718984D01*
X87033625Y-151722079D01*
X87041854Y-151731718D01*
X87067433Y-151748999D01*
X87107127Y-151772283D01*
X87157703Y-151799934D01*
X87215926Y-151830315D01*
X87278563Y-151861790D01*
X87342379Y-151892722D01*
X87404140Y-151921473D01*
X87460612Y-151946408D01*
X87508562Y-151965889D01*
X87532014Y-151974318D01*
X87665779Y-152012133D01*
X87803673Y-152037136D01*
X87951378Y-152050140D01*
X88078167Y-152052468D01*
X88146122Y-152051373D01*
X88211723Y-152049275D01*
X88269153Y-152046434D01*
X88312597Y-152043106D01*
X88326702Y-152041422D01*
X88465716Y-152012587D01*
X88607243Y-151967468D01*
X88744725Y-151908750D01*
X88871606Y-151839120D01*
X88949111Y-151786441D01*
X89076519Y-151678239D01*
X89194822Y-151551671D01*
X89301828Y-151409866D01*
X89395348Y-151255951D01*
X89473190Y-151093053D01*
X89517044Y-150975756D01*
X89567292Y-150792128D01*
X89600791Y-150597581D01*
X89617551Y-150396325D01*
X89617584Y-150192568D01*
X89600899Y-149990521D01*
X89567507Y-149794392D01*
X89517420Y-149608391D01*
X89513603Y-149596803D01*
X89450719Y-149434750D01*
X89373972Y-149286832D01*
X89280758Y-149148865D01*
X89168473Y-149016661D01*
X89124608Y-148971399D01*
X88988466Y-148847457D01*
X88848509Y-148744915D01*
X88702589Y-148662656D01*
X88548558Y-148599564D01*
X88384268Y-148554523D01*
X88288711Y-148537033D01*
X88129977Y-148521466D01*
X87971571Y-148524071D01*
G36*
X85626426Y-149441552D02*
G01*
X85474508Y-149461567D01*
X85339244Y-149495202D01*
X85219761Y-149542725D01*
X85115185Y-149604405D01*
X85037576Y-149667965D01*
X84968735Y-149742099D01*
X84914994Y-149821871D01*
X84872090Y-149914091D01*
X84856616Y-149957161D01*
X84843756Y-149996142D01*
X84832554Y-150032289D01*
X84822880Y-150067434D01*
X84814604Y-150103410D01*
X84807597Y-150142050D01*
X84801728Y-150185185D01*
X84796869Y-150234649D01*
X84792890Y-150292273D01*
X84789660Y-150359891D01*
X84787051Y-150439334D01*
X84784933Y-150532436D01*
X84783176Y-150641027D01*
X84781651Y-150766942D01*
X84780228Y-150912012D01*
X84778975Y-151054778D01*
X84777649Y-151210968D01*
X84776444Y-151346239D01*
X84775234Y-151462246D01*
X84773894Y-151560645D01*
X84772300Y-151643093D01*
X84770325Y-151711246D01*
X84767844Y-151766760D01*
X84764731Y-151811292D01*
X84760862Y-151846498D01*
X84756111Y-151874034D01*
X84750352Y-151895556D01*
X84743461Y-151912722D01*
X84735311Y-151927186D01*
X84725777Y-151940606D01*
X84714734Y-151954638D01*
X84710434Y-151960071D01*
X84694614Y-151982910D01*
X84687578Y-151998463D01*
X84687556Y-151998922D01*
X84698433Y-152001121D01*
X84729418Y-152003147D01*
X84778043Y-152004942D01*
X84841837Y-152006451D01*
X84918331Y-152007616D01*
X85005056Y-152008380D01*
X85099543Y-152008686D01*
X85110450Y-152008689D01*
X85533343Y-152008689D01*
X85536605Y-151912622D01*
X85539867Y-151816556D01*
X85601956Y-151867543D01*
X85699286Y-151935057D01*
X85809187Y-151989749D01*
X85895651Y-152019978D01*
X85964722Y-152034666D01*
X86048075Y-152044659D01*
X86137841Y-152049646D01*
X86226155Y-152049313D01*
X86305149Y-152043351D01*
X86341378Y-152037638D01*
X86481397Y-151999776D01*
X86607822Y-151944932D01*
X86719740Y-151873924D01*
X86816238Y-151787568D01*
X86896400Y-151686679D01*
X86959313Y-151572076D01*
X87003688Y-151445984D01*
X87016022Y-151389401D01*
X87023632Y-151327202D01*
X87027261Y-151252363D01*
X87027755Y-151218467D01*
X87027690Y-151215282D01*
X86267752Y-151215282D01*
X86258459Y-151290333D01*
X86230272Y-151354160D01*
X86181803Y-151409798D01*
X86176746Y-151414211D01*
X86128452Y-151449037D01*
X86076743Y-151471620D01*
X86016011Y-151483540D01*
X85940648Y-151486383D01*
X85922541Y-151485978D01*
X85868722Y-151483325D01*
X85828692Y-151477909D01*
X85793676Y-151467745D01*
X85754897Y-151450850D01*
X85744255Y-151445672D01*
X85683604Y-151409844D01*
X85636785Y-151367212D01*
X85624048Y-151351973D01*
X85579378Y-151295462D01*
X85579378Y-151099586D01*
X85579914Y-151020939D01*
X85581604Y-150962988D01*
X85584572Y-150923875D01*
X85588943Y-150901741D01*
X85593028Y-150895274D01*
X85608953Y-150892111D01*
X85642736Y-150889488D01*
X85689660Y-150887655D01*
X85745007Y-150886857D01*
X85753894Y-150886842D01*
X85874670Y-150892096D01*
X85977340Y-150908263D01*
X86063894Y-150935961D01*
X86136319Y-150975808D01*
X86191249Y-151022758D01*
X86235796Y-151080645D01*
X86260520Y-151143693D01*
X86267752Y-151215282D01*
X87027690Y-151215282D01*
X87025822Y-151124712D01*
X87017478Y-151045812D01*
X87001232Y-150974590D01*
X86975595Y-150903864D01*
X86951599Y-150851493D01*
X86892980Y-150756196D01*
X86814883Y-150668170D01*
X86719685Y-150589017D01*
X86609762Y-150520340D01*
X86487490Y-150463741D01*
X86355245Y-150420821D01*
X86290578Y-150405882D01*
X86154396Y-150383777D01*
X86005951Y-150369194D01*
X85854495Y-150362813D01*
X85727936Y-150364445D01*
X85566050Y-150371224D01*
X85573470Y-150312245D01*
X85592762Y-150213092D01*
X85623896Y-150132372D01*
X85667731Y-150069466D01*
X85725129Y-150023756D01*
X85796952Y-149994622D01*
X85884059Y-149981447D01*
X85987314Y-149983611D01*
X86025289Y-149987612D01*
X86166480Y-150012780D01*
X86303293Y-150053814D01*
X86397822Y-150091815D01*
X86442982Y-150111190D01*
X86481415Y-150126760D01*
X86507766Y-150136405D01*
X86515454Y-150138452D01*
X86525198Y-150129374D01*
X86541917Y-150100405D01*
X86565768Y-150051217D01*
X86596907Y-149981484D01*
X86635493Y-149890879D01*
X86642090Y-149875089D01*
X86672147Y-149802772D01*
X86699126Y-149737425D01*
X86721864Y-149681906D01*
X86739194Y-149639072D01*
X86749952Y-149611781D01*
X86753059Y-149602942D01*
X86743060Y-149598187D01*
X86716783Y-149592910D01*
X86688511Y-149589231D01*
X86658354Y-149584474D01*
X86610567Y-149575028D01*
X86549388Y-149561820D01*
X86479054Y-149545776D01*
X86403806Y-149527820D01*
X86375245Y-149520797D01*
X86270184Y-149495209D01*
X86182520Y-149475147D01*
X86107932Y-149459969D01*
X86042097Y-149449035D01*
X85980693Y-149441704D01*
X85919398Y-149437335D01*
X85853890Y-149435287D01*
X85795872Y-149434889D01*
X85626426Y-149441552D01*
G37*
X85626426Y-149441552D02*
X85474508Y-149461567D01*
X85339244Y-149495202D01*
X85219761Y-149542725D01*
X85115185Y-149604405D01*
X85037576Y-149667965D01*
X84968735Y-149742099D01*
X84914994Y-149821871D01*
X84872090Y-149914091D01*
X84856616Y-149957161D01*
X84843756Y-149996142D01*
X84832554Y-150032289D01*
X84822880Y-150067434D01*
X84814604Y-150103410D01*
X84807597Y-150142050D01*
X84801728Y-150185185D01*
X84796869Y-150234649D01*
X84792890Y-150292273D01*
X84789660Y-150359891D01*
X84787051Y-150439334D01*
X84784933Y-150532436D01*
X84783176Y-150641027D01*
X84781651Y-150766942D01*
X84780228Y-150912012D01*
X84778975Y-151054778D01*
X84777649Y-151210968D01*
X84776444Y-151346239D01*
X84775234Y-151462246D01*
X84773894Y-151560645D01*
X84772300Y-151643093D01*
X84770325Y-151711246D01*
X84767844Y-151766760D01*
X84764731Y-151811292D01*
X84760862Y-151846498D01*
X84756111Y-151874034D01*
X84750352Y-151895556D01*
X84743461Y-151912722D01*
X84735311Y-151927186D01*
X84725777Y-151940606D01*
X84714734Y-151954638D01*
X84710434Y-151960071D01*
X84694614Y-151982910D01*
X84687578Y-151998463D01*
X84687556Y-151998922D01*
X84698433Y-152001121D01*
X84729418Y-152003147D01*
X84778043Y-152004942D01*
X84841837Y-152006451D01*
X84918331Y-152007616D01*
X85005056Y-152008380D01*
X85099543Y-152008686D01*
X85110450Y-152008689D01*
X85533343Y-152008689D01*
X85536605Y-151912622D01*
X85539867Y-151816556D01*
X85601956Y-151867543D01*
X85699286Y-151935057D01*
X85809187Y-151989749D01*
X85895651Y-152019978D01*
X85964722Y-152034666D01*
X86048075Y-152044659D01*
X86137841Y-152049646D01*
X86226155Y-152049313D01*
X86305149Y-152043351D01*
X86341378Y-152037638D01*
X86481397Y-151999776D01*
X86607822Y-151944932D01*
X86719740Y-151873924D01*
X86816238Y-151787568D01*
X86896400Y-151686679D01*
X86959313Y-151572076D01*
X87003688Y-151445984D01*
X87016022Y-151389401D01*
X87023632Y-151327202D01*
X87027261Y-151252363D01*
X87027755Y-151218467D01*
X87027690Y-151215282D01*
X86267752Y-151215282D01*
X86258459Y-151290333D01*
X86230272Y-151354160D01*
X86181803Y-151409798D01*
X86176746Y-151414211D01*
X86128452Y-151449037D01*
X86076743Y-151471620D01*
X86016011Y-151483540D01*
X85940648Y-151486383D01*
X85922541Y-151485978D01*
X85868722Y-151483325D01*
X85828692Y-151477909D01*
X85793676Y-151467745D01*
X85754897Y-151450850D01*
X85744255Y-151445672D01*
X85683604Y-151409844D01*
X85636785Y-151367212D01*
X85624048Y-151351973D01*
X85579378Y-151295462D01*
X85579378Y-151099586D01*
X85579914Y-151020939D01*
X85581604Y-150962988D01*
X85584572Y-150923875D01*
X85588943Y-150901741D01*
X85593028Y-150895274D01*
X85608953Y-150892111D01*
X85642736Y-150889488D01*
X85689660Y-150887655D01*
X85745007Y-150886857D01*
X85753894Y-150886842D01*
X85874670Y-150892096D01*
X85977340Y-150908263D01*
X86063894Y-150935961D01*
X86136319Y-150975808D01*
X86191249Y-151022758D01*
X86235796Y-151080645D01*
X86260520Y-151143693D01*
X86267752Y-151215282D01*
X87027690Y-151215282D01*
X87025822Y-151124712D01*
X87017478Y-151045812D01*
X87001232Y-150974590D01*
X86975595Y-150903864D01*
X86951599Y-150851493D01*
X86892980Y-150756196D01*
X86814883Y-150668170D01*
X86719685Y-150589017D01*
X86609762Y-150520340D01*
X86487490Y-150463741D01*
X86355245Y-150420821D01*
X86290578Y-150405882D01*
X86154396Y-150383777D01*
X86005951Y-150369194D01*
X85854495Y-150362813D01*
X85727936Y-150364445D01*
X85566050Y-150371224D01*
X85573470Y-150312245D01*
X85592762Y-150213092D01*
X85623896Y-150132372D01*
X85667731Y-150069466D01*
X85725129Y-150023756D01*
X85796952Y-149994622D01*
X85884059Y-149981447D01*
X85987314Y-149983611D01*
X86025289Y-149987612D01*
X86166480Y-150012780D01*
X86303293Y-150053814D01*
X86397822Y-150091815D01*
X86442982Y-150111190D01*
X86481415Y-150126760D01*
X86507766Y-150136405D01*
X86515454Y-150138452D01*
X86525198Y-150129374D01*
X86541917Y-150100405D01*
X86565768Y-150051217D01*
X86596907Y-149981484D01*
X86635493Y-149890879D01*
X86642090Y-149875089D01*
X86672147Y-149802772D01*
X86699126Y-149737425D01*
X86721864Y-149681906D01*
X86739194Y-149639072D01*
X86749952Y-149611781D01*
X86753059Y-149602942D01*
X86743060Y-149598187D01*
X86716783Y-149592910D01*
X86688511Y-149589231D01*
X86658354Y-149584474D01*
X86610567Y-149575028D01*
X86549388Y-149561820D01*
X86479054Y-149545776D01*
X86403806Y-149527820D01*
X86375245Y-149520797D01*
X86270184Y-149495209D01*
X86182520Y-149475147D01*
X86107932Y-149459969D01*
X86042097Y-149449035D01*
X85980693Y-149441704D01*
X85919398Y-149437335D01*
X85853890Y-149435287D01*
X85795872Y-149434889D01*
X85626426Y-149441552D01*
G36*
X82113493Y-150047245D02*
G01*
X82113474Y-150281662D01*
X82113448Y-150494603D01*
X82113375Y-150687168D01*
X82113218Y-150860459D01*
X82112936Y-151015576D01*
X82112491Y-151153620D01*
X82111844Y-151275692D01*
X82110955Y-151382894D01*
X82109787Y-151476326D01*
X82108299Y-151557090D01*
X82106454Y-151626286D01*
X82104211Y-151685015D01*
X82101531Y-151734379D01*
X82098377Y-151775478D01*
X82094708Y-151809413D01*
X82090487Y-151837286D01*
X82085673Y-151860198D01*
X82080227Y-151879249D01*
X82074112Y-151895540D01*
X82067288Y-151910173D01*
X82059715Y-151924249D01*
X82051355Y-151938868D01*
X82046161Y-151947974D01*
X82011896Y-152008689D01*
X82870045Y-152008689D01*
X82870045Y-151912733D01*
X82870776Y-151869370D01*
X82872728Y-151836205D01*
X82875537Y-151818424D01*
X82876779Y-151816778D01*
X82888201Y-151823662D01*
X82910916Y-151841505D01*
X82933615Y-151860879D01*
X82988200Y-151901614D01*
X83057679Y-151942617D01*
X83134730Y-151980123D01*
X83212035Y-152010364D01*
X83242887Y-152020012D01*
X83311384Y-152034578D01*
X83394236Y-152044539D01*
X83483629Y-152049583D01*
X83571752Y-152049396D01*
X83650793Y-152043666D01*
X83688489Y-152037858D01*
X83826586Y-151999797D01*
X83953887Y-151942073D01*
X84069708Y-151865211D01*
X84173363Y-151769739D01*
X84264167Y-151656179D01*
X84330969Y-151545381D01*
X84385836Y-151428625D01*
X84427837Y-151309276D01*
X84457833Y-151183283D01*
X84476689Y-151046594D01*
X84485268Y-150895158D01*
X84485994Y-150817711D01*
X84483900Y-150760934D01*
X83654783Y-150760934D01*
X83654576Y-150854002D01*
X83651663Y-150941692D01*
X83646000Y-151018772D01*
X83637545Y-151080009D01*
X83634962Y-151092350D01*
X83603160Y-151199633D01*
X83561502Y-151286658D01*
X83509637Y-151353642D01*
X83447219Y-151400805D01*
X83373900Y-151428365D01*
X83289331Y-151436541D01*
X83193165Y-151425551D01*
X83129689Y-151409829D01*
X83080546Y-151391639D01*
X83026417Y-151365791D01*
X82985756Y-151342089D01*
X82915200Y-151295721D01*
X82915200Y-150145530D01*
X82982608Y-150101962D01*
X83061133Y-150061040D01*
X83145319Y-150034389D01*
X83230443Y-150022465D01*
X83311784Y-150025722D01*
X83384620Y-150044615D01*
X83416574Y-150060184D01*
X83474499Y-150103181D01*
X83523456Y-150159953D01*
X83564610Y-150232575D01*
X83599126Y-150323121D01*
X83628167Y-150433666D01*
X83629448Y-150439533D01*
X83639619Y-150501788D01*
X83647261Y-150579594D01*
X83652330Y-150667720D01*
X83654783Y-150760934D01*
X84483900Y-150760934D01*
X84478143Y-150604895D01*
X84456198Y-150409059D01*
X84420214Y-150230332D01*
X84370241Y-150068845D01*
X84306332Y-149924726D01*
X84228538Y-149798106D01*
X84136911Y-149689115D01*
X84031503Y-149597883D01*
X83986338Y-149566932D01*
X83885389Y-149510785D01*
X83782099Y-149471174D01*
X83672011Y-149447014D01*
X83550670Y-149437219D01*
X83458164Y-149438265D01*
X83328510Y-149449231D01*
X83215916Y-149471046D01*
X83117125Y-149504714D01*
X83028879Y-149551236D01*
X82980014Y-149585448D01*
X82950647Y-149607362D01*
X82928957Y-149622333D01*
X82920747Y-149626733D01*
X82919132Y-149615904D01*
X82917841Y-149585251D01*
X82916862Y-149537526D01*
X82916183Y-149475479D01*
X82915790Y-149401862D01*
X82915670Y-149319427D01*
X82915812Y-149230925D01*
X82916203Y-149139107D01*
X82916829Y-149046724D01*
X82917680Y-148956528D01*
X82918740Y-148871271D01*
X82919999Y-148793703D01*
X82921444Y-148726576D01*
X82923062Y-148672641D01*
X82924839Y-148634650D01*
X82925331Y-148627667D01*
X82932908Y-148557251D01*
X82944469Y-148502102D01*
X82962208Y-148454981D01*
X82988318Y-148408647D01*
X82994585Y-148399067D01*
X83019017Y-148362378D01*
X82113689Y-148362378D01*
X82113493Y-150047245D01*
G37*
X82113493Y-150047245D02*
X82113474Y-150281662D01*
X82113448Y-150494603D01*
X82113375Y-150687168D01*
X82113218Y-150860459D01*
X82112936Y-151015576D01*
X82112491Y-151153620D01*
X82111844Y-151275692D01*
X82110955Y-151382894D01*
X82109787Y-151476326D01*
X82108299Y-151557090D01*
X82106454Y-151626286D01*
X82104211Y-151685015D01*
X82101531Y-151734379D01*
X82098377Y-151775478D01*
X82094708Y-151809413D01*
X82090487Y-151837286D01*
X82085673Y-151860198D01*
X82080227Y-151879249D01*
X82074112Y-151895540D01*
X82067288Y-151910173D01*
X82059715Y-151924249D01*
X82051355Y-151938868D01*
X82046161Y-151947974D01*
X82011896Y-152008689D01*
X82870045Y-152008689D01*
X82870045Y-151912733D01*
X82870776Y-151869370D01*
X82872728Y-151836205D01*
X82875537Y-151818424D01*
X82876779Y-151816778D01*
X82888201Y-151823662D01*
X82910916Y-151841505D01*
X82933615Y-151860879D01*
X82988200Y-151901614D01*
X83057679Y-151942617D01*
X83134730Y-151980123D01*
X83212035Y-152010364D01*
X83242887Y-152020012D01*
X83311384Y-152034578D01*
X83394236Y-152044539D01*
X83483629Y-152049583D01*
X83571752Y-152049396D01*
X83650793Y-152043666D01*
X83688489Y-152037858D01*
X83826586Y-151999797D01*
X83953887Y-151942073D01*
X84069708Y-151865211D01*
X84173363Y-151769739D01*
X84264167Y-151656179D01*
X84330969Y-151545381D01*
X84385836Y-151428625D01*
X84427837Y-151309276D01*
X84457833Y-151183283D01*
X84476689Y-151046594D01*
X84485268Y-150895158D01*
X84485994Y-150817711D01*
X84483900Y-150760934D01*
X83654783Y-150760934D01*
X83654576Y-150854002D01*
X83651663Y-150941692D01*
X83646000Y-151018772D01*
X83637545Y-151080009D01*
X83634962Y-151092350D01*
X83603160Y-151199633D01*
X83561502Y-151286658D01*
X83509637Y-151353642D01*
X83447219Y-151400805D01*
X83373900Y-151428365D01*
X83289331Y-151436541D01*
X83193165Y-151425551D01*
X83129689Y-151409829D01*
X83080546Y-151391639D01*
X83026417Y-151365791D01*
X82985756Y-151342089D01*
X82915200Y-151295721D01*
X82915200Y-150145530D01*
X82982608Y-150101962D01*
X83061133Y-150061040D01*
X83145319Y-150034389D01*
X83230443Y-150022465D01*
X83311784Y-150025722D01*
X83384620Y-150044615D01*
X83416574Y-150060184D01*
X83474499Y-150103181D01*
X83523456Y-150159953D01*
X83564610Y-150232575D01*
X83599126Y-150323121D01*
X83628167Y-150433666D01*
X83629448Y-150439533D01*
X83639619Y-150501788D01*
X83647261Y-150579594D01*
X83652330Y-150667720D01*
X83654783Y-150760934D01*
X84483900Y-150760934D01*
X84478143Y-150604895D01*
X84456198Y-150409059D01*
X84420214Y-150230332D01*
X84370241Y-150068845D01*
X84306332Y-149924726D01*
X84228538Y-149798106D01*
X84136911Y-149689115D01*
X84031503Y-149597883D01*
X83986338Y-149566932D01*
X83885389Y-149510785D01*
X83782099Y-149471174D01*
X83672011Y-149447014D01*
X83550670Y-149437219D01*
X83458164Y-149438265D01*
X83328510Y-149449231D01*
X83215916Y-149471046D01*
X83117125Y-149504714D01*
X83028879Y-149551236D01*
X82980014Y-149585448D01*
X82950647Y-149607362D01*
X82928957Y-149622333D01*
X82920747Y-149626733D01*
X82919132Y-149615904D01*
X82917841Y-149585251D01*
X82916862Y-149537526D01*
X82916183Y-149475479D01*
X82915790Y-149401862D01*
X82915670Y-149319427D01*
X82915812Y-149230925D01*
X82916203Y-149139107D01*
X82916829Y-149046724D01*
X82917680Y-148956528D01*
X82918740Y-148871271D01*
X82919999Y-148793703D01*
X82921444Y-148726576D01*
X82923062Y-148672641D01*
X82924839Y-148634650D01*
X82925331Y-148627667D01*
X82932908Y-148557251D01*
X82944469Y-148502102D01*
X82962208Y-148454981D01*
X82988318Y-148408647D01*
X82994585Y-148399067D01*
X83019017Y-148362378D01*
X82113689Y-148362378D01*
X82113493Y-150047245D01*
G36*
X90573043Y-147601571D02*
G01*
X90476768Y-147625809D01*
X90390184Y-147668641D01*
X90315373Y-147728419D01*
X90254418Y-147803494D01*
X90209399Y-147892220D01*
X90183136Y-147988530D01*
X90177286Y-148085795D01*
X90192140Y-148179654D01*
X90225840Y-148267511D01*
X90276528Y-148346770D01*
X90342345Y-148414836D01*
X90421434Y-148469112D01*
X90511934Y-148507002D01*
X90563200Y-148519426D01*
X90607698Y-148526947D01*
X90641999Y-148529919D01*
X90674960Y-148528094D01*
X90715434Y-148521225D01*
X90748531Y-148514250D01*
X90841947Y-148482741D01*
X90925619Y-148431617D01*
X90997665Y-148362429D01*
X91056200Y-148276728D01*
X91070148Y-148249489D01*
X91086586Y-148213122D01*
X91096894Y-148182582D01*
X91102460Y-148150450D01*
X91104669Y-148109307D01*
X91104948Y-148063222D01*
X91100861Y-147978865D01*
X91087446Y-147909586D01*
X91062256Y-147848961D01*
X91022846Y-147790567D01*
X90984298Y-147746302D01*
X90912406Y-147680484D01*
X90837313Y-147635053D01*
X90754562Y-147607850D01*
X90676928Y-147597576D01*
X90573043Y-147601571D01*
G37*
X90573043Y-147601571D02*
X90476768Y-147625809D01*
X90390184Y-147668641D01*
X90315373Y-147728419D01*
X90254418Y-147803494D01*
X90209399Y-147892220D01*
X90183136Y-147988530D01*
X90177286Y-148085795D01*
X90192140Y-148179654D01*
X90225840Y-148267511D01*
X90276528Y-148346770D01*
X90342345Y-148414836D01*
X90421434Y-148469112D01*
X90511934Y-148507002D01*
X90563200Y-148519426D01*
X90607698Y-148526947D01*
X90641999Y-148529919D01*
X90674960Y-148528094D01*
X90715434Y-148521225D01*
X90748531Y-148514250D01*
X90841947Y-148482741D01*
X90925619Y-148431617D01*
X90997665Y-148362429D01*
X91056200Y-148276728D01*
X91070148Y-148249489D01*
X91086586Y-148213122D01*
X91096894Y-148182582D01*
X91102460Y-148150450D01*
X91104669Y-148109307D01*
X91104948Y-148063222D01*
X91100861Y-147978865D01*
X91087446Y-147909586D01*
X91062256Y-147848961D01*
X91022846Y-147790567D01*
X90984298Y-147746302D01*
X90912406Y-147680484D01*
X90837313Y-147635053D01*
X90754562Y-147607850D01*
X90676928Y-147597576D01*
X90573043Y-147601571D01*
G36*
X94421371Y-152844066D02*
G01*
X94381889Y-152844467D01*
X94266200Y-152847259D01*
X94169311Y-152855550D01*
X94087919Y-152870232D01*
X94018723Y-152892193D01*
X93958420Y-152922322D01*
X93903708Y-152961510D01*
X93884167Y-152978532D01*
X93851750Y-153018363D01*
X93822520Y-153072413D01*
X93799991Y-153132323D01*
X93787679Y-153189739D01*
X93786400Y-153210956D01*
X93794417Y-153269769D01*
X93815899Y-153334013D01*
X93846999Y-153394821D01*
X93883866Y-153443330D01*
X93889854Y-153449182D01*
X93940579Y-153490321D01*
X93996125Y-153522435D01*
X94059696Y-153546365D01*
X94134494Y-153562953D01*
X94223722Y-153573041D01*
X94330582Y-153577469D01*
X94379528Y-153577845D01*
X94441762Y-153577545D01*
X94485528Y-153576292D01*
X94514931Y-153573554D01*
X94534079Y-153568801D01*
X94547077Y-153561501D01*
X94554045Y-153555267D01*
X94560626Y-153547694D01*
X94565788Y-153537924D01*
X94569703Y-153523340D01*
X94572543Y-153501326D01*
X94574480Y-153469264D01*
X94575684Y-153424536D01*
X94576328Y-153364526D01*
X94576583Y-153286617D01*
X94576622Y-153210956D01*
X94576870Y-153110041D01*
X94576817Y-153029427D01*
X94575857Y-152990822D01*
X94429867Y-152990822D01*
X94429867Y-153431089D01*
X94336734Y-153431004D01*
X94280693Y-153429396D01*
X94221999Y-153425256D01*
X94173028Y-153419464D01*
X94171538Y-153419226D01*
X94092392Y-153400090D01*
X94031002Y-153370287D01*
X93984305Y-153327878D01*
X93954635Y-153281961D01*
X93936353Y-153231026D01*
X93937771Y-153183200D01*
X93958988Y-153131933D01*
X94000489Y-153078899D01*
X94057998Y-153039600D01*
X94132750Y-153013331D01*
X94182708Y-153004035D01*
X94239416Y-152997507D01*
X94299519Y-152992782D01*
X94350639Y-152990817D01*
X94353667Y-152990808D01*
X94429867Y-152990822D01*
X94575857Y-152990822D01*
X94575260Y-152966851D01*
X94570998Y-152920055D01*
X94562830Y-152886778D01*
X94549556Y-152864759D01*
X94529974Y-152851739D01*
X94502883Y-152845457D01*
X94467082Y-152843653D01*
X94421371Y-152844066D01*
G37*
X94421371Y-152844066D02*
X94381889Y-152844467D01*
X94266200Y-152847259D01*
X94169311Y-152855550D01*
X94087919Y-152870232D01*
X94018723Y-152892193D01*
X93958420Y-152922322D01*
X93903708Y-152961510D01*
X93884167Y-152978532D01*
X93851750Y-153018363D01*
X93822520Y-153072413D01*
X93799991Y-153132323D01*
X93787679Y-153189739D01*
X93786400Y-153210956D01*
X93794417Y-153269769D01*
X93815899Y-153334013D01*
X93846999Y-153394821D01*
X93883866Y-153443330D01*
X93889854Y-153449182D01*
X93940579Y-153490321D01*
X93996125Y-153522435D01*
X94059696Y-153546365D01*
X94134494Y-153562953D01*
X94223722Y-153573041D01*
X94330582Y-153577469D01*
X94379528Y-153577845D01*
X94441762Y-153577545D01*
X94485528Y-153576292D01*
X94514931Y-153573554D01*
X94534079Y-153568801D01*
X94547077Y-153561501D01*
X94554045Y-153555267D01*
X94560626Y-153547694D01*
X94565788Y-153537924D01*
X94569703Y-153523340D01*
X94572543Y-153501326D01*
X94574480Y-153469264D01*
X94575684Y-153424536D01*
X94576328Y-153364526D01*
X94576583Y-153286617D01*
X94576622Y-153210956D01*
X94576870Y-153110041D01*
X94576817Y-153029427D01*
X94575857Y-152990822D01*
X94429867Y-152990822D01*
X94429867Y-153431089D01*
X94336734Y-153431004D01*
X94280693Y-153429396D01*
X94221999Y-153425256D01*
X94173028Y-153419464D01*
X94171538Y-153419226D01*
X94092392Y-153400090D01*
X94031002Y-153370287D01*
X93984305Y-153327878D01*
X93954635Y-153281961D01*
X93936353Y-153231026D01*
X93937771Y-153183200D01*
X93958988Y-153131933D01*
X94000489Y-153078899D01*
X94057998Y-153039600D01*
X94132750Y-153013331D01*
X94182708Y-153004035D01*
X94239416Y-152997507D01*
X94299519Y-152992782D01*
X94350639Y-152990817D01*
X94353667Y-152990808D01*
X94429867Y-152990822D01*
X94575857Y-152990822D01*
X94575260Y-152966851D01*
X94570998Y-152920055D01*
X94562830Y-152886778D01*
X94549556Y-152864759D01*
X94529974Y-152851739D01*
X94502883Y-152845457D01*
X94467082Y-152843653D01*
X94421371Y-152844066D01*
G36*
X93012794Y-152844146D02*
G01*
X92943386Y-152844518D01*
X92890997Y-152845385D01*
X92852847Y-152846946D01*
X92826159Y-152849403D01*
X92808153Y-152852957D01*
X92796049Y-152857810D01*
X92787069Y-152864161D01*
X92783818Y-152867084D01*
X92764043Y-152898142D01*
X92760482Y-152933828D01*
X92773491Y-152965510D01*
X92779506Y-152971913D01*
X92789235Y-152978121D01*
X92804901Y-152982910D01*
X92829408Y-152986514D01*
X92865661Y-152989164D01*
X92916565Y-152991095D01*
X92985026Y-152992539D01*
X93047617Y-152993418D01*
X93295334Y-152996467D01*
X93298719Y-153061378D01*
X93302105Y-153126289D01*
X93133958Y-153126289D01*
X93060959Y-153126919D01*
X93007517Y-153129553D01*
X92970628Y-153135309D01*
X92947288Y-153145304D01*
X92934494Y-153160656D01*
X92929242Y-153182482D01*
X92928445Y-153202738D01*
X92930923Y-153227592D01*
X92940277Y-153245906D01*
X92959383Y-153258637D01*
X92991118Y-153266741D01*
X93038359Y-153271176D01*
X93103983Y-153272899D01*
X93139801Y-153273045D01*
X93300978Y-153273045D01*
X93300978Y-153431089D01*
X93052622Y-153431089D01*
X92971213Y-153431202D01*
X92909342Y-153431712D01*
X92863968Y-153432870D01*
X92832054Y-153434930D01*
X92810559Y-153438146D01*
X92796443Y-153442772D01*
X92786668Y-153449059D01*
X92781689Y-153453667D01*
X92764610Y-153480560D01*
X92759111Y-153504467D01*
X92766963Y-153533667D01*
X92781689Y-153555267D01*
X92789546Y-153562066D01*
X92799688Y-153567346D01*
X92814844Y-153571298D01*
X92837741Y-153574113D01*
X92871109Y-153575982D01*
X92917675Y-153577098D01*
X92980167Y-153577651D01*
X93061314Y-153577833D01*
X93103422Y-153577845D01*
X93193598Y-153577765D01*
X93263924Y-153577398D01*
X93317129Y-153576552D01*
X93355940Y-153575036D01*
X93383087Y-153572659D01*
X93401298Y-153569229D01*
X93413300Y-153564554D01*
X93421822Y-153558444D01*
X93425156Y-153555267D01*
X93431755Y-153547670D01*
X93436927Y-153537870D01*
X93440846Y-153523239D01*
X93443684Y-153501152D01*
X93445615Y-153468982D01*
X93446812Y-153424103D01*
X93447448Y-153363889D01*
X93447697Y-153285713D01*
X93447734Y-153212923D01*
X93447700Y-153119707D01*
X93447465Y-153046431D01*
X93446830Y-152990458D01*
X93445594Y-152949151D01*
X93443556Y-152919872D01*
X93440517Y-152899984D01*
X93436277Y-152886850D01*
X93430635Y-152877832D01*
X93423391Y-152870293D01*
X93421606Y-152868612D01*
X93412945Y-152861172D01*
X93402882Y-152855409D01*
X93388625Y-152851112D01*
X93367383Y-152848064D01*
X93336364Y-152846051D01*
X93292777Y-152844860D01*
X93233831Y-152844275D01*
X93156734Y-152844083D01*
X93102001Y-152844067D01*
X93012794Y-152844146D01*
G37*
X93012794Y-152844146D02*
X92943386Y-152844518D01*
X92890997Y-152845385D01*
X92852847Y-152846946D01*
X92826159Y-152849403D01*
X92808153Y-152852957D01*
X92796049Y-152857810D01*
X92787069Y-152864161D01*
X92783818Y-152867084D01*
X92764043Y-152898142D01*
X92760482Y-152933828D01*
X92773491Y-152965510D01*
X92779506Y-152971913D01*
X92789235Y-152978121D01*
X92804901Y-152982910D01*
X92829408Y-152986514D01*
X92865661Y-152989164D01*
X92916565Y-152991095D01*
X92985026Y-152992539D01*
X93047617Y-152993418D01*
X93295334Y-152996467D01*
X93298719Y-153061378D01*
X93302105Y-153126289D01*
X93133958Y-153126289D01*
X93060959Y-153126919D01*
X93007517Y-153129553D01*
X92970628Y-153135309D01*
X92947288Y-153145304D01*
X92934494Y-153160656D01*
X92929242Y-153182482D01*
X92928445Y-153202738D01*
X92930923Y-153227592D01*
X92940277Y-153245906D01*
X92959383Y-153258637D01*
X92991118Y-153266741D01*
X93038359Y-153271176D01*
X93103983Y-153272899D01*
X93139801Y-153273045D01*
X93300978Y-153273045D01*
X93300978Y-153431089D01*
X93052622Y-153431089D01*
X92971213Y-153431202D01*
X92909342Y-153431712D01*
X92863968Y-153432870D01*
X92832054Y-153434930D01*
X92810559Y-153438146D01*
X92796443Y-153442772D01*
X92786668Y-153449059D01*
X92781689Y-153453667D01*
X92764610Y-153480560D01*
X92759111Y-153504467D01*
X92766963Y-153533667D01*
X92781689Y-153555267D01*
X92789546Y-153562066D01*
X92799688Y-153567346D01*
X92814844Y-153571298D01*
X92837741Y-153574113D01*
X92871109Y-153575982D01*
X92917675Y-153577098D01*
X92980167Y-153577651D01*
X93061314Y-153577833D01*
X93103422Y-153577845D01*
X93193598Y-153577765D01*
X93263924Y-153577398D01*
X93317129Y-153576552D01*
X93355940Y-153575036D01*
X93383087Y-153572659D01*
X93401298Y-153569229D01*
X93413300Y-153564554D01*
X93421822Y-153558444D01*
X93425156Y-153555267D01*
X93431755Y-153547670D01*
X93436927Y-153537870D01*
X93440846Y-153523239D01*
X93443684Y-153501152D01*
X93445615Y-153468982D01*
X93446812Y-153424103D01*
X93447448Y-153363889D01*
X93447697Y-153285713D01*
X93447734Y-153212923D01*
X93447700Y-153119707D01*
X93447465Y-153046431D01*
X93446830Y-152990458D01*
X93445594Y-152949151D01*
X93443556Y-152919872D01*
X93440517Y-152899984D01*
X93436277Y-152886850D01*
X93430635Y-152877832D01*
X93423391Y-152870293D01*
X93421606Y-152868612D01*
X93412945Y-152861172D01*
X93402882Y-152855409D01*
X93388625Y-152851112D01*
X93367383Y-152848064D01*
X93336364Y-152846051D01*
X93292777Y-152844860D01*
X93233831Y-152844275D01*
X93156734Y-152844083D01*
X93102001Y-152844067D01*
X93012794Y-152844146D01*
G36*
X91991703Y-152845351D02*
G01*
X91916888Y-152850581D01*
X91847306Y-152858750D01*
X91787002Y-152869550D01*
X91740020Y-152882673D01*
X91710406Y-152897813D01*
X91705860Y-152902269D01*
X91690054Y-152936850D01*
X91694847Y-152972351D01*
X91719364Y-153002725D01*
X91720534Y-153003596D01*
X91734954Y-153012954D01*
X91750008Y-153017876D01*
X91771005Y-153018473D01*
X91803257Y-153014861D01*
X91852073Y-153007154D01*
X91856000Y-153006505D01*
X91928739Y-152997569D01*
X92007217Y-152993161D01*
X92085927Y-152993119D01*
X92159361Y-152997279D01*
X92222011Y-153005479D01*
X92268370Y-153017557D01*
X92271416Y-153018771D01*
X92305048Y-153037615D01*
X92316864Y-153056685D01*
X92307614Y-153075439D01*
X92278047Y-153093337D01*
X92228911Y-153109837D01*
X92160957Y-153124396D01*
X92115645Y-153131406D01*
X92021456Y-153144889D01*
X91946544Y-153157214D01*
X91887717Y-153169449D01*
X91841785Y-153182661D01*
X91805555Y-153197917D01*
X91775838Y-153216285D01*
X91749442Y-153238831D01*
X91728230Y-153260971D01*
X91703065Y-153291819D01*
X91690681Y-153318345D01*
X91686808Y-153351026D01*
X91686667Y-153362995D01*
X91689576Y-153402712D01*
X91701202Y-153432259D01*
X91721323Y-153458486D01*
X91762216Y-153498576D01*
X91807817Y-153529149D01*
X91861513Y-153551203D01*
X91926692Y-153565735D01*
X92006744Y-153573741D01*
X92105057Y-153576218D01*
X92121289Y-153576177D01*
X92186849Y-153574818D01*
X92251866Y-153571730D01*
X92309252Y-153567356D01*
X92351922Y-153562140D01*
X92355372Y-153561541D01*
X92397796Y-153551491D01*
X92433780Y-153538796D01*
X92454150Y-153527190D01*
X92473107Y-153496572D01*
X92474427Y-153460918D01*
X92458085Y-153429144D01*
X92454429Y-153425551D01*
X92439315Y-153414876D01*
X92420415Y-153410276D01*
X92391162Y-153411059D01*
X92355651Y-153415127D01*
X92315970Y-153418762D01*
X92260345Y-153421828D01*
X92195406Y-153424053D01*
X92127785Y-153425164D01*
X92110000Y-153425237D01*
X92042128Y-153424964D01*
X91992454Y-153423646D01*
X91956610Y-153420827D01*
X91930224Y-153416050D01*
X91908926Y-153408857D01*
X91896126Y-153402867D01*
X91868000Y-153386233D01*
X91850068Y-153371168D01*
X91847447Y-153366897D01*
X91852976Y-153349263D01*
X91879260Y-153332192D01*
X91924478Y-153316458D01*
X91986808Y-153302838D01*
X92005171Y-153299804D01*
X92101090Y-153284738D01*
X92177641Y-153272146D01*
X92237780Y-153261111D01*
X92284460Y-153250720D01*
X92320637Y-153240056D01*
X92349265Y-153228205D01*
X92373298Y-153214251D01*
X92395692Y-153197281D01*
X92419402Y-153176378D01*
X92427380Y-153169049D01*
X92455353Y-153141699D01*
X92470160Y-153120029D01*
X92475952Y-153095232D01*
X92476889Y-153063983D01*
X92466575Y-153002705D01*
X92435752Y-152950640D01*
X92384595Y-152907958D01*
X92313283Y-152874825D01*
X92262400Y-152859964D01*
X92207100Y-152850366D01*
X92140853Y-152844936D01*
X92067706Y-152843367D01*
X91991703Y-152845351D01*
G37*
X91991703Y-152845351D02*
X91916888Y-152850581D01*
X91847306Y-152858750D01*
X91787002Y-152869550D01*
X91740020Y-152882673D01*
X91710406Y-152897813D01*
X91705860Y-152902269D01*
X91690054Y-152936850D01*
X91694847Y-152972351D01*
X91719364Y-153002725D01*
X91720534Y-153003596D01*
X91734954Y-153012954D01*
X91750008Y-153017876D01*
X91771005Y-153018473D01*
X91803257Y-153014861D01*
X91852073Y-153007154D01*
X91856000Y-153006505D01*
X91928739Y-152997569D01*
X92007217Y-152993161D01*
X92085927Y-152993119D01*
X92159361Y-152997279D01*
X92222011Y-153005479D01*
X92268370Y-153017557D01*
X92271416Y-153018771D01*
X92305048Y-153037615D01*
X92316864Y-153056685D01*
X92307614Y-153075439D01*
X92278047Y-153093337D01*
X92228911Y-153109837D01*
X92160957Y-153124396D01*
X92115645Y-153131406D01*
X92021456Y-153144889D01*
X91946544Y-153157214D01*
X91887717Y-153169449D01*
X91841785Y-153182661D01*
X91805555Y-153197917D01*
X91775838Y-153216285D01*
X91749442Y-153238831D01*
X91728230Y-153260971D01*
X91703065Y-153291819D01*
X91690681Y-153318345D01*
X91686808Y-153351026D01*
X91686667Y-153362995D01*
X91689576Y-153402712D01*
X91701202Y-153432259D01*
X91721323Y-153458486D01*
X91762216Y-153498576D01*
X91807817Y-153529149D01*
X91861513Y-153551203D01*
X91926692Y-153565735D01*
X92006744Y-153573741D01*
X92105057Y-153576218D01*
X92121289Y-153576177D01*
X92186849Y-153574818D01*
X92251866Y-153571730D01*
X92309252Y-153567356D01*
X92351922Y-153562140D01*
X92355372Y-153561541D01*
X92397796Y-153551491D01*
X92433780Y-153538796D01*
X92454150Y-153527190D01*
X92473107Y-153496572D01*
X92474427Y-153460918D01*
X92458085Y-153429144D01*
X92454429Y-153425551D01*
X92439315Y-153414876D01*
X92420415Y-153410276D01*
X92391162Y-153411059D01*
X92355651Y-153415127D01*
X92315970Y-153418762D01*
X92260345Y-153421828D01*
X92195406Y-153424053D01*
X92127785Y-153425164D01*
X92110000Y-153425237D01*
X92042128Y-153424964D01*
X91992454Y-153423646D01*
X91956610Y-153420827D01*
X91930224Y-153416050D01*
X91908926Y-153408857D01*
X91896126Y-153402867D01*
X91868000Y-153386233D01*
X91850068Y-153371168D01*
X91847447Y-153366897D01*
X91852976Y-153349263D01*
X91879260Y-153332192D01*
X91924478Y-153316458D01*
X91986808Y-153302838D01*
X92005171Y-153299804D01*
X92101090Y-153284738D01*
X92177641Y-153272146D01*
X92237780Y-153261111D01*
X92284460Y-153250720D01*
X92320637Y-153240056D01*
X92349265Y-153228205D01*
X92373298Y-153214251D01*
X92395692Y-153197281D01*
X92419402Y-153176378D01*
X92427380Y-153169049D01*
X92455353Y-153141699D01*
X92470160Y-153120029D01*
X92475952Y-153095232D01*
X92476889Y-153063983D01*
X92466575Y-153002705D01*
X92435752Y-152950640D01*
X92384595Y-152907958D01*
X92313283Y-152874825D01*
X92262400Y-152859964D01*
X92207100Y-152850366D01*
X92140853Y-152844936D01*
X92067706Y-152843367D01*
X91991703Y-152845351D01*
G36*
X91223822Y-152866645D02*
G01*
X91217242Y-152874218D01*
X91212079Y-152883987D01*
X91208164Y-152898571D01*
X91205324Y-152920585D01*
X91203387Y-152952648D01*
X91202183Y-152997375D01*
X91201539Y-153057385D01*
X91201284Y-153135294D01*
X91201245Y-153210956D01*
X91201314Y-153304802D01*
X91201638Y-153378689D01*
X91202386Y-153435232D01*
X91203732Y-153477049D01*
X91205846Y-153506757D01*
X91208900Y-153526973D01*
X91213066Y-153540314D01*
X91218516Y-153549398D01*
X91223822Y-153555267D01*
X91256826Y-153574947D01*
X91291991Y-153573181D01*
X91323455Y-153551717D01*
X91330684Y-153543337D01*
X91336334Y-153533614D01*
X91340599Y-153519861D01*
X91343673Y-153499389D01*
X91345752Y-153469512D01*
X91347030Y-153427541D01*
X91347701Y-153370789D01*
X91347959Y-153296567D01*
X91348000Y-153212537D01*
X91348000Y-152899485D01*
X91320291Y-152871776D01*
X91286137Y-152848463D01*
X91253006Y-152847623D01*
X91223822Y-152866645D01*
G37*
X91223822Y-152866645D02*
X91217242Y-152874218D01*
X91212079Y-152883987D01*
X91208164Y-152898571D01*
X91205324Y-152920585D01*
X91203387Y-152952648D01*
X91202183Y-152997375D01*
X91201539Y-153057385D01*
X91201284Y-153135294D01*
X91201245Y-153210956D01*
X91201314Y-153304802D01*
X91201638Y-153378689D01*
X91202386Y-153435232D01*
X91203732Y-153477049D01*
X91205846Y-153506757D01*
X91208900Y-153526973D01*
X91213066Y-153540314D01*
X91218516Y-153549398D01*
X91223822Y-153555267D01*
X91256826Y-153574947D01*
X91291991Y-153573181D01*
X91323455Y-153551717D01*
X91330684Y-153543337D01*
X91336334Y-153533614D01*
X91340599Y-153519861D01*
X91343673Y-153499389D01*
X91345752Y-153469512D01*
X91347030Y-153427541D01*
X91347701Y-153370789D01*
X91347959Y-153296567D01*
X91348000Y-153212537D01*
X91348000Y-152899485D01*
X91320291Y-152871776D01*
X91286137Y-152848463D01*
X91253006Y-152847623D01*
X91223822Y-152866645D01*
G36*
X90250081Y-152849599D02*
G01*
X90181565Y-152861095D01*
X90128943Y-152878967D01*
X90094708Y-152902499D01*
X90085379Y-152915924D01*
X90075893Y-152947148D01*
X90082277Y-152975395D01*
X90102430Y-153002182D01*
X90133745Y-153014713D01*
X90179183Y-153013696D01*
X90214326Y-153006906D01*
X90292419Y-152993971D01*
X90372226Y-152992742D01*
X90461555Y-153003241D01*
X90486229Y-153007690D01*
X90569291Y-153031108D01*
X90634273Y-153065945D01*
X90680461Y-153111604D01*
X90707145Y-153167494D01*
X90712663Y-153196388D01*
X90709051Y-153255012D01*
X90685729Y-153306879D01*
X90644824Y-153350978D01*
X90588459Y-153386299D01*
X90518760Y-153411829D01*
X90437852Y-153426559D01*
X90347860Y-153429478D01*
X90250910Y-153419575D01*
X90245436Y-153418641D01*
X90206875Y-153411459D01*
X90185494Y-153404521D01*
X90176227Y-153394227D01*
X90174006Y-153376976D01*
X90173956Y-153367841D01*
X90173956Y-153329489D01*
X90242431Y-153329489D01*
X90302900Y-153325347D01*
X90344165Y-153312147D01*
X90368175Y-153288730D01*
X90376877Y-153253936D01*
X90376983Y-153249394D01*
X90371892Y-153219654D01*
X90354433Y-153198419D01*
X90321939Y-153184366D01*
X90271743Y-153176173D01*
X90223123Y-153173161D01*
X90152456Y-153171433D01*
X90101198Y-153174070D01*
X90066239Y-153183800D01*
X90044470Y-153203353D01*
X90032780Y-153235456D01*
X90028060Y-153282838D01*
X90027200Y-153345071D01*
X90028609Y-153414535D01*
X90032848Y-153461786D01*
X90039936Y-153487012D01*
X90041311Y-153488988D01*
X90080228Y-153520508D01*
X90137286Y-153545470D01*
X90208869Y-153563340D01*
X90291358Y-153573586D01*
X90381139Y-153575673D01*
X90474592Y-153569068D01*
X90529556Y-153560956D01*
X90615766Y-153536554D01*
X90695892Y-153496662D01*
X90762977Y-153444887D01*
X90773173Y-153434539D01*
X90806302Y-153391035D01*
X90836194Y-153337118D01*
X90859357Y-153280592D01*
X90872298Y-153229259D01*
X90873858Y-153209544D01*
X90867218Y-153168419D01*
X90849568Y-153117252D01*
X90824297Y-153063394D01*
X90794789Y-153014195D01*
X90768719Y-152981334D01*
X90707765Y-152932452D01*
X90628969Y-152893545D01*
X90535157Y-152865494D01*
X90429150Y-152849179D01*
X90332000Y-152845192D01*
X90250081Y-152849599D01*
G37*
X90250081Y-152849599D02*
X90181565Y-152861095D01*
X90128943Y-152878967D01*
X90094708Y-152902499D01*
X90085379Y-152915924D01*
X90075893Y-152947148D01*
X90082277Y-152975395D01*
X90102430Y-153002182D01*
X90133745Y-153014713D01*
X90179183Y-153013696D01*
X90214326Y-153006906D01*
X90292419Y-152993971D01*
X90372226Y-152992742D01*
X90461555Y-153003241D01*
X90486229Y-153007690D01*
X90569291Y-153031108D01*
X90634273Y-153065945D01*
X90680461Y-153111604D01*
X90707145Y-153167494D01*
X90712663Y-153196388D01*
X90709051Y-153255012D01*
X90685729Y-153306879D01*
X90644824Y-153350978D01*
X90588459Y-153386299D01*
X90518760Y-153411829D01*
X90437852Y-153426559D01*
X90347860Y-153429478D01*
X90250910Y-153419575D01*
X90245436Y-153418641D01*
X90206875Y-153411459D01*
X90185494Y-153404521D01*
X90176227Y-153394227D01*
X90174006Y-153376976D01*
X90173956Y-153367841D01*
X90173956Y-153329489D01*
X90242431Y-153329489D01*
X90302900Y-153325347D01*
X90344165Y-153312147D01*
X90368175Y-153288730D01*
X90376877Y-153253936D01*
X90376983Y-153249394D01*
X90371892Y-153219654D01*
X90354433Y-153198419D01*
X90321939Y-153184366D01*
X90271743Y-153176173D01*
X90223123Y-153173161D01*
X90152456Y-153171433D01*
X90101198Y-153174070D01*
X90066239Y-153183800D01*
X90044470Y-153203353D01*
X90032780Y-153235456D01*
X90028060Y-153282838D01*
X90027200Y-153345071D01*
X90028609Y-153414535D01*
X90032848Y-153461786D01*
X90039936Y-153487012D01*
X90041311Y-153488988D01*
X90080228Y-153520508D01*
X90137286Y-153545470D01*
X90208869Y-153563340D01*
X90291358Y-153573586D01*
X90381139Y-153575673D01*
X90474592Y-153569068D01*
X90529556Y-153560956D01*
X90615766Y-153536554D01*
X90695892Y-153496662D01*
X90762977Y-153444887D01*
X90773173Y-153434539D01*
X90806302Y-153391035D01*
X90836194Y-153337118D01*
X90859357Y-153280592D01*
X90872298Y-153229259D01*
X90873858Y-153209544D01*
X90867218Y-153168419D01*
X90849568Y-153117252D01*
X90824297Y-153063394D01*
X90794789Y-153014195D01*
X90768719Y-152981334D01*
X90707765Y-152932452D01*
X90628969Y-152893545D01*
X90535157Y-152865494D01*
X90429150Y-152849179D01*
X90332000Y-152845192D01*
X90250081Y-152849599D01*
G36*
X89600114Y-152848448D02*
G01*
X89576548Y-152862273D01*
X89545735Y-152884881D01*
X89506078Y-152917338D01*
X89455980Y-152960708D01*
X89393843Y-153016058D01*
X89318072Y-153084451D01*
X89231334Y-153163084D01*
X89050711Y-153326878D01*
X89045067Y-153107029D01*
X89043029Y-153031351D01*
X89041063Y-152974994D01*
X89038734Y-152934706D01*
X89035606Y-152907235D01*
X89031245Y-152889329D01*
X89025216Y-152877737D01*
X89017084Y-152869208D01*
X89012772Y-152865623D01*
X88978241Y-152846670D01*
X88945383Y-152849441D01*
X88919318Y-152865633D01*
X88892667Y-152887199D01*
X88889352Y-153202151D01*
X88888435Y-153294779D01*
X88887968Y-153367544D01*
X88888113Y-153423161D01*
X88889032Y-153464342D01*
X88890887Y-153493803D01*
X88893839Y-153514255D01*
X88898050Y-153528413D01*
X88903682Y-153538991D01*
X88909927Y-153547474D01*
X88923439Y-153563207D01*
X88936883Y-153573636D01*
X88952124Y-153577639D01*
X88971026Y-153574094D01*
X88995455Y-153561879D01*
X89027273Y-153539871D01*
X89068348Y-153506949D01*
X89120542Y-153461991D01*
X89185722Y-153403875D01*
X89259556Y-153337099D01*
X89524845Y-153096458D01*
X89530489Y-153315589D01*
X89532531Y-153391128D01*
X89534502Y-153447354D01*
X89536839Y-153487524D01*
X89539981Y-153514896D01*
X89544364Y-153532728D01*
X89550424Y-153544279D01*
X89558600Y-153552807D01*
X89562784Y-153556282D01*
X89599765Y-153575372D01*
X89634708Y-153572493D01*
X89665136Y-153548100D01*
X89672097Y-153538286D01*
X89677523Y-153526826D01*
X89681603Y-153510968D01*
X89684529Y-153487963D01*
X89686492Y-153455062D01*
X89687683Y-153409516D01*
X89688292Y-153348573D01*
X89688511Y-153269486D01*
X89688534Y-153210956D01*
X89688460Y-153119407D01*
X89688113Y-153047687D01*
X89687301Y-152993045D01*
X89685833Y-152952732D01*
X89683519Y-152923998D01*
X89680167Y-152904093D01*
X89675588Y-152890268D01*
X89669589Y-152879772D01*
X89665136Y-152873811D01*
X89653850Y-152859691D01*
X89643301Y-152849029D01*
X89631893Y-152842892D01*
X89618030Y-152842343D01*
X89600114Y-152848448D01*
G37*
X89600114Y-152848448D02*
X89576548Y-152862273D01*
X89545735Y-152884881D01*
X89506078Y-152917338D01*
X89455980Y-152960708D01*
X89393843Y-153016058D01*
X89318072Y-153084451D01*
X89231334Y-153163084D01*
X89050711Y-153326878D01*
X89045067Y-153107029D01*
X89043029Y-153031351D01*
X89041063Y-152974994D01*
X89038734Y-152934706D01*
X89035606Y-152907235D01*
X89031245Y-152889329D01*
X89025216Y-152877737D01*
X89017084Y-152869208D01*
X89012772Y-152865623D01*
X88978241Y-152846670D01*
X88945383Y-152849441D01*
X88919318Y-152865633D01*
X88892667Y-152887199D01*
X88889352Y-153202151D01*
X88888435Y-153294779D01*
X88887968Y-153367544D01*
X88888113Y-153423161D01*
X88889032Y-153464342D01*
X88890887Y-153493803D01*
X88893839Y-153514255D01*
X88898050Y-153528413D01*
X88903682Y-153538991D01*
X88909927Y-153547474D01*
X88923439Y-153563207D01*
X88936883Y-153573636D01*
X88952124Y-153577639D01*
X88971026Y-153574094D01*
X88995455Y-153561879D01*
X89027273Y-153539871D01*
X89068348Y-153506949D01*
X89120542Y-153461991D01*
X89185722Y-153403875D01*
X89259556Y-153337099D01*
X89524845Y-153096458D01*
X89530489Y-153315589D01*
X89532531Y-153391128D01*
X89534502Y-153447354D01*
X89536839Y-153487524D01*
X89539981Y-153514896D01*
X89544364Y-153532728D01*
X89550424Y-153544279D01*
X89558600Y-153552807D01*
X89562784Y-153556282D01*
X89599765Y-153575372D01*
X89634708Y-153572493D01*
X89665136Y-153548100D01*
X89672097Y-153538286D01*
X89677523Y-153526826D01*
X89681603Y-153510968D01*
X89684529Y-153487963D01*
X89686492Y-153455062D01*
X89687683Y-153409516D01*
X89688292Y-153348573D01*
X89688511Y-153269486D01*
X89688534Y-153210956D01*
X89688460Y-153119407D01*
X89688113Y-153047687D01*
X89687301Y-152993045D01*
X89685833Y-152952732D01*
X89683519Y-152923998D01*
X89680167Y-152904093D01*
X89675588Y-152890268D01*
X89669589Y-152879772D01*
X89665136Y-152873811D01*
X89653850Y-152859691D01*
X89643301Y-152849029D01*
X89631893Y-152842892D01*
X89618030Y-152842343D01*
X89600114Y-152848448D01*
G36*
X88069657Y-152844260D02*
G01*
X87993299Y-152845174D01*
X87934783Y-152847311D01*
X87891745Y-152851175D01*
X87861817Y-152857267D01*
X87842632Y-152866090D01*
X87831824Y-152878146D01*
X87827027Y-152893939D01*
X87825873Y-152913970D01*
X87825867Y-152916335D01*
X87826869Y-152938992D01*
X87831604Y-152956503D01*
X87842667Y-152969574D01*
X87862652Y-152978913D01*
X87894154Y-152985227D01*
X87939768Y-152989222D01*
X88002087Y-152991606D01*
X88083707Y-152993086D01*
X88108723Y-152993414D01*
X88350800Y-152996467D01*
X88354186Y-153061378D01*
X88357571Y-153126289D01*
X88189424Y-153126289D01*
X88123734Y-153126531D01*
X88076828Y-153127556D01*
X88044917Y-153129811D01*
X88024209Y-153133742D01*
X88010916Y-153139798D01*
X88001245Y-153148424D01*
X88001183Y-153148493D01*
X87983644Y-153182112D01*
X87984278Y-153218448D01*
X88002686Y-153249423D01*
X88006329Y-153252607D01*
X88019259Y-153260812D01*
X88036976Y-153266521D01*
X88063430Y-153270162D01*
X88102568Y-153272167D01*
X88158338Y-153272964D01*
X88194006Y-153273045D01*
X88356445Y-153273045D01*
X88356445Y-153431089D01*
X88109839Y-153431089D01*
X88028420Y-153431231D01*
X87966590Y-153431814D01*
X87921363Y-153433068D01*
X87889752Y-153435227D01*
X87868769Y-153438523D01*
X87855427Y-153443189D01*
X87846739Y-153449457D01*
X87844550Y-153451733D01*
X87828386Y-153483280D01*
X87827203Y-153519168D01*
X87840464Y-153550285D01*
X87850957Y-153560271D01*
X87861871Y-153565769D01*
X87878783Y-153570022D01*
X87904367Y-153573180D01*
X87941299Y-153575392D01*
X87992254Y-153576806D01*
X88059906Y-153577572D01*
X88146931Y-153577838D01*
X88166606Y-153577845D01*
X88255089Y-153577787D01*
X88323773Y-153577467D01*
X88375436Y-153576667D01*
X88412855Y-153575167D01*
X88438810Y-153572749D01*
X88456078Y-153569194D01*
X88467438Y-153564282D01*
X88475668Y-153557795D01*
X88480183Y-153553138D01*
X88486979Y-153544889D01*
X88492288Y-153534669D01*
X88496294Y-153519800D01*
X88499179Y-153497602D01*
X88501126Y-153465393D01*
X88502319Y-153420496D01*
X88502939Y-153360228D01*
X88503171Y-153281911D01*
X88503200Y-153215994D01*
X88503129Y-153123628D01*
X88502792Y-153051117D01*
X88502002Y-152995737D01*
X88500574Y-152954765D01*
X88498321Y-152925478D01*
X88495057Y-152905153D01*
X88490596Y-152891066D01*
X88484752Y-152880495D01*
X88479803Y-152873811D01*
X88456406Y-152844067D01*
X88166226Y-152844067D01*
X88069657Y-152844260D01*
G37*
X88069657Y-152844260D02*
X87993299Y-152845174D01*
X87934783Y-152847311D01*
X87891745Y-152851175D01*
X87861817Y-152857267D01*
X87842632Y-152866090D01*
X87831824Y-152878146D01*
X87827027Y-152893939D01*
X87825873Y-152913970D01*
X87825867Y-152916335D01*
X87826869Y-152938992D01*
X87831604Y-152956503D01*
X87842667Y-152969574D01*
X87862652Y-152978913D01*
X87894154Y-152985227D01*
X87939768Y-152989222D01*
X88002087Y-152991606D01*
X88083707Y-152993086D01*
X88108723Y-152993414D01*
X88350800Y-152996467D01*
X88354186Y-153061378D01*
X88357571Y-153126289D01*
X88189424Y-153126289D01*
X88123734Y-153126531D01*
X88076828Y-153127556D01*
X88044917Y-153129811D01*
X88024209Y-153133742D01*
X88010916Y-153139798D01*
X88001245Y-153148424D01*
X88001183Y-153148493D01*
X87983644Y-153182112D01*
X87984278Y-153218448D01*
X88002686Y-153249423D01*
X88006329Y-153252607D01*
X88019259Y-153260812D01*
X88036976Y-153266521D01*
X88063430Y-153270162D01*
X88102568Y-153272167D01*
X88158338Y-153272964D01*
X88194006Y-153273045D01*
X88356445Y-153273045D01*
X88356445Y-153431089D01*
X88109839Y-153431089D01*
X88028420Y-153431231D01*
X87966590Y-153431814D01*
X87921363Y-153433068D01*
X87889752Y-153435227D01*
X87868769Y-153438523D01*
X87855427Y-153443189D01*
X87846739Y-153449457D01*
X87844550Y-153451733D01*
X87828386Y-153483280D01*
X87827203Y-153519168D01*
X87840464Y-153550285D01*
X87850957Y-153560271D01*
X87861871Y-153565769D01*
X87878783Y-153570022D01*
X87904367Y-153573180D01*
X87941299Y-153575392D01*
X87992254Y-153576806D01*
X88059906Y-153577572D01*
X88146931Y-153577838D01*
X88166606Y-153577845D01*
X88255089Y-153577787D01*
X88323773Y-153577467D01*
X88375436Y-153576667D01*
X88412855Y-153575167D01*
X88438810Y-153572749D01*
X88456078Y-153569194D01*
X88467438Y-153564282D01*
X88475668Y-153557795D01*
X88480183Y-153553138D01*
X88486979Y-153544889D01*
X88492288Y-153534669D01*
X88496294Y-153519800D01*
X88499179Y-153497602D01*
X88501126Y-153465393D01*
X88502319Y-153420496D01*
X88502939Y-153360228D01*
X88503171Y-153281911D01*
X88503200Y-153215994D01*
X88503129Y-153123628D01*
X88502792Y-153051117D01*
X88502002Y-152995737D01*
X88500574Y-152954765D01*
X88498321Y-152925478D01*
X88495057Y-152905153D01*
X88490596Y-152891066D01*
X88484752Y-152880495D01*
X88479803Y-152873811D01*
X88456406Y-152844067D01*
X88166226Y-152844067D01*
X88069657Y-152844260D01*
G36*
X87281691Y-152844275D02*
G01*
X87152712Y-152848636D01*
X87043009Y-152861861D01*
X86950774Y-152884741D01*
X86874198Y-152918070D01*
X86811473Y-152962638D01*
X86760788Y-153019236D01*
X86720337Y-153088658D01*
X86719541Y-153090351D01*
X86695399Y-153152483D01*
X86686797Y-153207509D01*
X86693769Y-153262887D01*
X86716346Y-153326073D01*
X86720628Y-153335689D01*
X86749828Y-153391966D01*
X86782644Y-153435451D01*
X86824998Y-153472417D01*
X86882810Y-153509135D01*
X86886169Y-153511052D01*
X86936496Y-153535227D01*
X86993379Y-153553282D01*
X87060473Y-153565839D01*
X87141435Y-153573522D01*
X87239918Y-153576953D01*
X87274714Y-153577251D01*
X87440406Y-153577845D01*
X87463803Y-153548100D01*
X87470743Y-153538319D01*
X87476158Y-153526897D01*
X87480235Y-153511095D01*
X87483163Y-153488175D01*
X87485133Y-153455396D01*
X87485775Y-153431089D01*
X87329156Y-153431089D01*
X87235274Y-153431089D01*
X87180336Y-153429483D01*
X87123940Y-153425255D01*
X87077655Y-153419292D01*
X87074861Y-153418790D01*
X86992652Y-153396736D01*
X86928886Y-153363600D01*
X86881548Y-153317847D01*
X86848618Y-153257939D01*
X86842892Y-153242061D01*
X86837279Y-153217333D01*
X86839709Y-153192902D01*
X86851533Y-153160400D01*
X86858660Y-153144434D01*
X86882000Y-153102006D01*
X86910120Y-153072240D01*
X86941060Y-153051511D01*
X87003034Y-153024537D01*
X87082349Y-153004998D01*
X87174747Y-152993746D01*
X87241667Y-152991270D01*
X87329156Y-152990822D01*
X87329156Y-153431089D01*
X87485775Y-153431089D01*
X87486332Y-153410021D01*
X87486950Y-153349311D01*
X87487175Y-153270526D01*
X87487200Y-153208920D01*
X87487200Y-152899485D01*
X87459491Y-152871776D01*
X87447194Y-152860544D01*
X87433897Y-152852853D01*
X87415328Y-152848040D01*
X87387214Y-152845446D01*
X87345283Y-152844410D01*
X87285263Y-152844270D01*
X87281691Y-152844275D01*
G37*
X87281691Y-152844275D02*
X87152712Y-152848636D01*
X87043009Y-152861861D01*
X86950774Y-152884741D01*
X86874198Y-152918070D01*
X86811473Y-152962638D01*
X86760788Y-153019236D01*
X86720337Y-153088658D01*
X86719541Y-153090351D01*
X86695399Y-153152483D01*
X86686797Y-153207509D01*
X86693769Y-153262887D01*
X86716346Y-153326073D01*
X86720628Y-153335689D01*
X86749828Y-153391966D01*
X86782644Y-153435451D01*
X86824998Y-153472417D01*
X86882810Y-153509135D01*
X86886169Y-153511052D01*
X86936496Y-153535227D01*
X86993379Y-153553282D01*
X87060473Y-153565839D01*
X87141435Y-153573522D01*
X87239918Y-153576953D01*
X87274714Y-153577251D01*
X87440406Y-153577845D01*
X87463803Y-153548100D01*
X87470743Y-153538319D01*
X87476158Y-153526897D01*
X87480235Y-153511095D01*
X87483163Y-153488175D01*
X87485133Y-153455396D01*
X87485775Y-153431089D01*
X87329156Y-153431089D01*
X87235274Y-153431089D01*
X87180336Y-153429483D01*
X87123940Y-153425255D01*
X87077655Y-153419292D01*
X87074861Y-153418790D01*
X86992652Y-153396736D01*
X86928886Y-153363600D01*
X86881548Y-153317847D01*
X86848618Y-153257939D01*
X86842892Y-153242061D01*
X86837279Y-153217333D01*
X86839709Y-153192902D01*
X86851533Y-153160400D01*
X86858660Y-153144434D01*
X86882000Y-153102006D01*
X86910120Y-153072240D01*
X86941060Y-153051511D01*
X87003034Y-153024537D01*
X87082349Y-153004998D01*
X87174747Y-152993746D01*
X87241667Y-152991270D01*
X87329156Y-152990822D01*
X87329156Y-153431089D01*
X87485775Y-153431089D01*
X87486332Y-153410021D01*
X87486950Y-153349311D01*
X87487175Y-153270526D01*
X87487200Y-153208920D01*
X87487200Y-152899485D01*
X87459491Y-152871776D01*
X87447194Y-152860544D01*
X87433897Y-152852853D01*
X87415328Y-152848040D01*
X87387214Y-152845446D01*
X87345283Y-152844410D01*
X87285263Y-152844270D01*
X87281691Y-152844275D01*
G36*
X84555335Y-152846034D02*
G01*
X84535745Y-152853035D01*
X84534990Y-152853377D01*
X84508387Y-152873678D01*
X84493730Y-152894561D01*
X84490862Y-152904352D01*
X84491004Y-152917361D01*
X84495039Y-152935895D01*
X84503854Y-152962257D01*
X84518331Y-152998752D01*
X84539355Y-153047687D01*
X84567812Y-153111365D01*
X84604585Y-153192093D01*
X84624825Y-153236216D01*
X84661375Y-153314985D01*
X84695685Y-153387423D01*
X84726448Y-153450880D01*
X84752352Y-153502708D01*
X84772090Y-153540259D01*
X84784350Y-153560884D01*
X84786776Y-153563733D01*
X84817817Y-153576302D01*
X84852879Y-153574619D01*
X84881000Y-153559332D01*
X84882146Y-153558089D01*
X84893332Y-153541154D01*
X84912096Y-153508170D01*
X84936125Y-153463380D01*
X84963103Y-153411032D01*
X84972799Y-153391742D01*
X85045986Y-153245150D01*
X85125760Y-153404393D01*
X85154233Y-153459415D01*
X85180650Y-153507132D01*
X85202852Y-153543893D01*
X85218681Y-153566044D01*
X85224046Y-153570741D01*
X85265743Y-153577102D01*
X85300151Y-153563733D01*
X85310272Y-153549446D01*
X85327786Y-153517692D01*
X85351265Y-153471597D01*
X85379280Y-153414285D01*
X85410401Y-153348880D01*
X85443201Y-153278507D01*
X85476250Y-153206291D01*
X85508119Y-153135355D01*
X85537381Y-153068825D01*
X85562605Y-153009826D01*
X85582364Y-152961481D01*
X85595228Y-152926915D01*
X85599769Y-152909253D01*
X85599723Y-152908613D01*
X85588674Y-152886388D01*
X85566590Y-152863753D01*
X85565290Y-152862768D01*
X85538147Y-152847425D01*
X85513042Y-152847574D01*
X85503632Y-152850466D01*
X85492166Y-152856718D01*
X85479990Y-152869014D01*
X85465643Y-152889908D01*
X85447664Y-152921949D01*
X85424593Y-152967688D01*
X85394970Y-153029677D01*
X85368255Y-153086898D01*
X85337520Y-153153226D01*
X85309979Y-153212874D01*
X85287062Y-153262725D01*
X85270202Y-153299664D01*
X85260827Y-153320573D01*
X85259460Y-153323845D01*
X85253311Y-153318497D01*
X85239178Y-153296109D01*
X85218943Y-153259946D01*
X85194485Y-153213277D01*
X85184752Y-153194022D01*
X85151783Y-153129004D01*
X85126357Y-153081654D01*
X85106388Y-153049219D01*
X85089790Y-153028946D01*
X85074476Y-153018082D01*
X85058360Y-153013875D01*
X85047857Y-153013400D01*
X85029330Y-153015042D01*
X85013096Y-153021831D01*
X84996965Y-153036566D01*
X84978749Y-153062044D01*
X84956261Y-153101061D01*
X84927311Y-153156414D01*
X84911338Y-153187903D01*
X84885430Y-153238087D01*
X84862833Y-153279704D01*
X84845542Y-153309242D01*
X84835550Y-153323189D01*
X84834191Y-153323770D01*
X84827739Y-153312793D01*
X84813292Y-153284290D01*
X84792297Y-153241244D01*
X84766203Y-153186638D01*
X84736454Y-153123454D01*
X84721820Y-153092071D01*
X84683750Y-153011078D01*
X84653095Y-152948756D01*
X84628263Y-152903071D01*
X84607663Y-152871989D01*
X84589702Y-152853478D01*
X84572790Y-152845504D01*
X84555335Y-152846034D01*
G37*
X84555335Y-152846034D02*
X84535745Y-152853035D01*
X84534990Y-152853377D01*
X84508387Y-152873678D01*
X84493730Y-152894561D01*
X84490862Y-152904352D01*
X84491004Y-152917361D01*
X84495039Y-152935895D01*
X84503854Y-152962257D01*
X84518331Y-152998752D01*
X84539355Y-153047687D01*
X84567812Y-153111365D01*
X84604585Y-153192093D01*
X84624825Y-153236216D01*
X84661375Y-153314985D01*
X84695685Y-153387423D01*
X84726448Y-153450880D01*
X84752352Y-153502708D01*
X84772090Y-153540259D01*
X84784350Y-153560884D01*
X84786776Y-153563733D01*
X84817817Y-153576302D01*
X84852879Y-153574619D01*
X84881000Y-153559332D01*
X84882146Y-153558089D01*
X84893332Y-153541154D01*
X84912096Y-153508170D01*
X84936125Y-153463380D01*
X84963103Y-153411032D01*
X84972799Y-153391742D01*
X85045986Y-153245150D01*
X85125760Y-153404393D01*
X85154233Y-153459415D01*
X85180650Y-153507132D01*
X85202852Y-153543893D01*
X85218681Y-153566044D01*
X85224046Y-153570741D01*
X85265743Y-153577102D01*
X85300151Y-153563733D01*
X85310272Y-153549446D01*
X85327786Y-153517692D01*
X85351265Y-153471597D01*
X85379280Y-153414285D01*
X85410401Y-153348880D01*
X85443201Y-153278507D01*
X85476250Y-153206291D01*
X85508119Y-153135355D01*
X85537381Y-153068825D01*
X85562605Y-153009826D01*
X85582364Y-152961481D01*
X85595228Y-152926915D01*
X85599769Y-152909253D01*
X85599723Y-152908613D01*
X85588674Y-152886388D01*
X85566590Y-152863753D01*
X85565290Y-152862768D01*
X85538147Y-152847425D01*
X85513042Y-152847574D01*
X85503632Y-152850466D01*
X85492166Y-152856718D01*
X85479990Y-152869014D01*
X85465643Y-152889908D01*
X85447664Y-152921949D01*
X85424593Y-152967688D01*
X85394970Y-153029677D01*
X85368255Y-153086898D01*
X85337520Y-153153226D01*
X85309979Y-153212874D01*
X85287062Y-153262725D01*
X85270202Y-153299664D01*
X85260827Y-153320573D01*
X85259460Y-153323845D01*
X85253311Y-153318497D01*
X85239178Y-153296109D01*
X85218943Y-153259946D01*
X85194485Y-153213277D01*
X85184752Y-153194022D01*
X85151783Y-153129004D01*
X85126357Y-153081654D01*
X85106388Y-153049219D01*
X85089790Y-153028946D01*
X85074476Y-153018082D01*
X85058360Y-153013875D01*
X85047857Y-153013400D01*
X85029330Y-153015042D01*
X85013096Y-153021831D01*
X84996965Y-153036566D01*
X84978749Y-153062044D01*
X84956261Y-153101061D01*
X84927311Y-153156414D01*
X84911338Y-153187903D01*
X84885430Y-153238087D01*
X84862833Y-153279704D01*
X84845542Y-153309242D01*
X84835550Y-153323189D01*
X84834191Y-153323770D01*
X84827739Y-153312793D01*
X84813292Y-153284290D01*
X84792297Y-153241244D01*
X84766203Y-153186638D01*
X84736454Y-153123454D01*
X84721820Y-153092071D01*
X84683750Y-153011078D01*
X84653095Y-152948756D01*
X84628263Y-152903071D01*
X84607663Y-152871989D01*
X84589702Y-152853478D01*
X84572790Y-152845504D01*
X84555335Y-152846034D01*
G36*
X84111386Y-152850877D02*
G01*
X84087673Y-152865647D01*
X84061022Y-152887227D01*
X84061022Y-153208773D01*
X84061107Y-153302830D01*
X84061471Y-153376932D01*
X84062276Y-153433704D01*
X84063687Y-153475768D01*
X84065867Y-153505748D01*
X84068979Y-153526267D01*
X84073186Y-153539949D01*
X84078652Y-153549416D01*
X84082528Y-153554082D01*
X84113966Y-153574575D01*
X84149767Y-153573739D01*
X84181127Y-153556264D01*
X84207778Y-153534684D01*
X84207778Y-152887227D01*
X84181127Y-152865647D01*
X84155406Y-152849949D01*
X84134400Y-152844067D01*
X84111386Y-152850877D01*
G37*
X84111386Y-152850877D02*
X84087673Y-152865647D01*
X84061022Y-152887227D01*
X84061022Y-153208773D01*
X84061107Y-153302830D01*
X84061471Y-153376932D01*
X84062276Y-153433704D01*
X84063687Y-153475768D01*
X84065867Y-153505748D01*
X84068979Y-153526267D01*
X84073186Y-153539949D01*
X84078652Y-153549416D01*
X84082528Y-153554082D01*
X84113966Y-153574575D01*
X84149767Y-153573739D01*
X84181127Y-153556264D01*
X84207778Y-153534684D01*
X84207778Y-152887227D01*
X84181127Y-152865647D01*
X84155406Y-152849949D01*
X84134400Y-152844067D01*
X84111386Y-152850877D01*
G36*
X83336935Y-152844163D02*
G01*
X83258228Y-152844542D01*
X83197137Y-152845333D01*
X83151183Y-152846670D01*
X83117886Y-152848683D01*
X83094764Y-152851506D01*
X83079338Y-152855269D01*
X83069129Y-152860105D01*
X83064187Y-152863822D01*
X83038543Y-152896358D01*
X83035441Y-152930138D01*
X83051289Y-152960826D01*
X83061652Y-152973089D01*
X83072804Y-152981450D01*
X83088965Y-152986657D01*
X83114358Y-152989457D01*
X83153202Y-152990596D01*
X83209720Y-152990821D01*
X83220820Y-152990822D01*
X83366756Y-152990822D01*
X83366756Y-153261756D01*
X83366852Y-153347154D01*
X83367289Y-153412864D01*
X83368288Y-153461774D01*
X83370072Y-153496773D01*
X83372863Y-153520749D01*
X83376883Y-153536593D01*
X83382355Y-153547191D01*
X83389334Y-153555267D01*
X83422266Y-153575112D01*
X83456646Y-153573548D01*
X83487824Y-153550906D01*
X83490114Y-153548100D01*
X83497571Y-153537492D01*
X83503253Y-153525081D01*
X83507399Y-153507850D01*
X83510250Y-153482784D01*
X83512046Y-153446867D01*
X83513028Y-153397083D01*
X83513436Y-153330417D01*
X83513511Y-153254589D01*
X83513511Y-152990822D01*
X83652873Y-152990822D01*
X83712678Y-152990418D01*
X83754082Y-152988840D01*
X83781252Y-152985547D01*
X83798354Y-152979992D01*
X83809557Y-152971631D01*
X83810917Y-152970178D01*
X83827275Y-152936939D01*
X83825828Y-152899362D01*
X83807022Y-152866645D01*
X83799750Y-152860298D01*
X83790373Y-152855266D01*
X83776391Y-152851396D01*
X83755304Y-152848537D01*
X83724611Y-152846535D01*
X83681811Y-152845239D01*
X83624405Y-152844498D01*
X83549890Y-152844158D01*
X83455767Y-152844068D01*
X83435740Y-152844067D01*
X83336935Y-152844163D01*
G37*
X83336935Y-152844163D02*
X83258228Y-152844542D01*
X83197137Y-152845333D01*
X83151183Y-152846670D01*
X83117886Y-152848683D01*
X83094764Y-152851506D01*
X83079338Y-152855269D01*
X83069129Y-152860105D01*
X83064187Y-152863822D01*
X83038543Y-152896358D01*
X83035441Y-152930138D01*
X83051289Y-152960826D01*
X83061652Y-152973089D01*
X83072804Y-152981450D01*
X83088965Y-152986657D01*
X83114358Y-152989457D01*
X83153202Y-152990596D01*
X83209720Y-152990821D01*
X83220820Y-152990822D01*
X83366756Y-152990822D01*
X83366756Y-153261756D01*
X83366852Y-153347154D01*
X83367289Y-153412864D01*
X83368288Y-153461774D01*
X83370072Y-153496773D01*
X83372863Y-153520749D01*
X83376883Y-153536593D01*
X83382355Y-153547191D01*
X83389334Y-153555267D01*
X83422266Y-153575112D01*
X83456646Y-153573548D01*
X83487824Y-153550906D01*
X83490114Y-153548100D01*
X83497571Y-153537492D01*
X83503253Y-153525081D01*
X83507399Y-153507850D01*
X83510250Y-153482784D01*
X83512046Y-153446867D01*
X83513028Y-153397083D01*
X83513436Y-153330417D01*
X83513511Y-153254589D01*
X83513511Y-152990822D01*
X83652873Y-152990822D01*
X83712678Y-152990418D01*
X83754082Y-152988840D01*
X83781252Y-152985547D01*
X83798354Y-152979992D01*
X83809557Y-152971631D01*
X83810917Y-152970178D01*
X83827275Y-152936939D01*
X83825828Y-152899362D01*
X83807022Y-152866645D01*
X83799750Y-152860298D01*
X83790373Y-152855266D01*
X83776391Y-152851396D01*
X83755304Y-152848537D01*
X83724611Y-152846535D01*
X83681811Y-152845239D01*
X83624405Y-152844498D01*
X83549890Y-152844158D01*
X83455767Y-152844068D01*
X83435740Y-152844067D01*
X83336935Y-152844163D01*
G36*
X82071177Y-152849533D02*
G01*
X82039798Y-152871776D01*
X82012089Y-152899485D01*
X82012089Y-153208920D01*
X82012162Y-153300799D01*
X82012505Y-153372840D01*
X82013308Y-153427780D01*
X82014759Y-153468360D01*
X82017048Y-153497317D01*
X82020364Y-153517391D01*
X82024895Y-153531321D01*
X82030831Y-153541845D01*
X82035486Y-153548100D01*
X82066217Y-153572673D01*
X82101504Y-153575341D01*
X82133755Y-153560271D01*
X82144412Y-153551374D01*
X82151536Y-153539557D01*
X82155833Y-153520526D01*
X82158009Y-153489992D01*
X82158772Y-153443662D01*
X82158845Y-153407871D01*
X82158845Y-153273045D01*
X82655556Y-153273045D01*
X82655556Y-153395700D01*
X82656069Y-153451787D01*
X82658124Y-153490333D01*
X82662492Y-153516361D01*
X82669944Y-153534897D01*
X82678953Y-153548100D01*
X82709856Y-153572604D01*
X82744804Y-153575506D01*
X82778262Y-153558089D01*
X82787396Y-153548959D01*
X82793848Y-153536855D01*
X82798103Y-153518001D01*
X82800648Y-153488620D01*
X82801971Y-153444937D01*
X82802557Y-153383175D01*
X82802625Y-153369000D01*
X82803109Y-153252631D01*
X82803359Y-153156727D01*
X82803277Y-153079177D01*
X82802769Y-153017869D01*
X82801738Y-152970690D01*
X82800087Y-152935530D01*
X82797721Y-152910276D01*
X82794543Y-152892817D01*
X82790456Y-152881041D01*
X82785366Y-152872835D01*
X82779734Y-152866645D01*
X82747872Y-152846844D01*
X82714643Y-152849533D01*
X82683265Y-152871776D01*
X82670567Y-152886126D01*
X82662474Y-152901978D01*
X82657958Y-152924554D01*
X82655994Y-152959078D01*
X82655556Y-153010776D01*
X82655556Y-153126289D01*
X82158845Y-153126289D01*
X82158845Y-153007756D01*
X82158338Y-152953148D01*
X82156302Y-152916275D01*
X82151965Y-152892307D01*
X82144553Y-152876415D01*
X82136267Y-152866645D01*
X82104406Y-152846844D01*
X82071177Y-152849533D01*
G37*
X82071177Y-152849533D02*
X82039798Y-152871776D01*
X82012089Y-152899485D01*
X82012089Y-153208920D01*
X82012162Y-153300799D01*
X82012505Y-153372840D01*
X82013308Y-153427780D01*
X82014759Y-153468360D01*
X82017048Y-153497317D01*
X82020364Y-153517391D01*
X82024895Y-153531321D01*
X82030831Y-153541845D01*
X82035486Y-153548100D01*
X82066217Y-153572673D01*
X82101504Y-153575341D01*
X82133755Y-153560271D01*
X82144412Y-153551374D01*
X82151536Y-153539557D01*
X82155833Y-153520526D01*
X82158009Y-153489992D01*
X82158772Y-153443662D01*
X82158845Y-153407871D01*
X82158845Y-153273045D01*
X82655556Y-153273045D01*
X82655556Y-153395700D01*
X82656069Y-153451787D01*
X82658124Y-153490333D01*
X82662492Y-153516361D01*
X82669944Y-153534897D01*
X82678953Y-153548100D01*
X82709856Y-153572604D01*
X82744804Y-153575506D01*
X82778262Y-153558089D01*
X82787396Y-153548959D01*
X82793848Y-153536855D01*
X82798103Y-153518001D01*
X82800648Y-153488620D01*
X82801971Y-153444937D01*
X82802557Y-153383175D01*
X82802625Y-153369000D01*
X82803109Y-153252631D01*
X82803359Y-153156727D01*
X82803277Y-153079177D01*
X82802769Y-153017869D01*
X82801738Y-152970690D01*
X82800087Y-152935530D01*
X82797721Y-152910276D01*
X82794543Y-152892817D01*
X82790456Y-152881041D01*
X82785366Y-152872835D01*
X82779734Y-152866645D01*
X82747872Y-152846844D01*
X82714643Y-152849533D01*
X82683265Y-152871776D01*
X82670567Y-152886126D01*
X82662474Y-152901978D01*
X82657958Y-152924554D01*
X82655994Y-152959078D01*
X82655556Y-153010776D01*
X82655556Y-153126289D01*
X82158845Y-153126289D01*
X82158845Y-153007756D01*
X82158338Y-152953148D01*
X82156302Y-152916275D01*
X82151965Y-152892307D01*
X82144553Y-152876415D01*
X82136267Y-152866645D01*
X82104406Y-152846844D01*
X82071177Y-152849533D01*
M02*
