G04 #@! TF.GenerationSoftware,KiCad,Pcbnew,(5.1.7-0-10_14)*
G04 #@! TF.CreationDate,2020-11-10T17:03:04+01:00*
G04 #@! TF.ProjectId,328p-standalone,33323870-2d73-4746-916e-64616c6f6e65,rev?*
G04 #@! TF.SameCoordinates,Original*
G04 #@! TF.FileFunction,Soldermask,Bot*
G04 #@! TF.FilePolarity,Negative*
%FSLAX46Y46*%
G04 Gerber Fmt 4.6, Leading zero omitted, Abs format (unit mm)*
G04 Created by KiCad (PCBNEW (5.1.7-0-10_14)) date 2020-11-10 17:03:04*
%MOMM*%
%LPD*%
G01*
G04 APERTURE LIST*
%ADD10C,2.500000*%
%ADD11C,1.400000*%
%ADD12R,1.400000X1.400000*%
%ADD13O,2.000000X1.440000*%
%ADD14R,2.000000X1.440000*%
%ADD15O,1.108000X2.216000*%
%ADD16C,0.650000*%
%ADD17C,6.400000*%
%ADD18O,1.400000X1.400000*%
%ADD19C,1.800000*%
%ADD20R,1.800000X1.800000*%
%ADD21C,1.600000*%
%ADD22R,1.200000X1.200000*%
%ADD23C,1.200000*%
%ADD24C,1.700000*%
%ADD25R,1.700000X1.700000*%
%ADD26O,1.700000X1.700000*%
%ADD27C,1.500000*%
G04 APERTURE END LIST*
D10*
X76910000Y-149860000D03*
X70410000Y-149860000D03*
X70410000Y-120650000D03*
X76910000Y-120650000D03*
D11*
X71120000Y-104140000D03*
D12*
X76200000Y-104140000D03*
D11*
X71120000Y-106680000D03*
D12*
X76200000Y-106680000D03*
D13*
X91440000Y-142240000D03*
X83820000Y-142240000D03*
X91440000Y-139700000D03*
X83820000Y-139700000D03*
X91440000Y-137160000D03*
X83820000Y-137160000D03*
X91440000Y-134620000D03*
X83820000Y-134620000D03*
X91440000Y-132080000D03*
X83820000Y-132080000D03*
X91440000Y-129540000D03*
X83820000Y-129540000D03*
X91440000Y-127000000D03*
X83820000Y-127000000D03*
X91440000Y-124460000D03*
X83820000Y-124460000D03*
X91440000Y-121920000D03*
X83820000Y-121920000D03*
X91440000Y-119380000D03*
X83820000Y-119380000D03*
X91440000Y-116840000D03*
X83820000Y-116840000D03*
X91440000Y-114300000D03*
X83820000Y-114300000D03*
X91440000Y-111760000D03*
X83820000Y-111760000D03*
X91440000Y-109220000D03*
D14*
X83820000Y-109220000D03*
D15*
X93225000Y-92165000D03*
X84575000Y-92165000D03*
X84575000Y-95545000D03*
X93225000Y-95545000D03*
D16*
X91875000Y-95175000D03*
X91025000Y-95175000D03*
X90175000Y-95175000D03*
X89325000Y-95175000D03*
X88475000Y-95175000D03*
X87625000Y-95175000D03*
X86775000Y-95175000D03*
X85925000Y-95175000D03*
X85925000Y-96525000D03*
X86775000Y-96525000D03*
X87625000Y-96525000D03*
X88475000Y-96525000D03*
X89325000Y-96525000D03*
X90175000Y-96525000D03*
X91025000Y-96525000D03*
X91875000Y-96525000D03*
D17*
X106680000Y-172050000D03*
X72390000Y-172050000D03*
X106680000Y-93980000D03*
X72390000Y-93980000D03*
D11*
X99250000Y-163675000D03*
D18*
X99250000Y-168755000D03*
D19*
X101665000Y-172275000D03*
D20*
X99125000Y-172275000D03*
D21*
X72390000Y-129540000D03*
X74890000Y-129540000D03*
X72430000Y-144780000D03*
X74930000Y-144780000D03*
D22*
X97750000Y-101600000D03*
D23*
X99250000Y-101600000D03*
D21*
X97750000Y-129540000D03*
X97750000Y-124540000D03*
X71200000Y-125730000D03*
X76200000Y-125730000D03*
D11*
X96520000Y-96520000D03*
D18*
X101600000Y-96520000D03*
G36*
G01*
X90215000Y-168675000D02*
X91415000Y-168675000D01*
G75*
G02*
X91665000Y-168925000I0J-250000D01*
G01*
X91665000Y-170125000D01*
G75*
G02*
X91415000Y-170375000I-250000J0D01*
G01*
X90215000Y-170375000D01*
G75*
G02*
X89965000Y-170125000I0J250000D01*
G01*
X89965000Y-168925000D01*
G75*
G02*
X90215000Y-168675000I250000J0D01*
G01*
G37*
D24*
X88275000Y-169525000D03*
X85735000Y-169525000D03*
X90815000Y-172065000D03*
X88275000Y-172065000D03*
X85735000Y-172065000D03*
X83190000Y-158765000D03*
X85730000Y-158765000D03*
X88270000Y-158765000D03*
X90810000Y-158765000D03*
X93350000Y-158765000D03*
X83190000Y-156225000D03*
X85730000Y-156225000D03*
X88270000Y-156225000D03*
X90810000Y-156225000D03*
G36*
G01*
X92750000Y-155375000D02*
X93950000Y-155375000D01*
G75*
G02*
X94200000Y-155625000I0J-250000D01*
G01*
X94200000Y-156825000D01*
G75*
G02*
X93950000Y-157075000I-250000J0D01*
G01*
X92750000Y-157075000D01*
G75*
G02*
X92500000Y-156825000I0J250000D01*
G01*
X92500000Y-155625000D01*
G75*
G02*
X92750000Y-155375000I250000J0D01*
G01*
G37*
D25*
X104140000Y-104140000D03*
D26*
X104140000Y-106680000D03*
X104140000Y-109220000D03*
X104140000Y-111760000D03*
D25*
X104140000Y-116840000D03*
D26*
X104140000Y-119380000D03*
X104140000Y-121920000D03*
X104140000Y-124460000D03*
X104140000Y-127000000D03*
X104140000Y-129540000D03*
D25*
X104140000Y-134620000D03*
D26*
X104140000Y-137160000D03*
X104140000Y-139700000D03*
X104140000Y-142240000D03*
X104140000Y-144780000D03*
X104140000Y-147320000D03*
X104140000Y-165100000D03*
X104140000Y-162560000D03*
X104140000Y-160020000D03*
X104140000Y-157480000D03*
X104140000Y-154940000D03*
D25*
X104140000Y-152400000D03*
D11*
X71120000Y-116840000D03*
D18*
X76200000Y-116840000D03*
D11*
X71120000Y-99060000D03*
D18*
X76200000Y-99060000D03*
X76200000Y-101600000D03*
D11*
X71120000Y-101600000D03*
D18*
X76200000Y-109220000D03*
D11*
X71120000Y-109220000D03*
X76200000Y-111760000D03*
D18*
X71120000Y-111760000D03*
X71120000Y-114300000D03*
D11*
X76200000Y-114300000D03*
D18*
X97790000Y-107950000D03*
D11*
X97790000Y-113030000D03*
X100330000Y-113030000D03*
D18*
X100330000Y-107950000D03*
D27*
X73660000Y-134620000D03*
X73660000Y-139500000D03*
M02*
